M48
;Layer_Color=9474304
;FILE_FORMAT=2:5
INCH,TZ
;TYPE=PLATED
T1F00S00C0.01000
T2F00S00C0.01500
T3F00S00C0.01968
T4F00S00C0.02000
T5F00S00C0.02500
T7F00S00C0.03543
T8F00S00C0.03937
T9F00S00C0.05906
T11F00S00C0.10630
T12F00S00C0.11811
T13F00S00C0.15748
%
T01
X55250Y-20250
X58250
Y-17250
Y-14250
Y-11250
Y-8500
X55250
Y-11250
Y-14250
Y-17250
X54500Y-750
X51250
X48000
X49750Y1500
X53000
X56250
X58000Y-750
X96000Y-1000
X99250
X102500
X101000Y1250
X97750
X99250Y3500
X82250Y22500
X86500Y45250
Y49500
X46750Y48500
Y45250
X43250
Y48500
X132250Y-2500
X31750Y22500
X35750Y45250
Y48500
X39250
Y45250
X12500Y35250
X8750
X5000
X1000
X750Y1750
X-2500
X-1000Y-500
X2250
X5750
X4000Y1750
X4250Y-8500
Y-11250
X7250
Y-8500
Y-14250
Y-17250
Y-20250
X4250
Y-17250
Y-14250
X-4250Y-500
X-21500Y22500
X-28500Y39750
X-31750
X-35000
X-48250Y1750
X-51500
X-54750
X-53250Y-500
X-56500
X-50000
X-46500
X-45500Y-8250
Y-11250
Y-14250
X-48500
Y-11250
Y-8250
Y-17500
X-45500
Y-21000
X-48500
X-97250Y-21500
Y-18000
Y-14750
Y-11750
Y-8750
X-100250Y-9750
Y-12750
Y-15750
Y-19000
Y-22500
X-72750Y22500
X-107250Y47000
Y50250
X-110750
Y47000
X-114750
Y50250
X-118250
Y47000
X-126000Y29750
Y27750
X-151750Y40750
X-147750Y-39000
X-128000Y99500
X-124500
X-121250
X-117750
X-114000
T02
X55254Y14504
X3258Y14508
X-48250Y14500
X-99492Y14758
T03
X42248Y-66707
Y-60998
Y-53124
Y-45250
Y-37376
X61502
Y-45250
X69376
Y-37376
X77250
Y-45250
X85124
Y-37376
X92998
Y-45250
Y-53124
X85124
Y-60998
Y-66707
X92998
Y-60998
X77250
Y-66707
X69376
Y-60998
Y-53124
X77250
X61502
Y-60998
Y-66707
X34374
Y-60998
Y-53124
Y-45250
Y-37376
X26500
X18626
Y-45250
X26500
Y-53124
X18626
Y-60998
Y-66707
X26500
Y-60998
X10752
Y-66707
Y-53124
Y-45250
Y-37376
X-10752Y-37175
X-18626
Y-45049
X-10752
Y-52923
X-18626
Y-60797
Y-66506
X-10752
Y-60797
X-26500
Y-66506
X-34374
Y-60797
Y-52923
X-26500
Y-45049
Y-37175
X-34374
Y-45049
X-42248
Y-37175
Y-52923
Y-60797
Y-66506
X-62002Y-66457
Y-60748
Y-52874
X-69876
Y-60748
Y-66457
X-77750
Y-60748
Y-52874
X-85624
Y-60748
Y-66457
X-93498
Y-60748
Y-52874
Y-45000
Y-37126
X-85624
X-77750
Y-45000
X-85624
X-69876
Y-37126
X-62002
Y-45000
T04
X-78057Y37057
T05
X159949Y-76801
X174000Y-61250
X157301Y-40301
X147750Y-11750
T07
X168339Y-3770
Y6230
Y16230
X178339
Y6230
Y-3770
X-134626Y-5059
Y-15059
X-144626
Y-5059
Y4941
X-134626
Y14941
X-144626
T08
X145923Y41486
Y51329
Y59203
Y69045
X-171000Y66374
Y58500
Y50626
Y42752
Y34878
Y9748
Y1874
Y-6000
Y-13874
Y-21748
Y-29622
Y74248
T09
X126000Y-76801
Y-61250
Y-40301
Y-24750
X-113949Y-47500
X-129500
T11
X156750Y29478
Y81250
T12
X-177252Y-95748
X177252
T13
X-157248Y101252
X151748
M30
