G04 Layer_Physical_Order=1*
G04 Layer_Color=255*
%FSLAX25Y25*%
%MOIN*%
G70*
G01*
G75*
%ADD10R,0.03150X0.18110*%
%ADD11R,0.42520X0.37008*%
%ADD12R,0.06102X0.00984*%
%ADD13R,0.42520X0.27520*%
%ADD14R,0.04213X0.12441*%
%ADD15R,0.12795X0.08465*%
%ADD16R,0.04291X0.09016*%
%ADD17R,0.04567X0.05787*%
%ADD18R,0.05787X0.04567*%
%ADD19R,0.10236X0.12598*%
%ADD20R,0.06102X0.09449*%
%ADD21R,0.11024X0.09449*%
%ADD22R,0.07874X0.15748*%
%ADD23R,0.15748X0.07874*%
%ADD24R,0.07087X0.05315*%
%ADD25R,0.05315X0.07087*%
%ADD26R,0.03661X0.03858*%
%ADD27R,0.03858X0.03661*%
%ADD28C,0.02000*%
%ADD29C,0.03000*%
%ADD30C,0.01000*%
%ADD31C,0.05000*%
%ADD32C,0.03937*%
%ADD33C,0.13780*%
%ADD34C,0.06299*%
%ADD35C,0.07874*%
%ADD36R,0.04724X0.15354*%
%ADD37R,0.13780X0.04724*%
%ADD38C,0.05906*%
%ADD39R,0.05906X0.05906*%
%ADD40R,0.11811X0.15748*%
%ADD41C,0.15748*%
%ADD42C,0.19685*%
%ADD43C,0.02000*%
%ADD44C,0.02500*%
%ADD45C,0.04000*%
G36*
X32506Y-4764D02*
X32551Y-5404D01*
X32590Y-5664D01*
X32641Y-5884D01*
X32703Y-6064D01*
X32776Y-6204D01*
X32860Y-6304D01*
X32956Y-6364D01*
X33063Y-6384D01*
X29937D01*
X30044Y-6364D01*
X30140Y-6304D01*
X30224Y-6204D01*
X30297Y-6064D01*
X30359Y-5884D01*
X30410Y-5664D01*
X30449Y-5404D01*
X30477Y-5104D01*
X30500Y-4384D01*
X32500D01*
X32506Y-4764D01*
D02*
G37*
G36*
X37506D02*
X37551Y-5404D01*
X37590Y-5664D01*
X37641Y-5884D01*
X37703Y-6064D01*
X37776Y-6204D01*
X37860Y-6304D01*
X37956Y-6364D01*
X38063Y-6384D01*
X34937D01*
X35044Y-6364D01*
X35140Y-6304D01*
X35224Y-6204D01*
X35297Y-6064D01*
X35359Y-5884D01*
X35410Y-5664D01*
X35449Y-5404D01*
X35478Y-5104D01*
X35500Y-4384D01*
X37500D01*
X37506Y-4764D01*
D02*
G37*
G36*
X17506D02*
X17551Y-5404D01*
X17590Y-5664D01*
X17641Y-5884D01*
X17703Y-6064D01*
X17776Y-6204D01*
X17860Y-6304D01*
X17956Y-6364D01*
X18063Y-6384D01*
X14937D01*
X15044Y-6364D01*
X15140Y-6304D01*
X15224Y-6204D01*
X15297Y-6064D01*
X15359Y-5884D01*
X15410Y-5664D01*
X15449Y-5404D01*
X15477Y-5104D01*
X15500Y-4384D01*
X17500D01*
X17506Y-4764D01*
D02*
G37*
G36*
X22506D02*
X22551Y-5404D01*
X22590Y-5664D01*
X22641Y-5884D01*
X22703Y-6064D01*
X22776Y-6204D01*
X22860Y-6304D01*
X22956Y-6364D01*
X23063Y-6384D01*
X19937D01*
X20044Y-6364D01*
X20140Y-6304D01*
X20224Y-6204D01*
X20297Y-6064D01*
X20359Y-5884D01*
X20410Y-5664D01*
X20449Y-5404D01*
X20478Y-5104D01*
X20500Y-4384D01*
X22500D01*
X22506Y-4764D01*
D02*
G37*
G36*
X68256D02*
X68301Y-5404D01*
X68340Y-5664D01*
X68391Y-5884D01*
X68453Y-6064D01*
X68526Y-6204D01*
X68610Y-6304D01*
X68706Y-6364D01*
X68813Y-6384D01*
X65687D01*
X65794Y-6364D01*
X65890Y-6304D01*
X65974Y-6204D01*
X66047Y-6064D01*
X66109Y-5884D01*
X66160Y-5664D01*
X66199Y-5404D01*
X66228Y-5104D01*
X66250Y-4384D01*
X68250D01*
X68256Y-4764D01*
D02*
G37*
G36*
X88256D02*
X88301Y-5404D01*
X88340Y-5664D01*
X88391Y-5884D01*
X88453Y-6064D01*
X88526Y-6204D01*
X88610Y-6304D01*
X88706Y-6364D01*
X88813Y-6384D01*
X85687D01*
X85794Y-6364D01*
X85890Y-6304D01*
X85974Y-6204D01*
X86047Y-6064D01*
X86109Y-5884D01*
X86160Y-5664D01*
X86199Y-5404D01*
X86228Y-5104D01*
X86250Y-4384D01*
X88250D01*
X88256Y-4764D01*
D02*
G37*
G36*
X133264Y-5819D02*
X133305Y-5910D01*
X133374Y-6023D01*
X133471Y-6158D01*
X133747Y-6493D01*
X134368Y-7158D01*
X134630Y-7423D01*
X133929Y-8124D01*
X133957Y-8164D01*
X133823Y-8050D01*
X133703Y-7990D01*
X133597Y-7984D01*
X133505Y-8032D01*
X133427Y-8134D01*
X133363Y-8290D01*
X133314Y-8501D01*
X133257Y-9084D01*
X133250Y-9457D01*
X131250Y-5750D01*
X132250D01*
X132664Y-6335D01*
X133250Y-5749D01*
X133264Y-5819D01*
D02*
G37*
G36*
X73256Y-4764D02*
X73301Y-5404D01*
X73340Y-5664D01*
X73391Y-5884D01*
X73453Y-6064D01*
X73526Y-6204D01*
X73610Y-6304D01*
X73706Y-6364D01*
X73813Y-6384D01*
X70687D01*
X70794Y-6364D01*
X70890Y-6304D01*
X70974Y-6204D01*
X71047Y-6064D01*
X71109Y-5884D01*
X71160Y-5664D01*
X71199Y-5404D01*
X71228Y-5104D01*
X71250Y-4384D01*
X73250D01*
X73256Y-4764D01*
D02*
G37*
G36*
X83256D02*
X83301Y-5404D01*
X83340Y-5664D01*
X83391Y-5884D01*
X83453Y-6064D01*
X83526Y-6204D01*
X83610Y-6304D01*
X83706Y-6364D01*
X83813Y-6384D01*
X80687D01*
X80794Y-6364D01*
X80890Y-6304D01*
X80974Y-6204D01*
X81047Y-6064D01*
X81109Y-5884D01*
X81160Y-5664D01*
X81199Y-5404D01*
X81227Y-5104D01*
X81250Y-4384D01*
X83250D01*
X83256Y-4764D01*
D02*
G37*
G36*
X-168679Y-12010D02*
X-168459Y-12191D01*
X-168232Y-12351D01*
X-167999Y-12490D01*
X-167758Y-12607D01*
X-167510Y-12703D01*
X-167256Y-12778D01*
X-166994Y-12831D01*
X-166726Y-12863D01*
X-166450Y-12874D01*
Y-14874D01*
X-166726Y-14885D01*
X-166994Y-14917D01*
X-167256Y-14970D01*
X-167510Y-15045D01*
X-167758Y-15141D01*
X-167999Y-15258D01*
X-168232Y-15397D01*
X-168459Y-15557D01*
X-168679Y-15738D01*
X-168891Y-15941D01*
Y-11807D01*
X-168679Y-12010D01*
D02*
G37*
G36*
X-162120Y-15874D02*
X-162141Y-15684D01*
X-162201Y-15514D01*
X-162302Y-15364D01*
X-162443Y-15234D01*
X-162625Y-15124D01*
X-162846Y-15034D01*
X-163107Y-14964D01*
X-163409Y-14914D01*
X-163750Y-14884D01*
X-164132Y-14874D01*
Y-12874D01*
X-163752Y-12870D01*
X-162852Y-12810D01*
X-162632Y-12774D01*
X-162452Y-12730D01*
X-162312Y-12678D01*
X-162212Y-12618D01*
X-162152Y-12551D01*
X-162132Y-12475D01*
X-162120Y-15874D01*
D02*
G37*
G36*
X-72082Y-15943D02*
X-72117Y-16037D01*
X-72148Y-16165D01*
X-72175Y-16329D01*
X-72217Y-16761D01*
X-72248Y-17670D01*
X-72250Y-18043D01*
X-73250D01*
X-73252Y-17670D01*
X-73352Y-16165D01*
X-73383Y-16037D01*
X-73418Y-15943D01*
X-73458Y-15884D01*
X-72042D01*
X-72082Y-15943D01*
D02*
G37*
G36*
X119783Y-13912D02*
X119844Y-14082D01*
X119945Y-14232D01*
X120085Y-14362D01*
X120266Y-14472D01*
X120488Y-14562D01*
X120749Y-14632D01*
X121051Y-14682D01*
X121393Y-14712D01*
X121775Y-14722D01*
Y-16722D01*
X121393Y-16732D01*
X121051Y-16762D01*
X120749Y-16812D01*
X120488Y-16882D01*
X120266Y-16972D01*
X120085Y-17082D01*
X119945Y-17212D01*
X119844Y-17362D01*
X119783Y-17532D01*
X119763Y-17722D01*
Y-13722D01*
X119783Y-13912D01*
D02*
G37*
G36*
X111001Y-12061D02*
X111016Y-12233D01*
X111041Y-12384D01*
X111076Y-12516D01*
X111121Y-12627D01*
X111176Y-12718D01*
X111241Y-12789D01*
X111316Y-12840D01*
X111401Y-12870D01*
X111496Y-12880D01*
X109496D01*
X109591Y-12870D01*
X109676Y-12840D01*
X109751Y-12789D01*
X109816Y-12718D01*
X109871Y-12627D01*
X109916Y-12516D01*
X109951Y-12384D01*
X109976Y-12233D01*
X109991Y-12061D01*
X109996Y-11868D01*
X110996D01*
X111001Y-12061D01*
D02*
G37*
G36*
X-134655Y-8012D02*
X-134949Y-8019D01*
X-135233Y-8046D01*
X-135506Y-8093D01*
X-135769Y-8160D01*
X-136023Y-8247D01*
X-136266Y-8354D01*
X-136498Y-8482D01*
X-136721Y-8629D01*
X-136934Y-8796D01*
X-137136Y-8984D01*
X-138550Y-7569D01*
X-138363Y-7367D01*
X-138196Y-7154D01*
X-138049Y-6932D01*
X-137921Y-6699D01*
X-137814Y-6456D01*
X-137727Y-6203D01*
X-137660Y-5939D01*
X-137613Y-5666D01*
X-137586Y-5382D01*
X-137579Y-5089D01*
X-134655Y-8012D01*
D02*
G37*
G36*
X176812Y-6710D02*
X176734Y-6654D01*
X176642Y-6626D01*
X176536D01*
X176416Y-6654D01*
X176282Y-6710D01*
X176133Y-6795D01*
X175971Y-6908D01*
X175794Y-7050D01*
X175398Y-7418D01*
X174691Y-6710D01*
X174889Y-6505D01*
X175200Y-6138D01*
X175313Y-5975D01*
X175398Y-5827D01*
X175454Y-5692D01*
X175483Y-5572D01*
Y-5466D01*
X175454Y-5374D01*
X175398Y-5296D01*
X176812Y-6710D01*
D02*
G37*
G36*
X-158240Y-10857D02*
X-158210Y-11199D01*
X-158160Y-11501D01*
X-158090Y-11762D01*
X-158000Y-11984D01*
X-157890Y-12165D01*
X-157760Y-12306D01*
X-157610Y-12406D01*
X-157440Y-12466D01*
X-157250Y-12487D01*
X-161250D01*
X-161060Y-12466D01*
X-160890Y-12406D01*
X-160740Y-12306D01*
X-160610Y-12165D01*
X-160500Y-11984D01*
X-160410Y-11762D01*
X-160340Y-11501D01*
X-160290Y-11199D01*
X-160260Y-10857D01*
X-160250Y-10475D01*
X-158250D01*
X-158240Y-10857D01*
D02*
G37*
G36*
X-144656Y-8012D02*
X-144949Y-8019D01*
X-145233Y-8046D01*
X-145506Y-8093D01*
X-145770Y-8160D01*
X-146023Y-8247D01*
X-146266Y-8354D01*
X-146499Y-8482D01*
X-146721Y-8629D01*
X-146934Y-8796D01*
X-147136Y-8984D01*
X-148550Y-7569D01*
X-148363Y-7367D01*
X-148196Y-7154D01*
X-148048Y-6932D01*
X-147921Y-6699D01*
X-147814Y-6456D01*
X-147727Y-6203D01*
X-147660Y-5939D01*
X-147613Y-5666D01*
X-147586Y-5382D01*
X-147579Y-5089D01*
X-144656Y-8012D01*
D02*
G37*
G36*
X-39440Y5212D02*
X-39610Y5152D01*
X-39760Y5052D01*
X-39890Y4911D01*
X-40000Y4730D01*
X-40090Y4508D01*
X-40160Y4247D01*
X-40210Y3945D01*
X-40240Y3603D01*
X-40250Y3221D01*
X-42250D01*
X-42260Y3603D01*
X-42290Y3945D01*
X-42340Y4247D01*
X-42410Y4508D01*
X-42500Y4730D01*
X-42610Y4911D01*
X-42740Y5052D01*
X-42890Y5152D01*
X-43060Y5212D01*
X-43250Y5233D01*
X-39250D01*
X-39440Y5212D01*
D02*
G37*
G36*
X-29690Y5217D02*
X-29860Y5156D01*
X-30010Y5055D01*
X-30140Y4915D01*
X-30250Y4734D01*
X-30340Y4512D01*
X-30410Y4251D01*
X-30460Y3949D01*
X-30490Y3607D01*
X-30500Y3225D01*
X-32500D01*
X-32510Y3607D01*
X-32540Y3949D01*
X-32590Y4251D01*
X-32660Y4512D01*
X-32750Y4734D01*
X-32860Y4915D01*
X-32990Y5055D01*
X-33140Y5156D01*
X-33310Y5217D01*
X-33500Y5237D01*
X-29500D01*
X-29690Y5217D01*
D02*
G37*
G36*
X178309Y3278D02*
X177885Y3274D01*
X177124Y3223D01*
X176787Y3174D01*
X176480Y3111D01*
X176202Y3032D01*
X175953Y2938D01*
X175733Y2829D01*
X175543Y2705D01*
X175382Y2566D01*
X174674Y3273D01*
X174814Y3435D01*
X174938Y3625D01*
X175047Y3845D01*
X175140Y4094D01*
X175219Y4372D01*
X175283Y4679D01*
X175331Y5016D01*
X175383Y5777D01*
X175386Y6201D01*
X178309Y3278D01*
D02*
G37*
G36*
X-146735Y2874D02*
X-146947Y3077D01*
X-147167Y3258D01*
X-147394Y3418D01*
X-147627Y3557D01*
X-147868Y3674D01*
X-148116Y3770D01*
X-148370Y3845D01*
X-148632Y3898D01*
X-148900Y3930D01*
X-149176Y3941D01*
Y5941D01*
X-148900Y5952D01*
X-148632Y5984D01*
X-148370Y6037D01*
X-148116Y6112D01*
X-147868Y6208D01*
X-147627Y6325D01*
X-147394Y6464D01*
X-147167Y6624D01*
X-146947Y6805D01*
X-146735Y7008D01*
Y2874D01*
D02*
G37*
G36*
X64060Y5217D02*
X63890Y5156D01*
X63740Y5055D01*
X63610Y4915D01*
X63500Y4734D01*
X63410Y4512D01*
X63340Y4251D01*
X63290Y3949D01*
X63260Y3607D01*
X63250Y3225D01*
X61250D01*
X61240Y3607D01*
X61210Y3949D01*
X61160Y4251D01*
X61090Y4512D01*
X61000Y4734D01*
X60890Y4915D01*
X60760Y5055D01*
X60610Y5156D01*
X60440Y5217D01*
X60250Y5237D01*
X64250D01*
X64060Y5217D01*
D02*
G37*
G36*
X13310Y5220D02*
X13140Y5160D01*
X12990Y5060D01*
X12860Y4919D01*
X12750Y4738D01*
X12660Y4516D01*
X12590Y4255D01*
X12540Y3953D01*
X12510Y3611D01*
X12500Y3229D01*
X10500D01*
X10490Y3611D01*
X10460Y3953D01*
X10410Y4255D01*
X10340Y4516D01*
X10250Y4738D01*
X10140Y4919D01*
X10010Y5060D01*
X9860Y5160D01*
X9690Y5220D01*
X9500Y5240D01*
X13500D01*
X13310Y5220D01*
D02*
G37*
G36*
X23310D02*
X23140Y5160D01*
X22990Y5060D01*
X22860Y4919D01*
X22750Y4738D01*
X22660Y4516D01*
X22590Y4255D01*
X22540Y3953D01*
X22510Y3611D01*
X22500Y3229D01*
X20500D01*
X20490Y3611D01*
X20460Y3953D01*
X20410Y4255D01*
X20340Y4516D01*
X20250Y4738D01*
X20140Y4919D01*
X20010Y5060D01*
X19860Y5160D01*
X19690Y5220D01*
X19500Y5240D01*
X23500D01*
X23310Y5220D01*
D02*
G37*
G36*
X84060Y5217D02*
X83890Y5156D01*
X83740Y5055D01*
X83610Y4915D01*
X83500Y4734D01*
X83410Y4512D01*
X83340Y4251D01*
X83290Y3949D01*
X83260Y3607D01*
X83250Y3225D01*
X81250D01*
X81240Y3607D01*
X81210Y3949D01*
X81160Y4251D01*
X81090Y4512D01*
X81000Y4734D01*
X80890Y4915D01*
X80760Y5055D01*
X80610Y5156D01*
X80440Y5217D01*
X80250Y5237D01*
X84250D01*
X84060Y5217D01*
D02*
G37*
G36*
X-19690Y5220D02*
X-19860Y5160D01*
X-20010Y5060D01*
X-20140Y4919D01*
X-20250Y4738D01*
X-20340Y4516D01*
X-20410Y4255D01*
X-20460Y3953D01*
X-20490Y3611D01*
X-20500Y3229D01*
X-22500D01*
X-22510Y3611D01*
X-22540Y3953D01*
X-22590Y4255D01*
X-22660Y4516D01*
X-22750Y4738D01*
X-22860Y4919D01*
X-22990Y5060D01*
X-23140Y5160D01*
X-23310Y5220D01*
X-23500Y5240D01*
X-19500D01*
X-19690Y5220D01*
D02*
G37*
G36*
X-20494Y-4563D02*
X-20449Y-5203D01*
X-20410Y-5463D01*
X-20359Y-5683D01*
X-20297Y-5863D01*
X-20224Y-6003D01*
X-20140Y-6103D01*
X-20044Y-6163D01*
X-19937Y-6183D01*
X-23063D01*
X-22956Y-6163D01*
X-22860Y-6103D01*
X-22776Y-6003D01*
X-22703Y-5863D01*
X-22641Y-5683D01*
X-22590Y-5463D01*
X-22551Y-5203D01*
X-22523Y-4903D01*
X-22500Y-4183D01*
X-20500D01*
X-20494Y-4563D01*
D02*
G37*
G36*
X-15494D02*
X-15449Y-5203D01*
X-15410Y-5463D01*
X-15359Y-5683D01*
X-15297Y-5863D01*
X-15224Y-6003D01*
X-15140Y-6103D01*
X-15044Y-6163D01*
X-14937Y-6183D01*
X-18063D01*
X-17956Y-6163D01*
X-17860Y-6103D01*
X-17776Y-6003D01*
X-17703Y-5863D01*
X-17641Y-5683D01*
X-17590Y-5463D01*
X-17551Y-5203D01*
X-17523Y-4903D01*
X-17500Y-4183D01*
X-15500D01*
X-15494Y-4563D01*
D02*
G37*
G36*
X-35494D02*
X-35449Y-5203D01*
X-35410Y-5463D01*
X-35359Y-5683D01*
X-35297Y-5863D01*
X-35224Y-6003D01*
X-35140Y-6103D01*
X-35044Y-6163D01*
X-34937Y-6183D01*
X-38063D01*
X-37956Y-6163D01*
X-37860Y-6103D01*
X-37776Y-6003D01*
X-37703Y-5863D01*
X-37641Y-5683D01*
X-37590Y-5463D01*
X-37551Y-5203D01*
X-37523Y-4903D01*
X-37500Y-4183D01*
X-35500D01*
X-35494Y-4563D01*
D02*
G37*
G36*
X-30494D02*
X-30449Y-5203D01*
X-30410Y-5463D01*
X-30359Y-5683D01*
X-30297Y-5863D01*
X-30224Y-6003D01*
X-30140Y-6103D01*
X-30044Y-6163D01*
X-29937Y-6183D01*
X-33063D01*
X-32956Y-6163D01*
X-32860Y-6103D01*
X-32776Y-6003D01*
X-32703Y-5863D01*
X-32641Y-5683D01*
X-32590Y-5463D01*
X-32551Y-5203D01*
X-32522Y-4903D01*
X-32500Y-4183D01*
X-30500D01*
X-30494Y-4563D01*
D02*
G37*
G36*
X-86744Y-4514D02*
X-86699Y-5154D01*
X-86660Y-5414D01*
X-86609Y-5634D01*
X-86547Y-5814D01*
X-86474Y-5954D01*
X-86390Y-6054D01*
X-86294Y-6114D01*
X-86187Y-6134D01*
X-89313D01*
X-89206Y-6114D01*
X-89110Y-6054D01*
X-89026Y-5954D01*
X-88953Y-5814D01*
X-88891Y-5634D01*
X-88840Y-5414D01*
X-88801Y-5154D01*
X-88772Y-4854D01*
X-88750Y-4134D01*
X-86750D01*
X-86744Y-4514D01*
D02*
G37*
G36*
X-66744D02*
X-66699Y-5154D01*
X-66660Y-5414D01*
X-66609Y-5634D01*
X-66547Y-5814D01*
X-66474Y-5954D01*
X-66390Y-6054D01*
X-66294Y-6114D01*
X-66187Y-6134D01*
X-69313D01*
X-69206Y-6114D01*
X-69110Y-6054D01*
X-69026Y-5954D01*
X-68953Y-5814D01*
X-68891Y-5634D01*
X-68840Y-5414D01*
X-68801Y-5154D01*
X-68773Y-4854D01*
X-68750Y-4134D01*
X-66750D01*
X-66744Y-4514D01*
D02*
G37*
G36*
X166230Y-5837D02*
X165928Y-5539D01*
X165353Y-5037D01*
X165081Y-4834D01*
X164819Y-4661D01*
X164566Y-4520D01*
X164324Y-4411D01*
X164092Y-4332D01*
X163869Y-4285D01*
X163657Y-4270D01*
Y-3270D01*
X163869Y-3254D01*
X164092Y-3207D01*
X164324Y-3129D01*
X164566Y-3019D01*
X164819Y-2878D01*
X165081Y-2706D01*
X165353Y-2502D01*
X165928Y-2001D01*
X166230Y-1703D01*
Y-5837D01*
D02*
G37*
G36*
X-81744Y-4514D02*
X-81699Y-5154D01*
X-81660Y-5414D01*
X-81609Y-5634D01*
X-81547Y-5814D01*
X-81474Y-5954D01*
X-81390Y-6054D01*
X-81294Y-6114D01*
X-81187Y-6134D01*
X-84313D01*
X-84206Y-6114D01*
X-84110Y-6054D01*
X-84026Y-5954D01*
X-83953Y-5814D01*
X-83891Y-5634D01*
X-83840Y-5414D01*
X-83801Y-5154D01*
X-83772Y-4854D01*
X-83750Y-4134D01*
X-81750D01*
X-81744Y-4514D01*
D02*
G37*
G36*
X-71744D02*
X-71699Y-5154D01*
X-71660Y-5414D01*
X-71609Y-5634D01*
X-71547Y-5814D01*
X-71474Y-5954D01*
X-71390Y-6054D01*
X-71294Y-6114D01*
X-71187Y-6134D01*
X-74313D01*
X-74206Y-6114D01*
X-74110Y-6054D01*
X-74026Y-5954D01*
X-73953Y-5814D01*
X-73891Y-5634D01*
X-73840Y-5414D01*
X-73801Y-5154D01*
X-73773Y-4854D01*
X-73750Y-4134D01*
X-71750D01*
X-71744Y-4514D01*
D02*
G37*
G36*
X-20832Y-15992D02*
X-20867Y-16086D01*
X-20898Y-16215D01*
X-20925Y-16378D01*
X-20967Y-16810D01*
X-20998Y-17719D01*
X-21000Y-18092D01*
X-22000D01*
X-22002Y-17719D01*
X-22102Y-16215D01*
X-22133Y-16086D01*
X-22168Y-15992D01*
X-22208Y-15933D01*
X-20792D01*
X-20832Y-15992D01*
D02*
G37*
G36*
X-169223Y-32008D02*
X-169386Y-32197D01*
X-169530Y-32399D01*
X-169655Y-32614D01*
X-169760Y-32842D01*
X-169847Y-33082D01*
X-169914Y-33335D01*
X-169962Y-33601D01*
X-169990Y-33880D01*
X-170000Y-34172D01*
X-172000D01*
X-172010Y-33880D01*
X-172038Y-33601D01*
X-172086Y-33335D01*
X-172153Y-33082D01*
X-172240Y-32842D01*
X-172345Y-32614D01*
X-172470Y-32399D01*
X-172614Y-32197D01*
X-172777Y-32008D01*
X-172959Y-31831D01*
X-169041D01*
X-169223Y-32008D01*
D02*
G37*
G36*
X27510Y-31341D02*
X27540Y-31683D01*
X27590Y-31985D01*
X27660Y-32247D01*
X27750Y-32468D01*
X27860Y-32649D01*
X27990Y-32790D01*
X28140Y-32890D01*
X28310Y-32951D01*
X28500Y-32971D01*
X24500D01*
X24690Y-32951D01*
X24860Y-32890D01*
X25010Y-32790D01*
X25140Y-32649D01*
X25250Y-32468D01*
X25340Y-32247D01*
X25410Y-31985D01*
X25460Y-31683D01*
X25490Y-31341D01*
X25500Y-30959D01*
X27500D01*
X27510Y-31341D01*
D02*
G37*
G36*
X27504Y-34712D02*
X27534Y-35094D01*
X27560Y-35263D01*
X27595Y-35417D01*
X27636Y-35557D01*
X27685Y-35682D01*
X27742Y-35793D01*
X27806Y-35889D01*
X27878Y-35970D01*
X25122D01*
X25194Y-35889D01*
X25258Y-35793D01*
X25315Y-35682D01*
X25364Y-35557D01*
X25405Y-35417D01*
X25440Y-35263D01*
X25466Y-35094D01*
X25485Y-34910D01*
X25500Y-34499D01*
X27500D01*
X27504Y-34712D01*
D02*
G37*
G36*
X-76746Y-34462D02*
X-76716Y-34844D01*
X-76689Y-35013D01*
X-76656Y-35167D01*
X-76614Y-35307D01*
X-76565Y-35432D01*
X-76508Y-35543D01*
X-76444Y-35639D01*
X-76372Y-35720D01*
X-79128D01*
X-79056Y-35639D01*
X-78992Y-35543D01*
X-78935Y-35432D01*
X-78886Y-35307D01*
X-78844Y-35167D01*
X-78811Y-35013D01*
X-78784Y-34844D01*
X-78765Y-34660D01*
X-78750Y-34249D01*
X-76750D01*
X-76746Y-34462D01*
D02*
G37*
G36*
X-76740Y-31091D02*
X-76710Y-31433D01*
X-76660Y-31735D01*
X-76590Y-31997D01*
X-76500Y-32218D01*
X-76390Y-32399D01*
X-76260Y-32540D01*
X-76110Y-32640D01*
X-75940Y-32701D01*
X-75750Y-32721D01*
X-79750D01*
X-79560Y-32701D01*
X-79390Y-32640D01*
X-79240Y-32540D01*
X-79110Y-32399D01*
X-79000Y-32218D01*
X-78910Y-31997D01*
X-78840Y-31735D01*
X-78790Y-31433D01*
X-78760Y-31091D01*
X-78750Y-30709D01*
X-76750D01*
X-76740Y-31091D01*
D02*
G37*
G36*
X27956Y-24490D02*
X27860Y-24550D01*
X27776Y-24650D01*
X27703Y-24790D01*
X27641Y-24970D01*
X27590Y-25190D01*
X27551Y-25450D01*
X27523Y-25750D01*
X27500Y-26470D01*
X25500D01*
X25494Y-26090D01*
X25449Y-25450D01*
X25410Y-25190D01*
X25359Y-24970D01*
X25297Y-24790D01*
X25224Y-24650D01*
X25140Y-24550D01*
X25044Y-24490D01*
X24937Y-24470D01*
X28063D01*
X27956Y-24490D01*
D02*
G37*
G36*
X-76294Y-24240D02*
X-76390Y-24300D01*
X-76474Y-24400D01*
X-76547Y-24540D01*
X-76609Y-24720D01*
X-76660Y-24940D01*
X-76699Y-25200D01*
X-76727Y-25500D01*
X-76750Y-26220D01*
X-78750D01*
X-78756Y-25840D01*
X-78801Y-25200D01*
X-78840Y-24940D01*
X-78891Y-24720D01*
X-78953Y-24540D01*
X-79026Y-24400D01*
X-79110Y-24300D01*
X-79206Y-24240D01*
X-79313Y-24220D01*
X-76187D01*
X-76294Y-24240D01*
D02*
G37*
G36*
X-168679Y-27758D02*
X-168459Y-27939D01*
X-168232Y-28099D01*
X-167999Y-28238D01*
X-167758Y-28355D01*
X-167510Y-28451D01*
X-167256Y-28526D01*
X-166994Y-28579D01*
X-166726Y-28611D01*
X-166450Y-28622D01*
Y-30622D01*
X-166726Y-30633D01*
X-166994Y-30665D01*
X-167256Y-30718D01*
X-167510Y-30793D01*
X-167758Y-30889D01*
X-167999Y-31006D01*
X-168232Y-31145D01*
X-168459Y-31305D01*
X-168679Y-31486D01*
X-168891Y-31689D01*
Y-27555D01*
X-168679Y-27758D01*
D02*
G37*
G36*
X83144Y-26177D02*
X83295Y-26297D01*
X83451Y-26403D01*
X83613Y-26495D01*
X83780Y-26573D01*
X83954Y-26637D01*
X84133Y-26686D01*
X84319Y-26722D01*
X84510Y-26743D01*
X84707Y-26750D01*
X83500Y-27750D01*
X81293Y-26750D01*
X81479Y-26746D01*
X81637Y-26734D01*
X81767Y-26714D01*
X81870Y-26687D01*
X81944Y-26651D01*
X81990Y-26607D01*
X82009Y-26556D01*
X81999Y-26496D01*
X81962Y-26429D01*
X81897Y-26354D01*
X83000Y-26043D01*
X83144Y-26177D01*
D02*
G37*
G36*
X129065Y-74284D02*
X129333Y-74497D01*
X129616Y-74686D01*
X129913Y-74849D01*
X130225Y-74987D01*
X130551Y-75100D01*
X130892Y-75188D01*
X131248Y-75251D01*
X131618Y-75289D01*
X132002Y-75301D01*
Y-78301D01*
X131618Y-78314D01*
X131248Y-78351D01*
X130892Y-78414D01*
X130551Y-78502D01*
X130225Y-78615D01*
X129913Y-78753D01*
X129616Y-78917D01*
X129333Y-79105D01*
X129065Y-79318D01*
X128812Y-79557D01*
Y-74045D01*
X129065Y-74284D01*
D02*
G37*
G36*
X129750Y-20500D02*
X131250Y-22000D01*
X131523Y-23228D01*
X131618Y-23237D01*
X132002Y-23250D01*
Y-26250D01*
X131618Y-26263D01*
X131438Y-26281D01*
X131250Y-26750D01*
X129504Y-28757D01*
X126875Y-30375D01*
X122000Y-33000D01*
X116927Y-35850D01*
X107480Y-40458D01*
X101250Y-47500D01*
Y-70000D01*
X98750Y-72500D01*
X56250D01*
X53750Y-70000D01*
Y-32500D01*
X56250Y-30000D01*
X105000D01*
X111700Y-26150D01*
X113000Y-25500D01*
X114700Y-24650D01*
X118000Y-23000D01*
X124333Y-19833D01*
X126020Y-19500D01*
X128000D01*
X129750Y-20500D01*
D02*
G37*
G36*
X174000Y109250D02*
X191500Y91750D01*
Y-66000D01*
X152500Y-105000D01*
X-19750D01*
Y-93500D01*
X152500D01*
X187250Y-61750D01*
X187250Y91000D01*
X175500Y102750D01*
Y70500D01*
X170000Y65000D01*
X144000D01*
X142750Y66250D01*
X142000Y67750D01*
Y70500D01*
X142750Y72000D01*
X144250Y73000D01*
X146250Y73250D01*
X148250Y73000D01*
X149500Y71500D01*
X150250Y69750D01*
X153000Y68750D01*
X168000D01*
X171750Y72500D01*
Y106500D01*
X171000Y107250D01*
X165000Y113250D01*
X134000D01*
X130500Y109750D01*
Y105750D01*
Y105000D01*
X130750Y104250D01*
Y95000D01*
X122250D01*
X120000Y92750D01*
X90000D01*
Y75000D01*
X47250D01*
X42000Y80250D01*
X16000D01*
X6250Y70500D01*
X1750D01*
Y79500D01*
X8750D01*
X14250Y85000D01*
X22750D01*
Y96000D01*
X20000Y98750D01*
Y104250D01*
X18750Y106750D01*
X-15250D01*
X-20000Y102000D01*
Y95250D01*
X-20250Y95000D01*
X-29000D01*
X-31500Y92500D01*
X-61500D01*
X-63000Y91000D01*
Y75750D01*
X-64000Y74750D01*
X-106250D01*
X-111750Y80250D01*
X-130250D01*
Y94250D01*
Y102250D01*
X-129000Y103500D01*
X-63750D01*
X-63250Y103000D01*
X-62500D01*
X-61500Y102000D01*
X-31500D01*
X-22250Y111250D01*
X23750D01*
X30750Y103000D01*
X90250D01*
X91000Y102250D01*
X120000D01*
X126750Y109750D01*
X132750Y115750D01*
X167500D01*
X174000Y109250D01*
D02*
G37*
G36*
X-2500Y-32500D02*
Y-71250D01*
X1250Y-75000D01*
X100000D01*
X121500Y-57250D01*
X124500Y-55500D01*
X127500D01*
X129792Y-56750D01*
X131250Y-58750D01*
X131444Y-59720D01*
X131618Y-59737D01*
X132002Y-59750D01*
Y-62750D01*
X131618Y-62763D01*
X131409Y-62784D01*
X131250Y-63500D01*
X127875Y-66875D01*
X120125Y-72875D01*
X112500Y-79250D01*
X106250Y-85000D01*
X95750Y-88000D01*
X-24500D01*
X-32500Y-80000D01*
X-42000Y-71625D01*
X-48375D01*
X-50000Y-70000D01*
Y-53000D01*
Y-32500D01*
X-47500Y-30000D01*
X-5000D01*
X-2500Y-32500D01*
D02*
G37*
G36*
X-107500Y-45000D02*
Y-73750D01*
X-99276Y-80000D01*
X-75000D01*
X-70000Y-85000D01*
X-70000Y-106250D01*
X-71250Y-107500D01*
X-82500D01*
X-83750Y-106250D01*
X-83750Y-92500D01*
X-83750Y-89472D01*
X-84875Y-88125D01*
X-86023Y-86750D01*
X-116500D01*
X-129500Y-73750D01*
X-151250D01*
Y-52500D01*
X-136250D01*
X-132500Y-56250D01*
X-123750D01*
X-120000Y-52500D01*
Y-45000D01*
X-117500Y-42500D01*
X-110000D01*
X-107500Y-45000D01*
D02*
G37*
G36*
X-156966Y-37190D02*
X-156906Y-37360D01*
X-156806Y-37510D01*
X-156665Y-37640D01*
X-156484Y-37750D01*
X-156262Y-37840D01*
X-156001Y-37910D01*
X-155699Y-37960D01*
X-155357Y-37990D01*
X-154975Y-38000D01*
Y-40000D01*
X-155357Y-40010D01*
X-155699Y-40040D01*
X-156001Y-40090D01*
X-156262Y-40160D01*
X-156484Y-40250D01*
X-156665Y-40360D01*
X-156806Y-40490D01*
X-156906Y-40640D01*
X-156966Y-40810D01*
X-156987Y-41000D01*
Y-37000D01*
X-156966Y-37190D01*
D02*
G37*
G36*
X-168697Y-35129D02*
X-167924Y-35790D01*
X-167589Y-36026D01*
X-167289Y-36200D01*
X-167023Y-36312D01*
X-166792Y-36360D01*
X-166596Y-36346D01*
X-166434Y-36270D01*
X-166307Y-36130D01*
X-168513Y-39557D01*
X-168429Y-39375D01*
X-168395Y-39171D01*
X-168411Y-38944D01*
X-168478Y-38695D01*
X-168595Y-38423D01*
X-168763Y-38129D01*
X-168982Y-37813D01*
X-169250Y-37474D01*
X-169570Y-37112D01*
X-169940Y-36729D01*
X-169136Y-34704D01*
X-168697Y-35129D01*
D02*
G37*
G36*
X-122500Y-44875D02*
X-122500Y-50000D01*
X-127000Y-53750D01*
X-132000D01*
X-136250Y-50000D01*
X-154000Y-50250D01*
X-156250Y-51250D01*
X-157500Y-53750D01*
Y-73750D01*
X-155000Y-76250D01*
X-147500D01*
X-145000Y-78750D01*
Y-85000D01*
X-148750Y-88750D01*
X-165000D01*
X-173750Y-80000D01*
Y-53750D01*
X-166250Y-46250D01*
X-157500Y-45250D01*
X-134000Y-42500D01*
X-132000Y-41000D01*
X-127000D01*
X-122500Y-44875D01*
D02*
G37*
G36*
X129065Y-37784D02*
X129333Y-37997D01*
X129616Y-38186D01*
X129913Y-38349D01*
X130225Y-38487D01*
X130551Y-38600D01*
X130892Y-38688D01*
X131248Y-38751D01*
X131618Y-38789D01*
X132002Y-38801D01*
Y-41801D01*
X131618Y-41814D01*
X131248Y-41851D01*
X130892Y-41914D01*
X130551Y-42002D01*
X130225Y-42115D01*
X129913Y-42253D01*
X129616Y-42417D01*
X129333Y-42605D01*
X129065Y-42818D01*
X128812Y-43057D01*
Y-37545D01*
X129065Y-37784D01*
D02*
G37*
G36*
X-44750Y3250D02*
X-44250Y2000D01*
Y-500D01*
X-44750Y-1750D01*
X-45500Y-2500D01*
X-51250D01*
X-55000Y-6250D01*
Y-21750D01*
X-56000Y-23250D01*
X-57500Y-24250D01*
X-64250D01*
Y-5000D01*
X-55250Y4000D01*
X-45500D01*
X-44750Y3250D01*
D02*
G37*
G36*
X-168679Y-19884D02*
X-168459Y-20065D01*
X-168232Y-20225D01*
X-167999Y-20364D01*
X-167758Y-20481D01*
X-167510Y-20577D01*
X-167256Y-20652D01*
X-166994Y-20705D01*
X-166726Y-20737D01*
X-166450Y-20748D01*
Y-22748D01*
X-166726Y-22759D01*
X-166994Y-22791D01*
X-167256Y-22844D01*
X-167510Y-22919D01*
X-167758Y-23015D01*
X-167999Y-23132D01*
X-168232Y-23271D01*
X-168459Y-23431D01*
X-168679Y-23612D01*
X-168891Y-23815D01*
Y-19681D01*
X-168679Y-19884D01*
D02*
G37*
G36*
X64000Y-24500D02*
X56000D01*
X52500Y-21500D01*
Y-9250D01*
X55000Y-6250D01*
X64000D01*
Y-24500D01*
D02*
G37*
G36*
X100500Y5000D02*
X101500Y4500D01*
X102500Y3750D01*
X103250Y3000D01*
X104000Y2000D01*
X104375Y250D01*
Y-750D01*
X104000Y-1750D01*
X103125Y-2625D01*
X99750Y-6500D01*
Y-22000D01*
X98750Y-23500D01*
X97250Y-24500D01*
X90500D01*
Y-5250D01*
X97750Y4500D01*
X98250Y5000D01*
X99313Y5313D01*
X100500Y5000D01*
D02*
G37*
G36*
X-162120Y-23748D02*
X-162140Y-23558D01*
X-162200Y-23388D01*
X-162301Y-23238D01*
X-162442Y-23108D01*
X-162623Y-22998D01*
X-162844Y-22908D01*
X-163106Y-22838D01*
X-163407Y-22788D01*
X-163749Y-22758D01*
X-164132Y-22748D01*
Y-20748D01*
X-163749Y-20738D01*
X-163407Y-20708D01*
X-163106Y-20658D01*
X-162844Y-20588D01*
X-162623Y-20498D01*
X-162442Y-20388D01*
X-162301Y-20258D01*
X-162200Y-20108D01*
X-162140Y-19938D01*
X-162120Y-19748D01*
Y-23748D01*
D02*
G37*
G36*
X32168Y-16193D02*
X32133Y-16287D01*
X32102Y-16416D01*
X32075Y-16579D01*
X32033Y-17011D01*
X32002Y-17920D01*
X32000Y-18293D01*
X31000D01*
X30998Y-17920D01*
X30898Y-16416D01*
X30867Y-16287D01*
X30832Y-16193D01*
X30792Y-16134D01*
X32208D01*
X32168Y-16193D01*
D02*
G37*
G36*
X82918D02*
X82883Y-16287D01*
X82852Y-16416D01*
X82825Y-16579D01*
X82783Y-17011D01*
X82752Y-17920D01*
X82750Y-18293D01*
X81750D01*
X81748Y-17920D01*
X81648Y-16416D01*
X81617Y-16287D01*
X81582Y-16193D01*
X81542Y-16134D01*
X82958D01*
X82918Y-16193D01*
D02*
G37*
G36*
X-156348Y-19938D02*
X-156288Y-20108D01*
X-156188Y-20258D01*
X-156048Y-20388D01*
X-155868Y-20498D01*
X-155648Y-20588D01*
X-155388Y-20658D01*
X-155088Y-20708D01*
X-154748Y-20738D01*
X-154368Y-20748D01*
Y-22748D01*
X-154748Y-22758D01*
X-155088Y-22788D01*
X-155388Y-22838D01*
X-155648Y-22908D01*
X-155868Y-22998D01*
X-156048Y-23108D01*
X-156188Y-23238D01*
X-156288Y-23388D01*
X-156348Y-23558D01*
X-156368Y-23748D01*
Y-19748D01*
X-156348Y-19938D01*
D02*
G37*
G36*
X120500Y-8500D02*
X119750Y-9250D01*
Y-18500D01*
X115250D01*
Y-9250D01*
X114500Y-8500D01*
Y-7500D01*
X120500D01*
Y-8500D01*
D02*
G37*
G36*
X-20595Y-24268D02*
X-20680Y-24298D01*
X-20755Y-24349D01*
X-20820Y-24419D01*
X-20875Y-24510D01*
X-20920Y-24622D01*
X-20955Y-24753D01*
X-20980Y-24905D01*
X-20995Y-25077D01*
X-21000Y-25269D01*
X-22000D01*
X-22005Y-25077D01*
X-22020Y-24905D01*
X-22045Y-24753D01*
X-22080Y-24622D01*
X-22125Y-24510D01*
X-22180Y-24419D01*
X-22245Y-24349D01*
X-22320Y-24298D01*
X-22405Y-24268D01*
X-22500Y-24258D01*
X-20500D01*
X-20595Y-24268D01*
D02*
G37*
G36*
X-71845Y-24218D02*
X-71930Y-24249D01*
X-72005Y-24299D01*
X-72070Y-24370D01*
X-72125Y-24461D01*
X-72170Y-24573D01*
X-72205Y-24704D01*
X-72230Y-24856D01*
X-72245Y-25028D01*
X-72250Y-25220D01*
X-73250D01*
X-73255Y-25028D01*
X-73270Y-24856D01*
X-73295Y-24704D01*
X-73330Y-24573D01*
X-73375Y-24461D01*
X-73430Y-24370D01*
X-73495Y-24299D01*
X-73570Y-24249D01*
X-73655Y-24218D01*
X-73750Y-24208D01*
X-71750D01*
X-71845Y-24218D01*
D02*
G37*
G36*
X32405Y-24468D02*
X32320Y-24499D01*
X32245Y-24549D01*
X32180Y-24620D01*
X32125Y-24711D01*
X32080Y-24823D01*
X32045Y-24954D01*
X32020Y-25106D01*
X32005Y-25278D01*
X32000Y-25470D01*
X31000D01*
X30995Y-25278D01*
X30980Y-25106D01*
X30955Y-24954D01*
X30920Y-24823D01*
X30875Y-24711D01*
X30820Y-24620D01*
X30755Y-24549D01*
X30680Y-24499D01*
X30595Y-24468D01*
X30500Y-24458D01*
X32500D01*
X32405Y-24468D01*
D02*
G37*
G36*
X83155D02*
X83070Y-24499D01*
X82995Y-24549D01*
X82930Y-24620D01*
X82875Y-24711D01*
X82830Y-24823D01*
X82795Y-24954D01*
X82770Y-25106D01*
X82755Y-25278D01*
X82750Y-25470D01*
X81750D01*
X81745Y-25278D01*
X81730Y-25106D01*
X81705Y-24954D01*
X81670Y-24823D01*
X81625Y-24711D01*
X81570Y-24620D01*
X81505Y-24549D01*
X81430Y-24499D01*
X81345Y-24468D01*
X81250Y-24458D01*
X83250D01*
X83155Y-24468D01*
D02*
G37*
G36*
X-91000Y-24500D02*
X-100500D01*
X-102500Y-22500D01*
Y-8250D01*
X-100250Y-6000D01*
X-91000D01*
Y-24500D01*
D02*
G37*
G36*
X13250D02*
X5000D01*
X1250Y-21250D01*
Y-9500D01*
X3750Y-6250D01*
X13250D01*
Y-24500D01*
D02*
G37*
G36*
X59250Y3000D02*
X59750Y1750D01*
Y-750D01*
X59250Y-2000D01*
X58500Y-2750D01*
X52750D01*
X49000Y-6500D01*
Y-22000D01*
X48000Y-23500D01*
X46500Y-24500D01*
X39750D01*
Y-5250D01*
X48750Y3750D01*
X58500D01*
X59250Y3000D01*
D02*
G37*
G36*
X-39750Y-24500D02*
X-48500D01*
X-51250Y-21750D01*
Y-8500D01*
X-48500Y-6000D01*
X-39750D01*
Y-24500D01*
D02*
G37*
G36*
X6500Y3250D02*
X7000Y2500D01*
X7250Y1750D01*
Y-750D01*
X7000Y-1500D01*
X6500Y-2250D01*
X5500Y-2750D01*
X-250D01*
X-4000Y-6500D01*
Y-22000D01*
X-5000Y-23500D01*
X-6500Y-24500D01*
X-13250D01*
Y-5250D01*
X-4250Y3750D01*
X5500D01*
X6500Y3250D01*
D02*
G37*
G36*
X33310Y5220D02*
X33140Y5160D01*
X32990Y5060D01*
X32860Y4919D01*
X32750Y4738D01*
X32660Y4516D01*
X32590Y4255D01*
X32540Y3953D01*
X32510Y3611D01*
X32500Y3229D01*
X30500D01*
X30490Y3611D01*
X30460Y3953D01*
X30410Y4255D01*
X30340Y4516D01*
X30250Y4738D01*
X30140Y4919D01*
X30010Y5060D01*
X29860Y5160D01*
X29690Y5220D01*
X29500Y5240D01*
X33500D01*
X33310Y5220D01*
D02*
G37*
G36*
X-156348Y44560D02*
X-156288Y44390D01*
X-156188Y44240D01*
X-156048Y44110D01*
X-155868Y44000D01*
X-155648Y43910D01*
X-155388Y43840D01*
X-155088Y43790D01*
X-154748Y43760D01*
X-154368Y43750D01*
Y41750D01*
X-154748Y41740D01*
X-155088Y41710D01*
X-155388Y41660D01*
X-155648Y41590D01*
X-155868Y41500D01*
X-156048Y41390D01*
X-156188Y41260D01*
X-156288Y41110D01*
X-156348Y40940D01*
X-156368Y40750D01*
Y44750D01*
X-156348Y44560D01*
D02*
G37*
G36*
X-162120Y40752D02*
X-162140Y40942D01*
X-162200Y41112D01*
X-162301Y41262D01*
X-162442Y41392D01*
X-162623Y41502D01*
X-162844Y41592D01*
X-163106Y41662D01*
X-163407Y41712D01*
X-163749Y41742D01*
X-164132Y41752D01*
Y43752D01*
X-163749Y43762D01*
X-163407Y43792D01*
X-163106Y43842D01*
X-162844Y43912D01*
X-162623Y44002D01*
X-162442Y44112D01*
X-162301Y44242D01*
X-162200Y44392D01*
X-162140Y44562D01*
X-162120Y44752D01*
Y40752D01*
D02*
G37*
G36*
X-3500Y38500D02*
X-10500D01*
X-11000Y39000D01*
X-17958D01*
X-17943Y38991D01*
X-17963Y39000D01*
X-18865D01*
X-19077Y38909D01*
X-19371Y38741D01*
X-19687Y38522D01*
X-20026Y38254D01*
X-20388Y37934D01*
X-20772Y37564D01*
X-22796Y38368D01*
X-22371Y38807D01*
X-21710Y39580D01*
X-21500Y39878D01*
Y43500D01*
X-11000D01*
X-10500Y44000D01*
X-3500D01*
Y38500D01*
D02*
G37*
G36*
X-168679Y44616D02*
X-168459Y44435D01*
X-168232Y44275D01*
X-167999Y44136D01*
X-167758Y44019D01*
X-167510Y43923D01*
X-167256Y43848D01*
X-166994Y43795D01*
X-166726Y43763D01*
X-166450Y43752D01*
Y41752D01*
X-166726Y41741D01*
X-166994Y41709D01*
X-167256Y41656D01*
X-167510Y41581D01*
X-167758Y41485D01*
X-167999Y41368D01*
X-168232Y41229D01*
X-168459Y41069D01*
X-168679Y40888D01*
X-168891Y40685D01*
Y44819D01*
X-168679Y44616D01*
D02*
G37*
G36*
X-137500Y70000D02*
X-122500D01*
X-104000Y51500D01*
X-96000D01*
Y43000D01*
X-119000D01*
X-121500Y45500D01*
X-129992Y52250D01*
X-130500D01*
X-158250Y80000D01*
X-180000D01*
X-188750Y71250D01*
Y-100000D01*
X-178000Y-110750D01*
X-69500D01*
X-66250Y-107500D01*
Y-105000D01*
Y-88750D01*
X-61250Y-85000D01*
X-35000D01*
X-28750Y-91250D01*
Y-102750D01*
X-35000Y-108750D01*
X-41250Y-115000D01*
X-181250D01*
X-193750Y-102500D01*
Y73750D01*
X-181250Y86250D01*
X-153750D01*
X-137500Y70000D01*
D02*
G37*
G36*
X124276Y47945D02*
X124021Y47854D01*
X123796Y47704D01*
X123601Y47493D01*
X123436Y47222D01*
X123301Y46891D01*
X123196Y46499D01*
X123121Y46047D01*
X123076Y45535D01*
X123061Y44963D01*
X120061D01*
X120046Y45535D01*
X120001Y46047D01*
X119926Y46499D01*
X119821Y46891D01*
X119686Y47222D01*
X119521Y47493D01*
X119326Y47704D01*
X119101Y47854D01*
X118846Y47945D01*
X118561Y47975D01*
X124561D01*
X124276Y47945D01*
D02*
G37*
G36*
X-77055Y47111D02*
X-77028Y46711D01*
X-77012Y46601D01*
X-76992Y46502D01*
X-76969Y46415D01*
X-76942Y46340D01*
X-76911Y46277D01*
X-76877Y46225D01*
X-79237D01*
X-79203Y46277D01*
X-79172Y46340D01*
X-79145Y46415D01*
X-79122Y46502D01*
X-79102Y46601D01*
X-79086Y46711D01*
X-79064Y46966D01*
X-79057Y47268D01*
X-77057D01*
X-77055Y47111D01*
D02*
G37*
G36*
X47500Y51500D02*
X57250D01*
Y43000D01*
X25000D01*
X22750Y45750D01*
Y52500D01*
Y68250D01*
X30750D01*
X47500Y51500D01*
D02*
G37*
G36*
X82894Y53009D02*
X82920Y52692D01*
X82963Y52411D01*
X83023Y52168D01*
X83100Y51963D01*
X83194Y51795D01*
X83306Y51664D01*
X83434Y51570D01*
X83580Y51514D01*
X83705Y51500D01*
X88750D01*
Y43000D01*
X79750D01*
Y51500D01*
X80067D01*
X80192Y51514D01*
X80338Y51570D01*
X80466Y51664D01*
X80577Y51795D01*
X80672Y51963D01*
X80749Y52168D01*
X80809Y52411D01*
X80852Y52692D01*
X80877Y53009D01*
X80886Y53364D01*
X82886D01*
X82894Y53009D01*
D02*
G37*
G36*
X137662Y32879D02*
X137752Y32748D01*
X137902Y32632D01*
X138112Y32532D01*
X138382Y32447D01*
X138712Y32377D01*
X139102Y32323D01*
X140062Y32262D01*
X140632Y32254D01*
Y29254D01*
X140062Y29246D01*
X138712Y29131D01*
X138382Y29061D01*
X138112Y28976D01*
X137902Y28876D01*
X137752Y28760D01*
X137662Y28629D01*
X137632Y28482D01*
Y33025D01*
X137662Y32879D01*
D02*
G37*
G36*
X-169136Y32557D02*
X-169317Y32337D01*
X-169477Y32110D01*
X-169616Y31877D01*
X-169733Y31636D01*
X-169829Y31388D01*
X-169904Y31134D01*
X-169957Y30872D01*
X-169989Y30604D01*
X-170000Y30328D01*
X-172000D01*
X-172011Y30604D01*
X-172043Y30872D01*
X-172096Y31134D01*
X-172171Y31388D01*
X-172267Y31636D01*
X-172384Y31877D01*
X-172523Y32110D01*
X-172683Y32337D01*
X-172864Y32557D01*
X-173067Y32769D01*
X-168933D01*
X-169136Y32557D01*
D02*
G37*
G36*
X-168697Y27871D02*
X-167924Y27210D01*
X-167589Y26974D01*
X-167289Y26800D01*
X-167023Y26689D01*
X-166792Y26640D01*
X-166596Y26654D01*
X-166434Y26730D01*
X-166307Y26870D01*
X-168513Y23443D01*
X-168429Y23625D01*
X-168395Y23829D01*
X-168411Y24056D01*
X-168478Y24305D01*
X-168595Y24577D01*
X-168763Y24871D01*
X-168982Y25187D01*
X-169250Y25526D01*
X-169570Y25888D01*
X-169940Y26272D01*
X-169136Y28296D01*
X-168697Y27871D01*
D02*
G37*
G36*
X151022Y25650D02*
X150535Y26335D01*
X150039Y26947D01*
X149534Y27488D01*
X149019Y27957D01*
X148495Y28353D01*
X147961Y28677D01*
X147417Y28930D01*
X146864Y29110D01*
X146302Y29218D01*
X145730Y29254D01*
X146310Y32254D01*
X146803Y32283D01*
X147331Y32369D01*
X147893Y32513D01*
X148491Y32714D01*
X149123Y32973D01*
X149790Y33289D01*
X151229Y34094D01*
X152001Y34582D01*
X152808Y35129D01*
X151022Y25650D01*
D02*
G37*
G36*
X7500Y88000D02*
X5750D01*
X-2750Y79500D01*
Y70500D01*
Y64250D01*
X1500Y60000D01*
Y52750D01*
X7000Y47250D01*
Y45000D01*
X13250D01*
X14000Y44250D01*
Y34500D01*
X13250Y33750D01*
X500D01*
X-250Y34500D01*
Y38500D01*
Y45000D01*
X-3000Y47750D01*
X-11500D01*
X-15500Y46000D01*
X-21500D01*
Y50500D01*
X-15750D01*
X-11500Y52500D01*
Y60000D01*
X-7250Y64250D01*
Y70500D01*
Y79500D01*
X1750Y88000D01*
Y92500D01*
X7500D01*
Y88000D01*
D02*
G37*
G36*
X-82940Y39083D02*
X-83110Y39022D01*
X-83260Y38922D01*
X-83390Y38781D01*
X-83500Y38600D01*
X-83590Y38378D01*
X-83660Y38117D01*
X-83710Y37815D01*
X-83740Y37473D01*
X-83750Y37091D01*
X-85750D01*
X-85760Y37473D01*
X-85790Y37815D01*
X-85840Y38117D01*
X-85910Y38378D01*
X-86000Y38600D01*
X-86110Y38781D01*
X-86240Y38922D01*
X-86390Y39022D01*
X-86560Y39083D01*
X-86750Y39103D01*
X-82750D01*
X-82940Y39083D01*
D02*
G37*
G36*
X76720Y39087D02*
X76714Y39041D01*
X76709Y38964D01*
X76693Y37557D01*
X73693D01*
X73659Y39103D01*
X76727D01*
X76720Y39087D01*
D02*
G37*
G36*
X130750Y87500D02*
X130000Y84750D01*
Y75000D01*
X126750Y60500D01*
X141000Y46250D01*
X147500D01*
X150000Y45000D01*
X151250Y42500D01*
Y41250D01*
Y40000D01*
X150000Y37500D01*
X147500Y36250D01*
X138500D01*
X126750Y48000D01*
X116500D01*
Y60500D01*
Y60750D01*
X108750Y73000D01*
Y82750D01*
X119500D01*
X124750Y88000D01*
Y92500D01*
X130750D01*
Y87500D01*
D02*
G37*
G36*
X-76125Y39082D02*
X-76215Y39021D01*
X-76296Y38919D01*
X-76365Y38775D01*
X-76424Y38591D01*
X-76472Y38366D01*
X-76509Y38100D01*
X-76536Y37793D01*
X-76557Y37057D01*
X-79557D01*
X-79562Y37446D01*
X-79642Y38366D01*
X-79690Y38591D01*
X-79749Y38775D01*
X-79819Y38919D01*
X-79899Y39021D01*
X-79989Y39082D01*
X-80091Y39103D01*
X-76023D01*
X-76125Y39082D01*
D02*
G37*
G36*
X135760Y82502D02*
X135790Y82162D01*
X135840Y81862D01*
X135910Y81602D01*
X136000Y81382D01*
X136110Y81202D01*
X136240Y81062D01*
X136390Y80962D01*
X136560Y80902D01*
X136750Y80882D01*
X132750D01*
X132940Y80902D01*
X133110Y80962D01*
X133260Y81062D01*
X133390Y81202D01*
X133500Y81382D01*
X133590Y81602D01*
X133660Y81862D01*
X133710Y82162D01*
X133740Y82502D01*
X133750Y82882D01*
X135750D01*
X135760Y82502D01*
D02*
G37*
G36*
X-2337Y91963D02*
X-2312Y91911D01*
X-2272Y91866D01*
X-2215Y91827D01*
X-2142Y91794D01*
X-2052Y91767D01*
X-1946Y91746D01*
X-1824Y91731D01*
X-1686Y91721D01*
X-1531Y91719D01*
Y90719D01*
X-1686Y90715D01*
X-1946Y90691D01*
X-2052Y90670D01*
X-2142Y90643D01*
X-2215Y90610D01*
X-2272Y90571D01*
X-2312Y90526D01*
X-2337Y90474D01*
X-2345Y90417D01*
Y92020D01*
X-2337Y91963D01*
D02*
G37*
G36*
X-10250Y88000D02*
X-12000Y86250D01*
Y79750D01*
Y70500D01*
X-16250D01*
X-20250Y66500D01*
Y64500D01*
X-26500Y58250D01*
Y47250D01*
Y37750D01*
X-26750Y37500D01*
X-37000D01*
Y47250D01*
Y59750D01*
X-42750Y65500D01*
Y82500D01*
X-31500D01*
Y73000D01*
X-30250Y71750D01*
X-20750D01*
X-16250Y76250D01*
Y88000D01*
X-26250D01*
Y92500D01*
X-10250D01*
Y88000D01*
D02*
G37*
G36*
X-26179Y82871D02*
X-25389Y82193D01*
X-25050Y81953D01*
X-24749Y81777D01*
X-24485Y81667D01*
X-24258Y81623D01*
X-24068Y81644D01*
X-23916Y81730D01*
X-23801Y81881D01*
X-25732Y78179D01*
X-25660Y78373D01*
X-25635Y78587D01*
X-25658Y78821D01*
X-25729Y79074D01*
X-25848Y79347D01*
X-26015Y79640D01*
X-26229Y79952D01*
X-26491Y80284D01*
X-26801Y80636D01*
X-27158Y81008D01*
X-26630Y83308D01*
X-26179Y82871D01*
D02*
G37*
G36*
X-10360Y99068D02*
X-10300Y98898D01*
X-10199Y98748D01*
X-10058Y98618D01*
X-9877Y98508D01*
X-9656Y98418D01*
X-9394Y98348D01*
X-9093Y98298D01*
X-8751Y98268D01*
X-8368Y98258D01*
Y96258D01*
X-8751Y96248D01*
X-9093Y96218D01*
X-9394Y96168D01*
X-9656Y96098D01*
X-9877Y96008D01*
X-10058Y95898D01*
X-10199Y95768D01*
X-10300Y95618D01*
X-10360Y95448D01*
X-10380Y95258D01*
Y99258D01*
X-10360Y99068D01*
D02*
G37*
G36*
X13931Y100333D02*
X13911Y100507D01*
X13851Y100663D01*
X13751Y100801D01*
X13611Y100920D01*
X13431Y101021D01*
X13211Y101103D01*
X12951Y101168D01*
X12651Y101213D01*
X12311Y101241D01*
X11931Y101250D01*
Y103250D01*
X12311Y103259D01*
X12651Y103287D01*
X12951Y103332D01*
X13211Y103397D01*
X13431Y103479D01*
X13611Y103580D01*
X13751Y103699D01*
X13851Y103837D01*
X13911Y103993D01*
X13931Y104167D01*
Y100333D01*
D02*
G37*
G36*
X136413Y105813D02*
X136274Y105753D01*
X136151Y105653D01*
X136045Y105513D01*
X135955Y105333D01*
X135881Y105113D01*
X135824Y104853D01*
X135783Y104553D01*
X135758Y104213D01*
X135750Y103833D01*
X133750D01*
X133742Y104213D01*
X133676Y104853D01*
X133619Y105113D01*
X133545Y105333D01*
X133455Y105513D01*
X133349Y105653D01*
X133226Y105753D01*
X133087Y105813D01*
X132931Y105833D01*
X136569D01*
X136413Y105813D01*
D02*
G37*
G36*
X-6167Y95463D02*
X-6187Y95614D01*
X-6247Y95749D01*
X-6347Y95868D01*
X-6487Y95972D01*
X-6667Y96059D01*
X-6887Y96131D01*
X-7147Y96186D01*
X-7447Y96226D01*
X-7787Y96250D01*
X-8167Y96258D01*
Y98258D01*
X-7787Y98266D01*
X-7147Y98334D01*
X-6887Y98393D01*
X-6667Y98469D01*
X-6487Y98561D01*
X-6347Y98671D01*
X-6247Y98797D01*
X-6187Y98940D01*
X-6167Y99100D01*
Y95463D01*
D02*
G37*
G36*
X5757Y100920D02*
X5815Y100364D01*
X5866Y100139D01*
X5931Y99948D01*
X6011Y99791D01*
X6105Y99670D01*
X6214Y99583D01*
X6337Y99531D01*
X6475Y99513D01*
X3025D01*
X3163Y99531D01*
X3286Y99583D01*
X3395Y99670D01*
X3489Y99791D01*
X3569Y99948D01*
X3634Y100139D01*
X3685Y100364D01*
X3721Y100625D01*
X3743Y100920D01*
X3750Y101250D01*
X5750D01*
X5757Y100920D01*
D02*
G37*
G36*
X101750Y63500D02*
X103000Y60500D01*
Y47750D01*
X92750D01*
Y56875D01*
X66125D01*
X64000Y54750D01*
Y43000D01*
X59750D01*
Y56000D01*
X64250Y60500D01*
X92750D01*
X95750Y63500D01*
Y90250D01*
X101750D01*
Y63500D01*
D02*
G37*
G36*
X-156348Y51568D02*
X-156288Y51398D01*
X-156188Y51248D01*
X-156048Y51118D01*
X-155868Y51008D01*
X-155648Y50918D01*
X-155388Y50848D01*
X-155088Y50798D01*
X-154748Y50768D01*
X-154368Y50758D01*
Y48758D01*
X-154748Y48748D01*
X-155088Y48718D01*
X-155388Y48668D01*
X-155648Y48598D01*
X-155868Y48508D01*
X-156048Y48398D01*
X-156188Y48268D01*
X-156288Y48118D01*
X-156348Y47948D01*
X-156368Y47758D01*
Y51758D01*
X-156348Y51568D01*
D02*
G37*
G36*
X76195Y47111D02*
X76222Y46711D01*
X76238Y46601D01*
X76258Y46502D01*
X76281Y46415D01*
X76308Y46340D01*
X76339Y46277D01*
X76373Y46225D01*
X74013D01*
X74047Y46277D01*
X74078Y46340D01*
X74105Y46415D01*
X74128Y46502D01*
X74148Y46601D01*
X74164Y46711D01*
X74186Y46966D01*
X74193Y47268D01*
X76193D01*
X76195Y47111D01*
D02*
G37*
G36*
X-50250Y63750D02*
Y58750D01*
Y47000D01*
X-60500D01*
Y58750D01*
X-87750D01*
X-89250Y57250D01*
Y43000D01*
X-93500D01*
Y59000D01*
X-88750Y63750D01*
X-60500D01*
X-56500Y70000D01*
Y90000D01*
X-50250D01*
Y63750D01*
D02*
G37*
G36*
X-168679Y52490D02*
X-168459Y52309D01*
X-168232Y52149D01*
X-167999Y52010D01*
X-167758Y51893D01*
X-167510Y51797D01*
X-167256Y51722D01*
X-166994Y51669D01*
X-166726Y51637D01*
X-166450Y51626D01*
Y49626D01*
X-166726Y49615D01*
X-166994Y49583D01*
X-167256Y49530D01*
X-167510Y49455D01*
X-167758Y49359D01*
X-167999Y49242D01*
X-168232Y49103D01*
X-168459Y48943D01*
X-168679Y48762D01*
X-168891Y48559D01*
Y52693D01*
X-168679Y52490D01*
D02*
G37*
G36*
X-70354Y53125D02*
X-70324Y52783D01*
X-70274Y52482D01*
X-70204Y52220D01*
X-70114Y51999D01*
X-70004Y51818D01*
X-69874Y51677D01*
X-69724Y51576D01*
X-69554Y51516D01*
X-69364Y51496D01*
X-73364D01*
X-73174Y51516D01*
X-73004Y51576D01*
X-72854Y51677D01*
X-72724Y51818D01*
X-72614Y51999D01*
X-72524Y52220D01*
X-72454Y52482D01*
X-72404Y52783D01*
X-72374Y53125D01*
X-72364Y53508D01*
X-70364D01*
X-70354Y53125D01*
D02*
G37*
G36*
X69510Y53119D02*
X69540Y52778D01*
X69589Y52478D01*
X69659Y52217D01*
X69748Y51997D01*
X69857Y51816D01*
X69986Y51676D01*
X70135Y51576D01*
X70304Y51516D01*
X70492Y51496D01*
X66508D01*
X66696Y51516D01*
X66865Y51576D01*
X67014Y51676D01*
X67143Y51816D01*
X67252Y51997D01*
X67341Y52217D01*
X67411Y52478D01*
X67460Y52778D01*
X67490Y53119D01*
X67500Y53500D01*
X69500D01*
X69510Y53119D01*
D02*
G37*
G36*
X-162120Y48626D02*
X-162141Y48816D01*
X-162201Y48986D01*
X-162302Y49136D01*
X-162443Y49266D01*
X-162625Y49376D01*
X-162846Y49466D01*
X-163107Y49536D01*
X-163409Y49586D01*
X-163750Y49616D01*
X-164132Y49626D01*
Y51626D01*
X-163752Y51630D01*
X-162852Y51691D01*
X-162632Y51727D01*
X-162452Y51771D01*
X-162312Y51824D01*
X-162212Y51884D01*
X-162152Y51953D01*
X-162132Y52029D01*
X-162120Y48626D01*
D02*
G37*
G36*
X-83740Y53125D02*
X-83710Y52783D01*
X-83660Y52482D01*
X-83590Y52220D01*
X-83500Y51999D01*
X-83390Y51818D01*
X-83260Y51677D01*
X-83110Y51576D01*
X-82940Y51516D01*
X-82750Y51496D01*
X-86750D01*
X-86560Y51516D01*
X-86390Y51576D01*
X-86240Y51677D01*
X-86110Y51818D01*
X-86000Y51999D01*
X-85910Y52220D01*
X-85840Y52482D01*
X-85790Y52783D01*
X-85760Y53125D01*
X-85750Y53508D01*
X-83750D01*
X-83740Y53125D01*
D02*
G37*
G36*
X-156966Y25810D02*
X-156906Y25640D01*
X-156806Y25490D01*
X-156665Y25360D01*
X-156484Y25250D01*
X-156262Y25160D01*
X-156001Y25090D01*
X-155699Y25040D01*
X-155357Y25010D01*
X-154975Y25000D01*
Y23000D01*
X-155357Y22990D01*
X-155699Y22960D01*
X-156001Y22910D01*
X-156262Y22840D01*
X-156484Y22750D01*
X-156665Y22640D01*
X-156806Y22510D01*
X-156906Y22360D01*
X-156966Y22190D01*
X-156987Y22000D01*
Y26000D01*
X-156966Y25810D01*
D02*
G37*
G36*
X-123750Y30000D02*
Y27500D01*
X-124750Y26250D01*
X-138750D01*
X-141250Y23750D01*
Y11750D01*
X-148000D01*
Y28750D01*
X-145500Y31250D01*
X-124750D01*
X-123750Y30000D01*
D02*
G37*
G36*
X-44120Y12500D02*
X-44140Y12690D01*
X-44200Y12860D01*
X-44301Y13010D01*
X-44442Y13140D01*
X-44623Y13250D01*
X-44844Y13340D01*
X-45106Y13410D01*
X-45407Y13460D01*
X-45749Y13490D01*
X-46132Y13500D01*
Y15500D01*
X-45749Y15510D01*
X-45407Y15540D01*
X-45106Y15590D01*
X-44844Y15660D01*
X-44623Y15750D01*
X-44442Y15860D01*
X-44301Y15990D01*
X-44200Y16140D01*
X-44140Y16310D01*
X-44120Y16500D01*
Y12500D01*
D02*
G37*
G36*
X-69870Y8655D02*
X-69840Y8570D01*
X-69789Y8495D01*
X-69718Y8430D01*
X-69627Y8375D01*
X-69516Y8330D01*
X-69384Y8295D01*
X-69233Y8270D01*
X-69061Y8255D01*
X-68868Y8250D01*
Y7250D01*
X-69061Y7245D01*
X-69233Y7230D01*
X-69384Y7205D01*
X-69516Y7170D01*
X-69627Y7125D01*
X-69718Y7070D01*
X-69789Y7005D01*
X-69840Y6930D01*
X-69870Y6845D01*
X-69880Y6750D01*
Y8750D01*
X-69870Y8655D01*
D02*
G37*
G36*
X-71984Y8418D02*
X-71890Y8383D01*
X-71762Y8352D01*
X-71598Y8325D01*
X-71166Y8283D01*
X-70257Y8252D01*
X-69884Y8250D01*
Y7250D01*
X-70257Y7248D01*
X-71762Y7148D01*
X-71890Y7117D01*
X-71984Y7082D01*
X-72043Y7042D01*
Y8458D01*
X-71984Y8418D01*
D02*
G37*
G36*
X59380Y12504D02*
X59360Y12694D01*
X59300Y12864D01*
X59199Y13014D01*
X59058Y13144D01*
X58877Y13254D01*
X58656Y13344D01*
X58394Y13414D01*
X58093Y13464D01*
X57751Y13494D01*
X57368Y13504D01*
Y15504D01*
X57751Y15514D01*
X58093Y15544D01*
X58394Y15594D01*
X58656Y15664D01*
X58877Y15754D01*
X59058Y15864D01*
X59199Y15994D01*
X59300Y16144D01*
X59360Y16314D01*
X59380Y16504D01*
Y12504D01*
D02*
G37*
G36*
X8618Y12508D02*
X8598Y12698D01*
X8538Y12868D01*
X8438Y13018D01*
X8298Y13148D01*
X8118Y13258D01*
X7898Y13348D01*
X7638Y13418D01*
X7338Y13468D01*
X6998Y13498D01*
X6618Y13508D01*
Y15508D01*
X6998Y15518D01*
X7338Y15548D01*
X7638Y15598D01*
X7898Y15668D01*
X8118Y15758D01*
X8298Y15868D01*
X8438Y15998D01*
X8538Y16148D01*
X8598Y16318D01*
X8618Y16508D01*
Y12508D01*
D02*
G37*
G36*
X14390Y16318D02*
X14450Y16148D01*
X14551Y15998D01*
X14692Y15868D01*
X14873Y15758D01*
X15094Y15668D01*
X15356Y15598D01*
X15657Y15548D01*
X15999Y15518D01*
X16382Y15508D01*
Y13508D01*
X15999Y13498D01*
X15657Y13468D01*
X15356Y13418D01*
X15094Y13348D01*
X14873Y13258D01*
X14692Y13148D01*
X14551Y13018D01*
X14450Y12868D01*
X14390Y12698D01*
X14370Y12508D01*
Y16508D01*
X14390Y16318D01*
D02*
G37*
G36*
X65152Y16314D02*
X65212Y16144D01*
X65312Y15994D01*
X65452Y15864D01*
X65632Y15754D01*
X65852Y15664D01*
X66112Y15594D01*
X66412Y15544D01*
X66752Y15514D01*
X67132Y15504D01*
Y13504D01*
X66752Y13494D01*
X66412Y13464D01*
X66112Y13414D01*
X65852Y13344D01*
X65632Y13254D01*
X65452Y13144D01*
X65312Y13014D01*
X65212Y12864D01*
X65152Y12694D01*
X65132Y12504D01*
Y16504D01*
X65152Y16314D01*
D02*
G37*
G36*
X69380Y12504D02*
X69360Y12694D01*
X69300Y12864D01*
X69199Y13014D01*
X69058Y13144D01*
X68877Y13254D01*
X68656Y13344D01*
X68394Y13414D01*
X68093Y13464D01*
X67751Y13494D01*
X67368Y13504D01*
Y15504D01*
X67751Y15514D01*
X68093Y15544D01*
X68394Y15594D01*
X68656Y15664D01*
X68877Y15754D01*
X69058Y15864D01*
X69199Y15994D01*
X69300Y16144D01*
X69360Y16314D01*
X69380Y16504D01*
Y12504D01*
D02*
G37*
G36*
X-8961Y5217D02*
X-9126Y5157D01*
X-9273Y5058D01*
X-9399Y4919D01*
X-9506Y4740D01*
X-9594Y4521D01*
X-9662Y4263D01*
X-9711Y3965D01*
X-9740Y3627D01*
X-9750Y3250D01*
X-11750D01*
X-11760Y3627D01*
X-11789Y3965D01*
X-11838Y4263D01*
X-11906Y4521D01*
X-11994Y4740D01*
X-12101Y4919D01*
X-12228Y5058D01*
X-12374Y5157D01*
X-12539Y5217D01*
X-12725Y5237D01*
X-8775D01*
X-8961Y5217D01*
D02*
G37*
G36*
X-90690Y5470D02*
X-90860Y5410D01*
X-91010Y5310D01*
X-91140Y5169D01*
X-91250Y4987D01*
X-91340Y4766D01*
X-91410Y4505D01*
X-91460Y4203D01*
X-91490Y3861D01*
X-91500Y3478D01*
X-93500D01*
X-93510Y3861D01*
X-93540Y4203D01*
X-93590Y4505D01*
X-93660Y4766D01*
X-93750Y4987D01*
X-93860Y5169D01*
X-93990Y5310D01*
X-94140Y5410D01*
X-94310Y5470D01*
X-94500Y5491D01*
X-90500D01*
X-90690Y5470D01*
D02*
G37*
G36*
X74060Y5220D02*
X73890Y5160D01*
X73740Y5060D01*
X73610Y4919D01*
X73500Y4738D01*
X73410Y4516D01*
X73340Y4255D01*
X73290Y3953D01*
X73260Y3611D01*
X73250Y3229D01*
X71250D01*
X71240Y3611D01*
X71210Y3953D01*
X71160Y4255D01*
X71090Y4516D01*
X71000Y4738D01*
X70890Y4919D01*
X70760Y5060D01*
X70610Y5160D01*
X70440Y5220D01*
X70250Y5240D01*
X74250D01*
X74060Y5220D01*
D02*
G37*
G36*
X94810D02*
X94640Y5160D01*
X94490Y5060D01*
X94360Y4919D01*
X94250Y4738D01*
X94160Y4516D01*
X94090Y4255D01*
X94040Y3953D01*
X94010Y3611D01*
X94000Y3229D01*
X92000D01*
X91990Y3611D01*
X91960Y3953D01*
X91910Y4255D01*
X91840Y4516D01*
X91750Y4738D01*
X91640Y4919D01*
X91510Y5060D01*
X91360Y5160D01*
X91190Y5220D01*
X91000Y5240D01*
X95000D01*
X94810Y5220D01*
D02*
G37*
G36*
X-80940Y5470D02*
X-81110Y5410D01*
X-81260Y5310D01*
X-81390Y5169D01*
X-81500Y4987D01*
X-81590Y4766D01*
X-81660Y4505D01*
X-81710Y4203D01*
X-81740Y3861D01*
X-81750Y3478D01*
X-83750D01*
X-83760Y3861D01*
X-83790Y4203D01*
X-83840Y4505D01*
X-83910Y4766D01*
X-84000Y4987D01*
X-84110Y5169D01*
X-84240Y5310D01*
X-84390Y5410D01*
X-84560Y5470D01*
X-84750Y5491D01*
X-80750D01*
X-80940Y5470D01*
D02*
G37*
G36*
X44134Y5222D02*
X44054Y5177D01*
X43982Y5103D01*
X43921Y4999D01*
X43869Y4865D01*
X43826Y4701D01*
X43793Y4508D01*
X43769Y4285D01*
X43750Y3750D01*
X41750D01*
X41745Y4033D01*
X41707Y4508D01*
X41674Y4701D01*
X41631Y4865D01*
X41579Y4999D01*
X41517Y5103D01*
X41446Y5177D01*
X41366Y5222D01*
X41275Y5237D01*
X44225D01*
X44134Y5222D01*
D02*
G37*
G36*
X166230Y4163D02*
X165928Y4461D01*
X165353Y4963D01*
X165081Y5166D01*
X164819Y5339D01*
X164566Y5480D01*
X164324Y5589D01*
X164092Y5668D01*
X163869Y5715D01*
X163657Y5730D01*
Y6730D01*
X163869Y6746D01*
X164092Y6793D01*
X164324Y6871D01*
X164566Y6981D01*
X164819Y7122D01*
X165081Y7294D01*
X165353Y7498D01*
X165928Y7999D01*
X166230Y8297D01*
Y4163D01*
D02*
G37*
G36*
X-70940Y5470D02*
X-71110Y5410D01*
X-71260Y5310D01*
X-71390Y5169D01*
X-71500Y4987D01*
X-71590Y4766D01*
X-71660Y4505D01*
X-71710Y4203D01*
X-71740Y3861D01*
X-71750Y3478D01*
X-73750D01*
X-73760Y3861D01*
X-73790Y4203D01*
X-73840Y4505D01*
X-73910Y4766D01*
X-74000Y4987D01*
X-74110Y5169D01*
X-74240Y5310D01*
X-74390Y5410D01*
X-74560Y5470D01*
X-74750Y5491D01*
X-70750D01*
X-70940Y5470D01*
D02*
G37*
G36*
X-59940D02*
X-60110Y5410D01*
X-60260Y5310D01*
X-60390Y5169D01*
X-60500Y4987D01*
X-60590Y4766D01*
X-60660Y4505D01*
X-60710Y4203D01*
X-60740Y3861D01*
X-60750Y3478D01*
X-62750D01*
X-62760Y3861D01*
X-62790Y4203D01*
X-62840Y4505D01*
X-62910Y4766D01*
X-63000Y4987D01*
X-63110Y5169D01*
X-63240Y5310D01*
X-63390Y5410D01*
X-63560Y5470D01*
X-63750Y5491D01*
X-59750D01*
X-59940Y5470D01*
D02*
G37*
G36*
X-20490Y18397D02*
X-20460Y18055D01*
X-20410Y17753D01*
X-20340Y17492D01*
X-20250Y17270D01*
X-20140Y17089D01*
X-20010Y16948D01*
X-19860Y16848D01*
X-19690Y16788D01*
X-19500Y16767D01*
X-23500D01*
X-23310Y16788D01*
X-23140Y16848D01*
X-22990Y16948D01*
X-22860Y17089D01*
X-22750Y17270D01*
X-22660Y17492D01*
X-22590Y17753D01*
X-22540Y18055D01*
X-22510Y18397D01*
X-22500Y18779D01*
X-20500D01*
X-20490Y18397D01*
D02*
G37*
G36*
X32760D02*
X32790Y18055D01*
X32840Y17753D01*
X32910Y17492D01*
X33000Y17270D01*
X33110Y17089D01*
X33240Y16948D01*
X33390Y16848D01*
X33560Y16788D01*
X33750Y16767D01*
X29750D01*
X29940Y16788D01*
X30110Y16848D01*
X30260Y16948D01*
X30390Y17089D01*
X30500Y17270D01*
X30590Y17492D01*
X30660Y17753D01*
X30710Y18055D01*
X30740Y18397D01*
X30750Y18779D01*
X32750D01*
X32760Y18397D01*
D02*
G37*
G36*
X43255Y17583D02*
X43270Y17411D01*
X43295Y17259D01*
X43330Y17128D01*
X43375Y17016D01*
X43430Y16925D01*
X43495Y16854D01*
X43570Y16804D01*
X43655Y16773D01*
X43750Y16763D01*
X41750D01*
X41845Y16773D01*
X41930Y16804D01*
X42005Y16854D01*
X42070Y16925D01*
X42125Y17016D01*
X42170Y17128D01*
X42205Y17259D01*
X42230Y17411D01*
X42245Y17583D01*
X42250Y17775D01*
X43250D01*
X43255Y17583D01*
D02*
G37*
G36*
X83260Y18393D02*
X83290Y18051D01*
X83340Y17749D01*
X83410Y17488D01*
X83500Y17266D01*
X83610Y17085D01*
X83740Y16944D01*
X83890Y16844D01*
X84060Y16783D01*
X84250Y16763D01*
X80250D01*
X80440Y16783D01*
X80610Y16844D01*
X80760Y16944D01*
X80890Y17085D01*
X81000Y17266D01*
X81090Y17488D01*
X81160Y17749D01*
X81210Y18051D01*
X81240Y18393D01*
X81250Y18775D01*
X83250D01*
X83260Y18393D01*
D02*
G37*
G36*
X-91490Y18647D02*
X-91460Y18305D01*
X-91410Y18003D01*
X-91340Y17742D01*
X-91250Y17520D01*
X-91140Y17339D01*
X-91010Y17198D01*
X-90860Y17098D01*
X-90690Y17038D01*
X-90500Y17017D01*
X-94500D01*
X-94310Y17038D01*
X-94140Y17098D01*
X-93990Y17198D01*
X-93860Y17339D01*
X-93750Y17520D01*
X-93660Y17742D01*
X-93590Y18003D01*
X-93540Y18305D01*
X-93510Y18647D01*
X-93500Y19029D01*
X-91500D01*
X-91490Y18647D01*
D02*
G37*
G36*
X-61245Y17837D02*
X-61230Y17665D01*
X-61205Y17513D01*
X-61170Y17382D01*
X-61125Y17270D01*
X-61070Y17179D01*
X-61005Y17108D01*
X-60930Y17058D01*
X-60845Y17028D01*
X-60750Y17017D01*
X-62750D01*
X-62655Y17028D01*
X-62570Y17058D01*
X-62495Y17108D01*
X-62430Y17179D01*
X-62375Y17270D01*
X-62330Y17382D01*
X-62295Y17513D01*
X-62270Y17665D01*
X-62255Y17837D01*
X-62250Y18029D01*
X-61250D01*
X-61245Y17837D01*
D02*
G37*
G36*
X-164444Y21098D02*
X-164614Y21038D01*
X-164764Y20938D01*
X-164894Y20798D01*
X-165004Y20618D01*
X-165094Y20398D01*
X-165164Y20138D01*
X-165214Y19838D01*
X-165244Y19498D01*
X-165254Y19118D01*
X-167254D01*
X-167264Y19498D01*
X-167294Y19838D01*
X-167344Y20138D01*
X-167414Y20398D01*
X-167504Y20618D01*
X-167614Y20798D01*
X-167744Y20938D01*
X-167894Y21038D01*
X-168064Y21098D01*
X-168254Y21118D01*
X-164254D01*
X-164444Y21098D01*
D02*
G37*
G36*
X-81740Y18647D02*
X-81710Y18305D01*
X-81660Y18003D01*
X-81590Y17742D01*
X-81500Y17520D01*
X-81390Y17339D01*
X-81260Y17198D01*
X-81110Y17098D01*
X-80940Y17038D01*
X-80750Y17017D01*
X-84750D01*
X-84560Y17038D01*
X-84390Y17098D01*
X-84240Y17198D01*
X-84110Y17339D01*
X-84000Y17520D01*
X-83910Y17742D01*
X-83840Y18003D01*
X-83790Y18305D01*
X-83760Y18647D01*
X-83750Y19029D01*
X-81750D01*
X-81740Y18647D01*
D02*
G37*
G36*
X-71740D02*
X-71710Y18305D01*
X-71660Y18003D01*
X-71590Y17742D01*
X-71500Y17520D01*
X-71390Y17339D01*
X-71260Y17198D01*
X-71110Y17098D01*
X-70940Y17038D01*
X-70750Y17017D01*
X-74750D01*
X-74560Y17038D01*
X-74390Y17098D01*
X-74240Y17198D01*
X-74110Y17339D01*
X-74000Y17520D01*
X-73910Y17742D01*
X-73840Y18003D01*
X-73790Y18305D01*
X-73760Y18647D01*
X-73750Y19029D01*
X-71750D01*
X-71740Y18647D01*
D02*
G37*
G36*
X-95382Y12758D02*
X-95402Y12948D01*
X-95462Y13118D01*
X-95562Y13268D01*
X-95702Y13398D01*
X-95882Y13508D01*
X-96102Y13598D01*
X-96362Y13668D01*
X-96662Y13718D01*
X-97002Y13748D01*
X-97382Y13758D01*
Y15758D01*
X-97002Y15768D01*
X-96662Y15798D01*
X-96362Y15848D01*
X-96102Y15918D01*
X-95882Y16008D01*
X-95702Y16118D01*
X-95562Y16248D01*
X-95462Y16398D01*
X-95402Y16568D01*
X-95382Y16758D01*
Y12758D01*
D02*
G37*
G36*
X95892Y15413D02*
X95922Y15328D01*
X95972Y15253D01*
X96042Y15188D01*
X96132Y15133D01*
X96242Y15088D01*
X96372Y15053D01*
X96522Y15028D01*
X96692Y15013D01*
X96882Y15008D01*
Y14008D01*
X96692Y14003D01*
X96522Y13988D01*
X96372Y13963D01*
X96242Y13928D01*
X96132Y13883D01*
X96042Y13828D01*
X95972Y13763D01*
X95922Y13688D01*
X95892Y13603D01*
X95882Y13508D01*
Y15508D01*
X95892Y15413D01*
D02*
G37*
G36*
X18868Y12508D02*
X18848Y12698D01*
X18788Y12868D01*
X18688Y13018D01*
X18548Y13148D01*
X18368Y13258D01*
X18148Y13348D01*
X17888Y13418D01*
X17588Y13468D01*
X17248Y13498D01*
X16868Y13508D01*
Y15508D01*
X17248Y15518D01*
X17588Y15548D01*
X17888Y15598D01*
X18148Y15668D01*
X18368Y15758D01*
X18548Y15868D01*
X18688Y15998D01*
X18788Y16148D01*
X18848Y16318D01*
X18868Y16508D01*
Y12508D01*
D02*
G37*
G36*
X178309Y13278D02*
X177885Y13274D01*
X177124Y13223D01*
X176787Y13174D01*
X176480Y13111D01*
X176202Y13032D01*
X175953Y12938D01*
X175733Y12829D01*
X175543Y12705D01*
X175382Y12566D01*
X174674Y13273D01*
X174814Y13435D01*
X174938Y13625D01*
X175047Y13845D01*
X175140Y14094D01*
X175219Y14372D01*
X175283Y14679D01*
X175331Y15016D01*
X175383Y15777D01*
X175386Y16201D01*
X178309Y13278D01*
D02*
G37*
G36*
X166230Y14163D02*
X165928Y14461D01*
X165353Y14963D01*
X165081Y15166D01*
X164819Y15339D01*
X164566Y15480D01*
X164324Y15589D01*
X164092Y15668D01*
X163869Y15715D01*
X163657Y15730D01*
Y16730D01*
X163869Y16746D01*
X164092Y16793D01*
X164324Y16871D01*
X164566Y16981D01*
X164819Y17122D01*
X165081Y17294D01*
X165353Y17498D01*
X165928Y18000D01*
X166230Y18297D01*
Y14163D01*
D02*
G37*
G36*
X-85632Y12758D02*
X-85652Y12948D01*
X-85712Y13118D01*
X-85812Y13268D01*
X-85952Y13398D01*
X-86132Y13508D01*
X-86352Y13598D01*
X-86612Y13668D01*
X-86912Y13718D01*
X-87252Y13748D01*
X-87625Y13758D01*
X-88001Y13748D01*
X-88343Y13718D01*
X-88644Y13668D01*
X-88906Y13598D01*
X-89127Y13508D01*
X-89308Y13398D01*
X-89449Y13268D01*
X-89550Y13118D01*
X-89610Y12948D01*
X-89630Y12758D01*
Y16758D01*
X-89610Y16568D01*
X-89550Y16398D01*
X-89449Y16248D01*
X-89308Y16118D01*
X-89127Y16008D01*
X-88906Y15918D01*
X-88644Y15848D01*
X-88343Y15798D01*
X-88001Y15768D01*
X-87625Y15758D01*
X-87252Y15768D01*
X-86912Y15798D01*
X-86612Y15848D01*
X-86352Y15918D01*
X-86132Y16008D01*
X-85952Y16118D01*
X-85812Y16248D01*
X-85712Y16398D01*
X-85652Y16568D01*
X-85632Y16758D01*
Y12758D01*
D02*
G37*
G36*
X-10245Y17583D02*
X-10230Y17411D01*
X-10205Y17259D01*
X-10170Y17128D01*
X-10125Y17016D01*
X-10070Y16925D01*
X-10005Y16854D01*
X-9930Y16804D01*
X-9845Y16773D01*
X-9750Y16763D01*
X-11750D01*
X-11655Y16773D01*
X-11570Y16804D01*
X-11495Y16854D01*
X-11430Y16925D01*
X-11375Y17016D01*
X-11330Y17128D01*
X-11295Y17259D01*
X-11270Y17411D01*
X-11255Y17583D01*
X-11250Y17775D01*
X-10250D01*
X-10245Y17583D01*
D02*
G37*
G36*
X137750Y22374D02*
X137960Y22076D01*
X138259Y21707D01*
X139046Y20864D01*
X138573Y20677D01*
X142750Y16500D01*
Y14500D01*
X136000D01*
Y16500D01*
X131750Y20500D01*
Y26000D01*
X137750D01*
Y22374D01*
D02*
G37*
G36*
X-34370Y12500D02*
X-34390Y12690D01*
X-34450Y12860D01*
X-34551Y13010D01*
X-34692Y13140D01*
X-34873Y13250D01*
X-35094Y13340D01*
X-35356Y13410D01*
X-35657Y13460D01*
X-35999Y13490D01*
X-36375Y13500D01*
X-36748Y13490D01*
X-37088Y13460D01*
X-37388Y13410D01*
X-37648Y13340D01*
X-37868Y13250D01*
X-38048Y13140D01*
X-38188Y13010D01*
X-38288Y12860D01*
X-38348Y12690D01*
X-38368Y12500D01*
Y16500D01*
X-38348Y16310D01*
X-38288Y16140D01*
X-38188Y15990D01*
X-38048Y15860D01*
X-37868Y15750D01*
X-37648Y15660D01*
X-37388Y15590D01*
X-37088Y15540D01*
X-36748Y15510D01*
X-36375Y15500D01*
X-35999Y15510D01*
X-35657Y15540D01*
X-35356Y15590D01*
X-35094Y15660D01*
X-34873Y15750D01*
X-34692Y15860D01*
X-34551Y15990D01*
X-34450Y16140D01*
X-34390Y16310D01*
X-34370Y16500D01*
Y12500D01*
D02*
G37*
D10*
X26500Y-15427D02*
D03*
X31500D02*
D03*
X36500D02*
D03*
X41500D02*
D03*
X21500D02*
D03*
X16500D02*
D03*
X11500D02*
D03*
X77250D02*
D03*
X82250D02*
D03*
X87250D02*
D03*
X92250D02*
D03*
X72250D02*
D03*
X67250D02*
D03*
X62250D02*
D03*
X-77750Y-15177D02*
D03*
X-72750D02*
D03*
X-67750D02*
D03*
X-62750D02*
D03*
X-82750D02*
D03*
X-87750D02*
D03*
X-92750D02*
D03*
X-26500Y-15226D02*
D03*
X-21500D02*
D03*
X-16500D02*
D03*
X-11500D02*
D03*
X-31500D02*
D03*
X-36500D02*
D03*
X-41500D02*
D03*
D11*
X26500Y-51451D02*
D03*
X77250D02*
D03*
X-77750Y-51201D02*
D03*
X-26500Y-51250D02*
D03*
D12*
X139524Y-8000D02*
D03*
Y-5441D02*
D03*
Y-2882D02*
D03*
Y-323D02*
D03*
Y2236D02*
D03*
Y4795D02*
D03*
Y7354D02*
D03*
Y9913D02*
D03*
Y12472D02*
D03*
Y15032D02*
D03*
X117476D02*
D03*
Y12472D02*
D03*
Y9913D02*
D03*
Y7354D02*
D03*
Y4795D02*
D03*
Y2236D02*
D03*
Y-323D02*
D03*
Y-2882D02*
D03*
Y-5441D02*
D03*
Y-8000D02*
D03*
D13*
X68500Y89000D02*
D03*
X-84750D02*
D03*
D14*
X81886Y45299D02*
D03*
X75193D02*
D03*
X68500D02*
D03*
X61807D02*
D03*
X55114D02*
D03*
X-71364D02*
D03*
X-78057D02*
D03*
X-84750D02*
D03*
X-91443D02*
D03*
X-98136D02*
D03*
D15*
X-5000Y52165D02*
D03*
D16*
X4055Y75000D02*
D03*
X-5000D02*
D03*
X-14055D02*
D03*
D17*
X127750Y78000D02*
D03*
X134758D02*
D03*
X-159246Y-39000D02*
D03*
X-166254D02*
D03*
X-159246Y24000D02*
D03*
X-166254D02*
D03*
X110496Y-15750D02*
D03*
X117504D02*
D03*
D18*
X11500Y7500D02*
D03*
Y14508D02*
D03*
X21750Y7500D02*
D03*
Y14508D02*
D03*
X31750Y7500D02*
D03*
Y14508D02*
D03*
X42750Y7496D02*
D03*
Y14504D02*
D03*
X62250D02*
D03*
Y7496D02*
D03*
X-159250Y-14746D02*
D03*
Y-21754D02*
D03*
Y49758D02*
D03*
Y42750D02*
D03*
X72250Y14508D02*
D03*
Y7500D02*
D03*
X82250Y14504D02*
D03*
Y7496D02*
D03*
X93000Y14508D02*
D03*
Y7500D02*
D03*
X-92500Y7750D02*
D03*
Y14758D02*
D03*
X-41250Y14500D02*
D03*
Y7492D02*
D03*
X-82750Y7750D02*
D03*
Y14758D02*
D03*
X-31500Y14504D02*
D03*
Y7496D02*
D03*
X-61750Y7750D02*
D03*
Y14758D02*
D03*
X-72750Y7750D02*
D03*
Y14758D02*
D03*
X-10750Y14504D02*
D03*
Y7496D02*
D03*
X-21500Y14508D02*
D03*
Y7500D02*
D03*
X4750Y90246D02*
D03*
Y97254D02*
D03*
X-13250Y90250D02*
D03*
Y97258D02*
D03*
X134750Y30754D02*
D03*
Y23746D02*
D03*
X127750Y90246D02*
D03*
Y97254D02*
D03*
X-23250Y90242D02*
D03*
Y97250D02*
D03*
X-18500Y48258D02*
D03*
Y41250D02*
D03*
D19*
X97939Y54250D02*
D03*
X121561D02*
D03*
X-55311Y53500D02*
D03*
X-31689D02*
D03*
D20*
X98750Y97504D02*
D03*
Y85496D02*
D03*
X-53250Y97250D02*
D03*
Y85242D02*
D03*
D21*
X114348Y97461D02*
D03*
Y77933D02*
D03*
X-37152Y97211D02*
D03*
Y77683D02*
D03*
D22*
X26750Y60250D02*
D03*
Y88203D02*
D03*
X-126000Y60524D02*
D03*
Y88476D02*
D03*
D23*
X-39976Y-97750D02*
D03*
X-12024D02*
D03*
D24*
X-7065Y41250D02*
D03*
X3250D02*
D03*
D25*
X-23098Y78362D02*
D03*
Y68047D02*
D03*
D26*
X21813Y102250D02*
D03*
X15750D02*
D03*
X128687Y107750D02*
D03*
X134750D02*
D03*
D27*
X-4250Y91219D02*
D03*
Y97281D02*
D03*
D28*
X117476Y-15722D02*
X127278D01*
X-171000Y-21748D02*
X-154248D01*
X-84750Y33250D02*
Y45299D01*
X-78057D02*
Y47268D01*
X75193Y45299D02*
Y47268D01*
X26500Y-37376D02*
Y-15427D01*
X-77750Y-37126D02*
Y-15177D01*
X72246Y14504D02*
X72250Y14508D01*
X62250Y14504D02*
X72246D01*
X11500Y14508D02*
X21750D01*
X-31504Y14500D02*
X-31500Y14504D01*
X-41250Y14500D02*
X-31504D01*
X-92500Y14758D02*
X-82750D01*
X93000Y3000D02*
Y7500D01*
X87250Y-2750D02*
X93000Y3000D01*
X87250Y-15427D02*
Y-2750D01*
X42750Y3750D02*
Y7496D01*
X36500Y-2500D02*
X42750Y3750D01*
X36500Y-15427D02*
Y-2500D01*
X-10750Y3250D02*
Y7496D01*
X-16500Y-2500D02*
X-10750Y3250D01*
X-16500Y-15226D02*
Y-2500D01*
X-61750Y3250D02*
Y7750D01*
X-67750Y-2750D02*
X-61750Y3250D01*
X-67750Y-15177D02*
Y-2750D01*
X82250Y-15427D02*
Y7496D01*
X31500Y7250D02*
X31750Y7500D01*
X31500Y-15427D02*
Y7250D01*
X-21500Y-15226D02*
Y7500D01*
X-72750Y-15177D02*
Y7750D01*
X62250Y2250D02*
Y7496D01*
Y2250D02*
X67250Y-2750D01*
Y-15427D02*
Y-2750D01*
X11500Y2250D02*
Y7500D01*
Y2250D02*
X16500Y-2750D01*
Y-15427D02*
Y-2750D01*
X-41250Y2000D02*
Y7492D01*
Y2000D02*
X-36500Y-2750D01*
Y-15226D02*
Y-2750D01*
X-92500Y2000D02*
Y7750D01*
Y2000D02*
X-87750Y-2750D01*
Y-15177D02*
Y-2750D01*
X-82750Y-15177D02*
Y7750D01*
X-31500Y-15226D02*
Y7496D01*
X21500Y7250D02*
X21750Y7500D01*
X21500Y-15427D02*
Y7250D01*
X72250Y-15427D02*
Y7500D01*
X-171000Y42752D02*
X-159252D01*
X-159250Y42750D01*
X-171000Y50626D02*
X-160118D01*
X-159250Y49758D01*
X-171000Y-13874D02*
X-160122D01*
X-159250Y-14746D01*
X-152000Y-12433D02*
X-144626Y-5059D01*
X-152000Y-19500D02*
Y-12433D01*
X-154248Y-21748D02*
X-152000Y-19500D01*
X-139750Y-10183D02*
X-134626Y-5059D01*
X-139750Y-20500D02*
Y-10183D01*
X-148872Y-29622D02*
X-139750Y-20500D01*
X-171000Y-29622D02*
X-148872D01*
X-171000Y-34254D02*
Y-29622D01*
Y-34254D02*
X-166254Y-39000D01*
X-171000Y28746D02*
Y34878D01*
Y28746D02*
X-166254Y24000D01*
X-159246D02*
X-147750D01*
X-144626Y20876D01*
X-99492Y14758D02*
X-92500D01*
X-48250Y14500D02*
X-41250D01*
X3258Y14508D02*
X11500D01*
X55254Y14504D02*
X62250D01*
X-13250Y97258D02*
X-4274D01*
X-4250Y97281D01*
X4750Y97254D02*
Y101250D01*
X5750Y102250D02*
X15750D01*
X4750Y101250D02*
X5750Y102250D01*
X-29500Y84764D02*
X-23098Y78362D01*
X-29500Y84764D02*
Y95500D01*
X-27750Y97250D01*
X-23250D01*
X134750Y78008D02*
Y107750D01*
Y78008D02*
X134758Y78000D01*
X-92500Y25500D02*
X-84750Y33250D01*
X-92500Y14758D02*
Y25500D01*
X-71364Y47268D02*
Y53864D01*
X-72750Y55250D02*
X-71364Y53864D01*
X-83500Y55250D02*
X-72750D01*
X-84750Y54000D02*
X-83500Y55250D01*
X-84750Y45299D02*
Y54000D01*
X81886Y47268D02*
Y53364D01*
X80750Y54500D02*
X81886Y53364D01*
X69500Y54500D02*
X80750D01*
X68500Y53500D02*
X69500Y54500D01*
X68500Y47268D02*
Y53500D01*
X-72750Y14758D02*
Y22500D01*
X-21500Y14508D02*
Y22500D01*
X31750Y14508D02*
Y22500D01*
X-25750Y34000D02*
X-18500Y41250D01*
X-73500Y34000D02*
X-25750D01*
X-82750Y24750D02*
X-73500Y34000D01*
X-82750Y14758D02*
Y24750D01*
X-159250Y42750D02*
X-153750D01*
X-151750Y40750D01*
X-159250Y49758D02*
X-150758D01*
X-144626Y43626D01*
Y14941D02*
Y20876D01*
Y43626D01*
X127278Y-15722D02*
X132250Y-10750D01*
Y-5750D01*
Y-2500D01*
X162500Y19250D02*
X168750Y25500D01*
X139246Y19250D02*
X162500D01*
X134750Y23746D02*
X139246Y19250D01*
X82250Y14504D02*
Y22500D01*
X-166254Y16254D02*
Y24000D01*
Y16254D02*
X-154941Y4941D01*
X-144626D01*
X-159246Y-39000D02*
X-147750D01*
X-159250Y-14746D02*
Y-5250D01*
X-154000Y0D01*
X-130500D01*
X-126000Y4500D01*
Y27750D01*
X168750Y25500D02*
X189500D01*
D29*
X78250Y34500D02*
X115250D01*
X75193Y37557D02*
X78250Y34500D01*
X75193Y37557D02*
Y45299D01*
X-78057Y37057D02*
Y45299D01*
X115250Y34500D02*
X121561Y40811D01*
Y54250D01*
X134750Y30754D02*
X155474D01*
X156750Y29478D01*
X126000Y-61250D02*
X174000D01*
X126000Y-76801D02*
X159949D01*
X134750Y-24750D02*
X147750Y-11750D01*
X126000Y-24750D02*
X134750D01*
X126000Y-40301D02*
X157301D01*
D30*
X117476Y-15722D02*
X117504Y-15750D01*
X117476Y-15722D02*
Y-8000D01*
X110496Y-15750D02*
Y-7254D01*
X112309Y-5441D01*
X117476D01*
X33000Y-27250D02*
X83500D01*
X82250Y-26000D02*
X83500Y-27250D01*
X82250Y-26000D02*
Y-15427D01*
X31500Y-25750D02*
Y-15427D01*
Y-25750D02*
X33000Y-27250D01*
X-71250Y-27500D02*
X-23000D01*
X-72750Y-26000D02*
X-71250Y-27500D01*
X-72750Y-26000D02*
Y-15177D01*
X-23000Y-27500D02*
X-21500Y-26000D01*
Y-15226D01*
X101000Y9000D02*
Y12000D01*
X98492Y14508D02*
X101000Y12000D01*
X93000Y14508D02*
X98492D01*
X110323Y-323D02*
X117476D01*
X101000Y9000D02*
X110323Y-323D01*
X111014Y2236D02*
X117476D01*
X103250Y10000D02*
X111014Y2236D01*
X103250Y10000D02*
Y19000D01*
X97250Y25000D02*
X103250Y19000D01*
X105250Y10750D02*
Y20000D01*
X98250Y27000D02*
X105250Y20000D01*
X42750Y21750D02*
X46000Y25000D01*
X42750Y14504D02*
Y21750D01*
X111205Y4795D02*
X117476D01*
X105250Y10750D02*
X111205Y4795D01*
X108000Y11000D02*
Y20750D01*
X99750Y29000D02*
X108000Y20750D01*
X-10750Y23750D02*
X-7500Y27000D01*
X-10750Y14504D02*
Y23750D01*
X111646Y7354D02*
X117476D01*
X108000Y11000D02*
X111646Y7354D01*
X110250Y11500D02*
Y22000D01*
X101250Y31000D02*
X110250Y22000D01*
X-61750Y25750D02*
X-58500Y29000D01*
X-61750Y14758D02*
Y25750D01*
X-67250Y26250D02*
X-62500Y31000D01*
X-67250Y9000D02*
Y26250D01*
X-62500Y31000D02*
X101250D01*
X111837Y9913D02*
X117476D01*
X110250Y11500D02*
X111837Y9913D01*
X-68500Y7750D02*
X-67250Y9000D01*
X-72750Y7750D02*
X-68500D01*
X83500Y-27250D02*
X99000D01*
X111118Y-2882D02*
X117476D01*
X-4250Y91219D02*
X-1531D01*
X-250Y92500D01*
Y109250D01*
X117476Y-5441D02*
X126059D01*
X128750Y-2750D01*
Y11500D01*
X132281Y15032D01*
X139524D01*
X99000Y-27250D02*
X103500Y-22750D01*
Y-10500D01*
X111118Y-2882D01*
X132250Y-5750D02*
X134500Y-8000D01*
X139524D01*
X-58500Y29000D02*
X99750D01*
X-7500Y27000D02*
X98250D01*
X46000Y25000D02*
X97250D01*
X173358Y11250D02*
X178339Y16230D01*
X173358Y1250D02*
X178339Y6230D01*
X151770Y-3770D02*
X168339D01*
X173358Y-8750D02*
X178339Y-3770D01*
X139524Y4795D02*
X148295D01*
X154750Y11250D01*
X173358D01*
X139524Y2236D02*
X149486D01*
X153480Y6230D01*
X168339D01*
X139524Y-323D02*
X150677D01*
X152250Y1250D01*
X173358D01*
X139524Y-2882D02*
X150882D01*
X151770Y-3770D01*
X139524Y-5441D02*
X149941D01*
X153250Y-8750D01*
X173358D01*
X139524Y7354D02*
X146604D01*
X155480Y16230D01*
X168339D01*
D31*
X-134626Y-15059D02*
X-129500Y-20185D01*
Y-47500D02*
Y-20185D01*
D32*
X10752Y-66707D02*
D03*
X18626D02*
D03*
X26500D02*
D03*
X34374D02*
D03*
X42248D02*
D03*
X10752Y-37376D02*
D03*
X18626D02*
D03*
X26500D02*
D03*
X34374D02*
D03*
X42248D02*
D03*
Y-45250D02*
D03*
X34374D02*
D03*
X26500D02*
D03*
X18626D02*
D03*
X10752D02*
D03*
X42248Y-53124D02*
D03*
X34374D02*
D03*
X26500D02*
D03*
X18626D02*
D03*
X10752D02*
D03*
X42248Y-60998D02*
D03*
X34374D02*
D03*
X26500D02*
D03*
X18626D02*
D03*
X10752D02*
D03*
X61502Y-66707D02*
D03*
X69376D02*
D03*
X77250D02*
D03*
X85124D02*
D03*
X92998D02*
D03*
X61502Y-37376D02*
D03*
X69376D02*
D03*
X77250D02*
D03*
X85124D02*
D03*
X92998D02*
D03*
Y-45250D02*
D03*
X85124D02*
D03*
X77250D02*
D03*
X69376D02*
D03*
X61502D02*
D03*
X92998Y-53124D02*
D03*
X85124D02*
D03*
X77250D02*
D03*
X69376D02*
D03*
X61502D02*
D03*
X92998Y-60998D02*
D03*
X85124D02*
D03*
X77250D02*
D03*
X69376D02*
D03*
X61502D02*
D03*
X-93498Y-66457D02*
D03*
X-85624D02*
D03*
X-77750D02*
D03*
X-69876D02*
D03*
X-62002D02*
D03*
X-93498Y-37126D02*
D03*
X-85624D02*
D03*
X-77750D02*
D03*
X-69876D02*
D03*
X-62002D02*
D03*
Y-45000D02*
D03*
X-69876D02*
D03*
X-77750D02*
D03*
X-85624D02*
D03*
X-93498D02*
D03*
X-62002Y-52874D02*
D03*
X-69876D02*
D03*
X-77750D02*
D03*
X-85624D02*
D03*
X-93498D02*
D03*
X-62002Y-60748D02*
D03*
X-69876D02*
D03*
X-77750D02*
D03*
X-85624D02*
D03*
X-93498D02*
D03*
X-42248Y-66506D02*
D03*
X-34374D02*
D03*
X-26500D02*
D03*
X-18626D02*
D03*
X-10752D02*
D03*
X-42248Y-37175D02*
D03*
X-34374D02*
D03*
X-26500D02*
D03*
X-18626D02*
D03*
X-10752D02*
D03*
Y-45049D02*
D03*
X-18626D02*
D03*
X-26500D02*
D03*
X-34374D02*
D03*
X-42248D02*
D03*
X-10752Y-52923D02*
D03*
X-18626D02*
D03*
X-26500D02*
D03*
X-34374D02*
D03*
X-42248D02*
D03*
X-10752Y-60797D02*
D03*
X-18626D02*
D03*
X-26500D02*
D03*
X-34374D02*
D03*
X-42248D02*
D03*
D33*
X156750Y81250D02*
D03*
Y29478D02*
D03*
D34*
X145923Y69045D02*
D03*
Y59203D02*
D03*
Y51329D02*
D03*
Y41486D02*
D03*
D35*
X-129500Y-47500D02*
D03*
X-113949D02*
D03*
X126000Y-40301D02*
D03*
Y-24750D02*
D03*
Y-76801D02*
D03*
Y-61250D02*
D03*
D36*
X-143628Y-62750D02*
D03*
X-167250D02*
D03*
D37*
X-153471Y-81648D02*
D03*
D38*
X-134626Y-15059D02*
D03*
X-144626D02*
D03*
X-134626Y-5059D02*
D03*
X-144626D02*
D03*
X-134626Y4941D02*
D03*
X-144626D02*
D03*
X-134626Y14941D02*
D03*
X168339Y16230D02*
D03*
X178339D02*
D03*
X168339Y6230D02*
D03*
X178339D02*
D03*
X168339Y-3770D02*
D03*
X-171000Y-29622D02*
D03*
Y-21748D02*
D03*
Y-13874D02*
D03*
Y-6000D02*
D03*
Y1874D02*
D03*
Y9748D02*
D03*
Y34878D02*
D03*
Y42752D02*
D03*
Y50626D02*
D03*
Y58500D02*
D03*
Y66374D02*
D03*
Y74248D02*
D03*
D39*
X-144626Y14941D02*
D03*
X178339Y-3770D02*
D03*
D40*
X-94500Y-97750D02*
D03*
X-59067D02*
D03*
X-76784D02*
D03*
D41*
X177252Y-95748D02*
D03*
X-177252D02*
D03*
D42*
X151748Y101252D02*
D03*
X-157248D02*
D03*
D43*
X-97250Y-8750D02*
D03*
Y-11750D02*
D03*
Y-14750D02*
D03*
Y-18000D02*
D03*
Y-21500D02*
D03*
X-100250Y-22500D02*
D03*
Y-19000D02*
D03*
Y-15750D02*
D03*
Y-12750D02*
D03*
Y-9750D02*
D03*
X-45500Y-21000D02*
D03*
Y-17500D02*
D03*
Y-14250D02*
D03*
Y-11250D02*
D03*
Y-8250D02*
D03*
X-48500Y-21000D02*
D03*
Y-17500D02*
D03*
Y-14250D02*
D03*
Y-11250D02*
D03*
Y-8250D02*
D03*
X7250Y-8500D02*
D03*
Y-11250D02*
D03*
Y-14250D02*
D03*
Y-17250D02*
D03*
Y-20250D02*
D03*
X4250D02*
D03*
Y-17250D02*
D03*
Y-14250D02*
D03*
Y-11250D02*
D03*
Y-8500D02*
D03*
X58250Y-20250D02*
D03*
Y-17250D02*
D03*
Y-14250D02*
D03*
Y-11250D02*
D03*
Y-8500D02*
D03*
X55250Y-20250D02*
D03*
Y-17250D02*
D03*
Y-14250D02*
D03*
Y-11250D02*
D03*
Y-8500D02*
D03*
X-56500Y-500D02*
D03*
X-53250D02*
D03*
X-50000D02*
D03*
X-46500D02*
D03*
X-48250Y1750D02*
D03*
X-51500D02*
D03*
X-54750D02*
D03*
X-2500D02*
D03*
X750D02*
D03*
X4000D02*
D03*
X5750Y-500D02*
D03*
X2250D02*
D03*
X-1000D02*
D03*
X-4250D02*
D03*
X49750Y1500D02*
D03*
X53000D02*
D03*
X56250D02*
D03*
X58000Y-750D02*
D03*
X54500D02*
D03*
X51250D02*
D03*
X48000D02*
D03*
X97750Y1250D02*
D03*
X101000D02*
D03*
X99250Y3500D02*
D03*
X102500Y-1000D02*
D03*
X99250D02*
D03*
X96000D02*
D03*
X-128000Y99500D02*
D03*
X-124500D02*
D03*
X-121250D02*
D03*
X-117750D02*
D03*
X-114000D02*
D03*
X-118250Y50250D02*
D03*
X-114750D02*
D03*
X-110750D02*
D03*
X-118250Y47000D02*
D03*
X-114750D02*
D03*
X-110750D02*
D03*
X-107250Y50250D02*
D03*
Y47000D02*
D03*
X46750Y45250D02*
D03*
Y48500D02*
D03*
X43250Y45250D02*
D03*
X39250D02*
D03*
X35750D02*
D03*
X43250Y48500D02*
D03*
X39250D02*
D03*
X35750D02*
D03*
X1000Y35250D02*
D03*
X5000D02*
D03*
X8750D02*
D03*
X12500D02*
D03*
X86500Y49500D02*
D03*
Y45250D02*
D03*
X-35000Y39750D02*
D03*
X-31750D02*
D03*
X-28500D02*
D03*
X-126000Y27750D02*
D03*
Y29750D02*
D03*
X-72750Y22500D02*
D03*
X-21500D02*
D03*
X31750D02*
D03*
X-151750Y40750D02*
D03*
X132250Y-2500D02*
D03*
X82250Y22500D02*
D03*
X-147750Y-39000D02*
D03*
D44*
X-99492Y14758D02*
D03*
X-48250Y14500D02*
D03*
X3258Y14508D02*
D03*
X55254Y14504D02*
D03*
D45*
X-78057Y37057D02*
D03*
X174000Y-61250D02*
D03*
X159949Y-76801D02*
D03*
X147750Y-11750D02*
D03*
X157301Y-40301D02*
D03*
M02*
