G04 Layer_Color=2752767*
%FSLAX25Y25*%
%MOIN*%
G70*
G01*
G75*
%ADD10C,0.00039*%
%ADD11C,0.00394*%
%ADD12C,0.00197*%
%ADD13C,0.00800*%
%ADD14C,0.00200*%
%ADD15C,0.00267*%
%ADD16C,0.00133*%
%ADD17C,0.00480*%
%ADD18C,0.00300*%
D10*
X42498Y74226D02*
G03*
X42498Y74226I-15748J0D01*
G01*
X40530D02*
G03*
X40530Y74226I-13780J0D01*
G01*
X28522Y66155D02*
G03*
X24978Y66155I-1772J0D01*
G01*
X24979Y82398D02*
G03*
X28522Y82398I1772J0D01*
G01*
X-10252Y-97750D02*
G03*
X-10252Y-97750I-15748J0D01*
G01*
X-12220D02*
G03*
X-12220Y-97750I-13780J0D01*
G01*
X-34071Y-99522D02*
G03*
X-34071Y-95978I0J1772D01*
G01*
X-17829Y-95979D02*
G03*
X-17829Y-99522I0J-1772D01*
G01*
X-110252Y74500D02*
G03*
X-110252Y74500I-15748J0D01*
G01*
X-112221D02*
G03*
X-112221Y74500I-13780J0D01*
G01*
X-124228Y66429D02*
G03*
X-127772Y66429I-1772J0D01*
G01*
X-127771Y82671D02*
G03*
X-124228Y82671I1772J0D01*
G01*
X24978Y66155D02*
X28522D01*
X24979Y82398D02*
X28522D01*
X-34071Y-99522D02*
Y-95978D01*
X-17829Y-99522D02*
Y-95979D01*
X-127772Y66429D02*
X-124228D01*
X-127771Y82671D02*
X-124228D01*
D11*
X104242Y82642D02*
Y100358D01*
X93258Y82642D02*
Y100358D01*
X104242D01*
X93258Y82642D02*
X104242D01*
X-47758Y82388D02*
Y100104D01*
X-58742Y82388D02*
Y100104D01*
X-47758D01*
X-58742Y82388D02*
X-47758D01*
X14348Y57888D02*
X39152D01*
X10411Y61825D02*
X14348Y57888D01*
X10411Y61825D02*
Y90565D01*
X43089Y61825D02*
Y90565D01*
X39152Y57888D02*
X43089Y61825D01*
X10411Y90565D02*
X43089D01*
X-42339Y-110152D02*
Y-85348D01*
X-38402Y-81411D01*
X-9661D01*
X-38402Y-114089D02*
X-9661D01*
X-42339Y-110152D02*
X-38402Y-114089D01*
X-9661D02*
Y-81411D01*
X-138402Y58161D02*
X-113598D01*
X-142339Y62098D02*
X-138402Y58161D01*
X-142339Y62098D02*
Y90839D01*
X-109661Y62098D02*
Y90839D01*
X-113598Y58161D02*
X-109661Y62098D01*
X-142339Y90839D02*
X-109661D01*
X17994Y100675D02*
Y103825D01*
Y100675D02*
X19569Y102250D01*
X17994Y103825D02*
X19569Y102250D01*
Y100675D02*
Y103825D01*
X17207Y102250D02*
X20356D01*
X17581Y99033D02*
X18762Y100215D01*
X18368Y98640D02*
X19549Y99821D01*
X-5825Y95037D02*
X-2675D01*
X-5825D02*
X-4250Y93463D01*
X-2675Y95037D01*
X-5825Y93463D02*
X-2675D01*
X-4250Y92675D02*
Y95825D01*
X-7467Y95451D02*
X-6285Y94270D01*
X-7860Y94663D02*
X-6679Y93482D01*
X132506Y106175D02*
Y109325D01*
X130931Y107750D02*
X132506Y109325D01*
X130931Y107750D02*
X132506Y106175D01*
X130931D02*
Y109325D01*
X130144Y107750D02*
X133293D01*
X131738Y109785D02*
X132919Y110967D01*
X130951Y110179D02*
X132132Y111360D01*
X96781Y91500D02*
X100718D01*
X98750Y89531D02*
Y93468D01*
X-55218Y91246D02*
X-51281D01*
X-53250Y89278D02*
Y93215D01*
X24781Y74226D02*
X28719D01*
X26750Y72258D02*
Y76195D01*
X-26000Y-99718D02*
Y-95781D01*
X-27968Y-97750D02*
X-24032D01*
X-127969Y74500D02*
X-124031D01*
X-126000Y72531D02*
Y76468D01*
D12*
X24978Y54738D02*
X28522D01*
Y66155D01*
X24978Y54738D02*
Y66155D01*
X28522Y82398D02*
Y93815D01*
X24979Y82398D02*
Y93815D01*
X28522D01*
X-45488Y-99522D02*
Y-95978D01*
Y-99522D02*
X-34071D01*
X-45488Y-95978D02*
X-34071D01*
X-17829Y-99522D02*
X-6412D01*
X-17829Y-95979D02*
X-6412D01*
Y-99522D02*
Y-95979D01*
X-127772Y55012D02*
X-124228D01*
Y66429D01*
X-127772Y55012D02*
Y66429D01*
X-124228Y82671D02*
Y94089D01*
X-127771Y82671D02*
Y94089D01*
X-124228D01*
X105246Y79689D02*
Y103311D01*
X92254Y79689D02*
Y103311D01*
X105246D01*
X92254Y79689D02*
X105246D01*
X-46754Y79435D02*
Y103057D01*
X-59746Y79435D02*
Y103057D01*
X-46754D01*
X-59746Y79435D02*
X-46754D01*
X43482Y51982D02*
Y96470D01*
X10018Y51982D02*
X43482D01*
X10018Y96470D02*
X43482D01*
X10018Y51982D02*
Y96470D01*
X-48244Y-114482D02*
X-3756D01*
X-48244D02*
Y-81018D01*
X-3756Y-114482D02*
Y-81018D01*
X-48244D02*
X-3756D01*
X-109268Y52256D02*
Y96744D01*
X-142732Y52256D02*
X-109268D01*
X-142732Y96744D02*
X-109268D01*
X-142732Y52256D02*
Y96744D01*
D13*
X7758Y102250D02*
X11695D01*
X9726Y100282D02*
Y104218D01*
X27443Y100282D02*
Y104218D01*
X-4250Y101337D02*
Y105274D01*
X-6219Y103305D02*
X-2282D01*
X-6219Y85589D02*
X-2282D01*
X138805Y107750D02*
X142742D01*
X140774Y105781D02*
Y109719D01*
X123057Y105781D02*
Y109719D01*
D14*
X9952Y-67507D02*
Y-65907D01*
X11552D01*
Y-67507D01*
X9952D01*
X17826D02*
Y-65907D01*
X19426D01*
Y-67507D01*
X17826D01*
X25700D02*
Y-65907D01*
X27300D01*
Y-67507D01*
X25700D01*
X33574D02*
Y-65907D01*
X35174D01*
Y-67507D01*
X33574D01*
X41448D02*
Y-65907D01*
X43048D01*
Y-67507D01*
X41448D01*
X9952Y-38176D02*
Y-36576D01*
X11552D01*
Y-38176D01*
X9952D01*
X17826D02*
Y-36576D01*
X19426D01*
Y-38176D01*
X17826D01*
X25700D02*
Y-36576D01*
X27300D01*
Y-38176D01*
X25700D01*
X33574D02*
Y-36576D01*
X35174D01*
Y-38176D01*
X33574D01*
X41448D02*
Y-36576D01*
X43048D01*
Y-38176D01*
X41448D01*
Y-46050D02*
Y-44450D01*
X43048D01*
Y-46050D01*
X41448D01*
X33574D02*
Y-44450D01*
X35174D01*
Y-46050D01*
X33574D01*
X25700D02*
Y-44450D01*
X27300D01*
Y-46050D01*
X25700D01*
X17826D02*
Y-44450D01*
X19426D01*
Y-46050D01*
X17826D01*
X9952D02*
Y-44450D01*
X11552D01*
Y-46050D01*
X9952D01*
X41448Y-53924D02*
Y-52324D01*
X43048D01*
Y-53924D01*
X41448D01*
X33574D02*
Y-52324D01*
X35174D01*
Y-53924D01*
X33574D01*
X25700D02*
Y-52324D01*
X27300D01*
Y-53924D01*
X25700D01*
X17826D02*
Y-52324D01*
X19426D01*
Y-53924D01*
X17826D01*
X9952D02*
Y-52324D01*
X11552D01*
Y-53924D01*
X9952D01*
X41448Y-61798D02*
Y-60198D01*
X43048D01*
Y-61798D01*
X41448D01*
X33574D02*
Y-60198D01*
X35174D01*
Y-61798D01*
X33574D01*
X25700D02*
Y-60198D01*
X27300D01*
Y-61798D01*
X25700D01*
X17826D02*
Y-60198D01*
X19426D01*
Y-61798D01*
X17826D01*
X9952D02*
Y-60198D01*
X11552D01*
Y-61798D01*
X9952D01*
X60702Y-67507D02*
Y-65907D01*
X62302D01*
Y-67507D01*
X60702D01*
X68576D02*
Y-65907D01*
X70176D01*
Y-67507D01*
X68576D01*
X76450D02*
Y-65907D01*
X78050D01*
Y-67507D01*
X76450D01*
X84324D02*
Y-65907D01*
X85924D01*
Y-67507D01*
X84324D01*
X92198D02*
Y-65907D01*
X93798D01*
Y-67507D01*
X92198D01*
X60702Y-38176D02*
Y-36576D01*
X62302D01*
Y-38176D01*
X60702D01*
X68576D02*
Y-36576D01*
X70176D01*
Y-38176D01*
X68576D01*
X76450D02*
Y-36576D01*
X78050D01*
Y-38176D01*
X76450D01*
X84324D02*
Y-36576D01*
X85924D01*
Y-38176D01*
X84324D01*
X92198D02*
Y-36576D01*
X93798D01*
Y-38176D01*
X92198D01*
Y-46050D02*
Y-44450D01*
X93798D01*
Y-46050D01*
X92198D01*
X84324D02*
Y-44450D01*
X85924D01*
Y-46050D01*
X84324D01*
X76450D02*
Y-44450D01*
X78050D01*
Y-46050D01*
X76450D01*
X68576D02*
Y-44450D01*
X70176D01*
Y-46050D01*
X68576D01*
X60702D02*
Y-44450D01*
X62302D01*
Y-46050D01*
X60702D01*
X92198Y-53924D02*
Y-52324D01*
X93798D01*
Y-53924D01*
X92198D01*
X84324D02*
Y-52324D01*
X85924D01*
Y-53924D01*
X84324D01*
X76450D02*
Y-52324D01*
X78050D01*
Y-53924D01*
X76450D01*
X68576D02*
Y-52324D01*
X70176D01*
Y-53924D01*
X68576D01*
X60702D02*
Y-52324D01*
X62302D01*
Y-53924D01*
X60702D01*
X92198Y-61798D02*
Y-60198D01*
X93798D01*
Y-61798D01*
X92198D01*
X84324D02*
Y-60198D01*
X85924D01*
Y-61798D01*
X84324D01*
X76450D02*
Y-60198D01*
X78050D01*
Y-61798D01*
X76450D01*
X68576D02*
Y-60198D01*
X70176D01*
Y-61798D01*
X68576D01*
X60702D02*
Y-60198D01*
X62302D01*
Y-61798D01*
X60702D01*
X-94298Y-67257D02*
Y-65657D01*
X-92698D01*
Y-67257D01*
X-94298D01*
X-86424D02*
Y-65657D01*
X-84824D01*
Y-67257D01*
X-86424D01*
X-78550D02*
Y-65657D01*
X-76950D01*
Y-67257D01*
X-78550D01*
X-70676D02*
Y-65657D01*
X-69076D01*
Y-67257D01*
X-70676D01*
X-62802D02*
Y-65657D01*
X-61202D01*
Y-67257D01*
X-62802D01*
X-94298Y-37926D02*
Y-36326D01*
X-92698D01*
Y-37926D01*
X-94298D01*
X-86424D02*
Y-36326D01*
X-84824D01*
Y-37926D01*
X-86424D01*
X-78550D02*
Y-36326D01*
X-76950D01*
Y-37926D01*
X-78550D01*
X-70676D02*
Y-36326D01*
X-69076D01*
Y-37926D01*
X-70676D01*
X-62802D02*
Y-36326D01*
X-61202D01*
Y-37926D01*
X-62802D01*
Y-45800D02*
Y-44200D01*
X-61202D01*
Y-45800D01*
X-62802D01*
X-70676D02*
Y-44200D01*
X-69076D01*
Y-45800D01*
X-70676D01*
X-78550D02*
Y-44200D01*
X-76950D01*
Y-45800D01*
X-78550D01*
X-86424D02*
Y-44200D01*
X-84824D01*
Y-45800D01*
X-86424D01*
X-94298D02*
Y-44200D01*
X-92698D01*
Y-45800D01*
X-94298D01*
X-62802Y-53674D02*
Y-52074D01*
X-61202D01*
Y-53674D01*
X-62802D01*
X-70676D02*
Y-52074D01*
X-69076D01*
Y-53674D01*
X-70676D01*
X-78550D02*
Y-52074D01*
X-76950D01*
Y-53674D01*
X-78550D01*
X-86424D02*
Y-52074D01*
X-84824D01*
Y-53674D01*
X-86424D01*
X-94298D02*
Y-52074D01*
X-92698D01*
Y-53674D01*
X-94298D01*
X-62802Y-61548D02*
Y-59948D01*
X-61202D01*
Y-61548D01*
X-62802D01*
X-70676D02*
Y-59948D01*
X-69076D01*
Y-61548D01*
X-70676D01*
X-78550D02*
Y-59948D01*
X-76950D01*
Y-61548D01*
X-78550D01*
X-86424D02*
Y-59948D01*
X-84824D01*
Y-61548D01*
X-86424D01*
X-94298D02*
Y-59948D01*
X-92698D01*
Y-61548D01*
X-94298D01*
X-43048Y-67306D02*
Y-65706D01*
X-41448D01*
Y-67306D01*
X-43048D01*
X-35174D02*
Y-65706D01*
X-33574D01*
Y-67306D01*
X-35174D01*
X-27300D02*
Y-65706D01*
X-25700D01*
Y-67306D01*
X-27300D01*
X-19426D02*
Y-65706D01*
X-17826D01*
Y-67306D01*
X-19426D01*
X-11552D02*
Y-65706D01*
X-9952D01*
Y-67306D01*
X-11552D01*
X-43048Y-37975D02*
Y-36375D01*
X-41448D01*
Y-37975D01*
X-43048D01*
X-35174D02*
Y-36375D01*
X-33574D01*
Y-37975D01*
X-35174D01*
X-27300D02*
Y-36375D01*
X-25700D01*
Y-37975D01*
X-27300D01*
X-19426D02*
Y-36375D01*
X-17826D01*
Y-37975D01*
X-19426D01*
X-11552D02*
Y-36375D01*
X-9952D01*
Y-37975D01*
X-11552D01*
Y-45849D02*
Y-44249D01*
X-9952D01*
Y-45849D01*
X-11552D01*
X-19426D02*
Y-44249D01*
X-17826D01*
Y-45849D01*
X-19426D01*
X-27300D02*
Y-44249D01*
X-25700D01*
Y-45849D01*
X-27300D01*
X-35174D02*
Y-44249D01*
X-33574D01*
Y-45849D01*
X-35174D01*
X-43048D02*
Y-44249D01*
X-41448D01*
Y-45849D01*
X-43048D01*
X-11552Y-53723D02*
Y-52123D01*
X-9952D01*
Y-53723D01*
X-11552D01*
X-19426D02*
Y-52123D01*
X-17826D01*
Y-53723D01*
X-19426D01*
X-27300D02*
Y-52123D01*
X-25700D01*
Y-53723D01*
X-27300D01*
X-35174D02*
Y-52123D01*
X-33574D01*
Y-53723D01*
X-35174D01*
X-43048D02*
Y-52123D01*
X-41448D01*
Y-53723D01*
X-43048D01*
X-11552Y-61597D02*
Y-59997D01*
X-9952D01*
Y-61597D01*
X-11552D01*
X-19426D02*
Y-59997D01*
X-17826D01*
Y-61597D01*
X-19426D01*
X-27300D02*
Y-59997D01*
X-25700D01*
Y-61597D01*
X-27300D01*
X-35174D02*
Y-59997D01*
X-33574D01*
Y-61597D01*
X-35174D01*
X-43048D02*
Y-59997D01*
X-41448D01*
Y-61597D01*
X-43048D01*
X145923Y68245D02*
X145123Y69845D01*
X146723D01*
X145923Y68245D01*
Y58403D02*
X145123Y60003D01*
X146723D01*
X145923Y58403D01*
Y50529D02*
X145123Y52129D01*
X146723D01*
X145923Y50529D01*
Y40686D02*
X145123Y42286D01*
X146723D01*
X145923Y40686D01*
X-129500Y-48300D02*
X-129100Y-47900D01*
X-128700D01*
X-129100Y-47500D01*
X-128700Y-47100D01*
X-129100D01*
X-129500Y-46700D01*
X-129900Y-47100D01*
X-130300D01*
X-129900Y-47500D01*
X-130300Y-47900D01*
X-129900D01*
X-129500Y-48300D01*
X-113949D02*
X-113549Y-47900D01*
X-113149D01*
X-113549Y-47500D01*
X-113149Y-47100D01*
X-113549D01*
X-113949Y-46700D01*
X-114349Y-47100D01*
X-114749D01*
X-114349Y-47500D01*
X-114749Y-47900D01*
X-114349D01*
X-113949Y-48300D01*
X-144428Y-63550D02*
X-144028Y-62750D01*
X-144428Y-61950D01*
X-143628Y-62350D01*
X-142828Y-61950D01*
X-143228Y-62750D01*
X-142828Y-63550D01*
X-143628Y-63150D01*
X-144428Y-63550D01*
X-168050D02*
X-167650Y-62750D01*
X-168050Y-61950D01*
X-167250Y-62350D01*
X-166450Y-61950D01*
X-166850Y-62750D01*
X-166450Y-63550D01*
X-167250Y-63150D01*
X-168050Y-63550D01*
X-153870Y-82048D02*
Y-82448D01*
X-153070D01*
Y-82048D01*
X-152671D01*
Y-81248D01*
X-153070D01*
Y-80848D01*
X-153870D01*
Y-81248D01*
X-154271D01*
Y-82048D01*
X-153870D01*
X-135426Y-15859D02*
X-135026D01*
X-134626Y-15459D01*
X-134226Y-15859D01*
X-133826D01*
Y-15459D01*
X-134226Y-15059D01*
X-133826Y-14659D01*
Y-14259D01*
X-134226D01*
X-134626Y-14659D01*
X-135026Y-14259D01*
X-135426D01*
Y-14659D01*
X-135026Y-15059D01*
X-135426Y-15459D01*
Y-15859D01*
X-145426D02*
X-145026D01*
X-144626Y-15459D01*
X-144226Y-15859D01*
X-143826D01*
Y-15459D01*
X-144226Y-15059D01*
X-143826Y-14659D01*
Y-14259D01*
X-144226D01*
X-144626Y-14659D01*
X-145026Y-14259D01*
X-145426D01*
Y-14659D01*
X-145026Y-15059D01*
X-145426Y-15459D01*
Y-15859D01*
X-135426Y-5859D02*
X-135026D01*
X-134626Y-5459D01*
X-134226Y-5859D01*
X-133826D01*
Y-5459D01*
X-134226Y-5059D01*
X-133826Y-4659D01*
Y-4259D01*
X-134226D01*
X-134626Y-4659D01*
X-135026Y-4259D01*
X-135426D01*
Y-4659D01*
X-135026Y-5059D01*
X-135426Y-5459D01*
Y-5859D01*
X-145426D02*
X-145026D01*
X-144626Y-5459D01*
X-144226Y-5859D01*
X-143826D01*
Y-5459D01*
X-144226Y-5059D01*
X-143826Y-4659D01*
Y-4259D01*
X-144226D01*
X-144626Y-4659D01*
X-145026Y-4259D01*
X-145426D01*
Y-4659D01*
X-145026Y-5059D01*
X-145426Y-5459D01*
Y-5859D01*
X-135426Y4141D02*
X-135026D01*
X-134626Y4541D01*
X-134226Y4141D01*
X-133826D01*
Y4541D01*
X-134226Y4941D01*
X-133826Y5341D01*
Y5741D01*
X-134226D01*
X-134626Y5341D01*
X-135026Y5741D01*
X-135426D01*
Y5341D01*
X-135026Y4941D01*
X-135426Y4541D01*
Y4141D01*
X-145426D02*
X-145026D01*
X-144626Y4541D01*
X-144226Y4141D01*
X-143826D01*
Y4541D01*
X-144226Y4941D01*
X-143826Y5341D01*
Y5741D01*
X-144226D01*
X-144626Y5341D01*
X-145026Y5741D01*
X-145426D01*
Y5341D01*
X-145026Y4941D01*
X-145426Y4541D01*
Y4141D01*
X-135426Y14141D02*
X-135026D01*
X-134626Y14541D01*
X-134226Y14141D01*
X-133826D01*
Y14541D01*
X-134226Y14941D01*
X-133826Y15341D01*
Y15741D01*
X-134226D01*
X-134626Y15341D01*
X-135026Y15741D01*
X-135426D01*
Y15341D01*
X-135026Y14941D01*
X-135426Y14541D01*
Y14141D01*
X-145426D02*
X-145026D01*
X-144626Y14541D01*
X-144226Y14141D01*
X-143826D01*
Y14541D01*
X-144226Y14941D01*
X-143826Y15341D01*
Y15741D01*
X-144226D01*
X-144626Y15341D01*
X-145026Y15741D01*
X-145426D01*
Y15341D01*
X-145026Y14941D01*
X-145426Y14541D01*
Y14141D01*
X167539Y15430D02*
X167939D01*
X168339Y15830D01*
X168739Y15430D01*
X169139D01*
Y15830D01*
X168739Y16230D01*
X169139Y16630D01*
Y17030D01*
X168739D01*
X168339Y16630D01*
X167939Y17030D01*
X167539D01*
Y16630D01*
X167939Y16230D01*
X167539Y15830D01*
Y15430D01*
X177539D02*
X177939D01*
X178339Y15830D01*
X178739Y15430D01*
X179139D01*
Y15830D01*
X178739Y16230D01*
X179139Y16630D01*
Y17030D01*
X178739D01*
X178339Y16630D01*
X177939Y17030D01*
X177539D01*
Y16630D01*
X177939Y16230D01*
X177539Y15830D01*
Y15430D01*
X167539Y5430D02*
X167939D01*
X168339Y5830D01*
X168739Y5430D01*
X169139D01*
Y5830D01*
X168739Y6230D01*
X169139Y6630D01*
Y7030D01*
X168739D01*
X168339Y6630D01*
X167939Y7030D01*
X167539D01*
Y6630D01*
X167939Y6230D01*
X167539Y5830D01*
Y5430D01*
X177539D02*
X177939D01*
X178339Y5830D01*
X178739Y5430D01*
X179139D01*
Y5830D01*
X178739Y6230D01*
X179139Y6630D01*
Y7030D01*
X178739D01*
X178339Y6630D01*
X177939Y7030D01*
X177539D01*
Y6630D01*
X177939Y6230D01*
X177539Y5830D01*
Y5430D01*
X167539Y-4570D02*
X167939D01*
X168339Y-4170D01*
X168739Y-4570D01*
X169139D01*
Y-4170D01*
X168739Y-3770D01*
X169139Y-3370D01*
Y-2970D01*
X168739D01*
X168339Y-3370D01*
X167939Y-2970D01*
X167539D01*
Y-3370D01*
X167939Y-3770D01*
X167539Y-4170D01*
Y-4570D01*
X177539D02*
X177939D01*
X178339Y-4170D01*
X178739Y-4570D01*
X179139D01*
Y-4170D01*
X178739Y-3770D01*
X179139Y-3370D01*
Y-2970D01*
X178739D01*
X178339Y-3370D01*
X177939Y-2970D01*
X177539D01*
Y-3370D01*
X177939Y-3770D01*
X177539Y-4170D01*
Y-4570D01*
X-171000Y-30422D02*
X-171800Y-28822D01*
X-170200D01*
X-171000Y-30422D01*
Y-22548D02*
X-171800Y-20948D01*
X-170200D01*
X-171000Y-22548D01*
Y-14674D02*
X-171800Y-13074D01*
X-170200D01*
X-171000Y-14674D01*
Y-6800D02*
X-171800Y-5200D01*
X-170200D01*
X-171000Y-6800D01*
Y1074D02*
X-171800Y2674D01*
X-170200D01*
X-171000Y1074D01*
Y8948D02*
X-171800Y10548D01*
X-170200D01*
X-171000Y8948D01*
Y34078D02*
X-171800Y35678D01*
X-170200D01*
X-171000Y34078D01*
Y41952D02*
X-171800Y43552D01*
X-170200D01*
X-171000Y41952D01*
Y49826D02*
X-171800Y51426D01*
X-170200D01*
X-171000Y49826D01*
Y57700D02*
X-171800Y59300D01*
X-170200D01*
X-171000Y57700D01*
Y65574D02*
X-171800Y67174D01*
X-170200D01*
X-171000Y65574D01*
Y73448D02*
X-171800Y75048D01*
X-170200D01*
X-171000Y73448D01*
X126000Y-41101D02*
X126400Y-40701D01*
X126800D01*
X126400Y-40301D01*
X126800Y-39901D01*
X126400D01*
X126000Y-39501D01*
X125600Y-39901D01*
X125200D01*
X125600Y-40301D01*
X125200Y-40701D01*
X125600D01*
X126000Y-41101D01*
Y-25550D02*
X126400Y-25150D01*
X126800D01*
X126400Y-24750D01*
X126800Y-24350D01*
X126400D01*
X126000Y-23950D01*
X125600Y-24350D01*
X125200D01*
X125600Y-24750D01*
X125200Y-25150D01*
X125600D01*
X126000Y-25550D01*
Y-77601D02*
X126400Y-77201D01*
X126800D01*
X126400Y-76801D01*
X126800Y-76401D01*
X126400D01*
X126000Y-76001D01*
X125600Y-76401D01*
X125200D01*
X125600Y-76801D01*
X125200Y-77201D01*
X125600D01*
X126000Y-77601D01*
Y-62050D02*
X126400Y-61650D01*
X126800D01*
X126400Y-61250D01*
X126800Y-60850D01*
X126400D01*
X126000Y-60450D01*
X125600Y-60850D01*
X125200D01*
X125600Y-61250D01*
X125200Y-61650D01*
X125600D01*
X126000Y-62050D01*
X-95300Y-97750D02*
X-94500Y-96950D01*
X-93700Y-97750D01*
X-94500Y-98550D01*
X-95300Y-97750D01*
X-59867D02*
X-59067Y-96950D01*
X-58267Y-97750D01*
X-59067Y-98550D01*
X-59867Y-97750D01*
X-77583D02*
X-76784Y-96950D01*
X-75984Y-97750D01*
X-76784Y-98550D01*
X-77583Y-97750D01*
X176452Y-96548D02*
Y-94948D01*
X178052D01*
Y-96548D01*
X176452D01*
X176852Y-96148D02*
Y-95348D01*
X177652D01*
Y-96148D01*
X176852D01*
X-178052Y-96548D02*
Y-94948D01*
X-176452D01*
Y-96548D01*
X-178052D01*
X-177652Y-96148D02*
Y-95348D01*
X-176852D01*
Y-96148D01*
X-177652D01*
X-97250Y-9550D02*
X-98050Y-7950D01*
X-96450D01*
X-97250Y-9550D01*
Y-9150D02*
X-97650Y-8350D01*
X-96850D01*
X-97250Y-9150D01*
Y-12550D02*
X-98050Y-10950D01*
X-96450D01*
X-97250Y-12550D01*
Y-12150D02*
X-97650Y-11350D01*
X-96850D01*
X-97250Y-12150D01*
Y-15550D02*
X-98050Y-13950D01*
X-96450D01*
X-97250Y-15550D01*
Y-15150D02*
X-97650Y-14350D01*
X-96850D01*
X-97250Y-15150D01*
Y-18800D02*
X-98050Y-17200D01*
X-96450D01*
X-97250Y-18800D01*
Y-18400D02*
X-97650Y-17600D01*
X-96850D01*
X-97250Y-18400D01*
Y-22300D02*
X-98050Y-20700D01*
X-96450D01*
X-97250Y-22300D01*
Y-21900D02*
X-97650Y-21100D01*
X-96850D01*
X-97250Y-21900D01*
X-100250Y-23300D02*
X-101050Y-21700D01*
X-99450D01*
X-100250Y-23300D01*
Y-22900D02*
X-100650Y-22100D01*
X-99850D01*
X-100250Y-22900D01*
Y-19800D02*
X-101050Y-18200D01*
X-99450D01*
X-100250Y-19800D01*
Y-19400D02*
X-100650Y-18600D01*
X-99850D01*
X-100250Y-19400D01*
Y-16550D02*
X-101050Y-14950D01*
X-99450D01*
X-100250Y-16550D01*
Y-16150D02*
X-100650Y-15350D01*
X-99850D01*
X-100250Y-16150D01*
Y-13550D02*
X-101050Y-11950D01*
X-99450D01*
X-100250Y-13550D01*
Y-13150D02*
X-100650Y-12350D01*
X-99850D01*
X-100250Y-13150D01*
Y-10550D02*
X-101050Y-8950D01*
X-99450D01*
X-100250Y-10550D01*
Y-10150D02*
X-100650Y-9350D01*
X-99850D01*
X-100250Y-10150D01*
X-45500Y-21800D02*
X-46300Y-20200D01*
X-44700D01*
X-45500Y-21800D01*
Y-21400D02*
X-45900Y-20600D01*
X-45100D01*
X-45500Y-21400D01*
Y-18300D02*
X-46300Y-16700D01*
X-44700D01*
X-45500Y-18300D01*
Y-17900D02*
X-45900Y-17100D01*
X-45100D01*
X-45500Y-17900D01*
Y-15050D02*
X-46300Y-13450D01*
X-44700D01*
X-45500Y-15050D01*
Y-14650D02*
X-45900Y-13850D01*
X-45100D01*
X-45500Y-14650D01*
Y-12050D02*
X-46300Y-10450D01*
X-44700D01*
X-45500Y-12050D01*
Y-11650D02*
X-45900Y-10850D01*
X-45100D01*
X-45500Y-11650D01*
Y-9050D02*
X-46300Y-7450D01*
X-44700D01*
X-45500Y-9050D01*
Y-8650D02*
X-45900Y-7850D01*
X-45100D01*
X-45500Y-8650D01*
X-48500Y-21800D02*
X-49300Y-20200D01*
X-47700D01*
X-48500Y-21800D01*
Y-21400D02*
X-48900Y-20600D01*
X-48100D01*
X-48500Y-21400D01*
Y-18300D02*
X-49300Y-16700D01*
X-47700D01*
X-48500Y-18300D01*
Y-17900D02*
X-48900Y-17100D01*
X-48100D01*
X-48500Y-17900D01*
Y-15050D02*
X-49300Y-13450D01*
X-47700D01*
X-48500Y-15050D01*
Y-14650D02*
X-48900Y-13850D01*
X-48100D01*
X-48500Y-14650D01*
Y-12050D02*
X-49300Y-10450D01*
X-47700D01*
X-48500Y-12050D01*
Y-11650D02*
X-48900Y-10850D01*
X-48100D01*
X-48500Y-11650D01*
Y-9050D02*
X-49300Y-7450D01*
X-47700D01*
X-48500Y-9050D01*
Y-8650D02*
X-48900Y-7850D01*
X-48100D01*
X-48500Y-8650D01*
X7250Y-9300D02*
X6450Y-7700D01*
X8050D01*
X7250Y-9300D01*
Y-8900D02*
X6850Y-8100D01*
X7650D01*
X7250Y-8900D01*
Y-12050D02*
X6450Y-10450D01*
X8050D01*
X7250Y-12050D01*
Y-11650D02*
X6850Y-10850D01*
X7650D01*
X7250Y-11650D01*
Y-15050D02*
X6450Y-13450D01*
X8050D01*
X7250Y-15050D01*
Y-14650D02*
X6850Y-13850D01*
X7650D01*
X7250Y-14650D01*
Y-18050D02*
X6450Y-16450D01*
X8050D01*
X7250Y-18050D01*
Y-17650D02*
X6850Y-16850D01*
X7650D01*
X7250Y-17650D01*
Y-21050D02*
X6450Y-19450D01*
X8050D01*
X7250Y-21050D01*
Y-20650D02*
X6850Y-19850D01*
X7650D01*
X7250Y-20650D01*
X4250Y-21050D02*
X3450Y-19450D01*
X5050D01*
X4250Y-21050D01*
Y-20650D02*
X3850Y-19850D01*
X4650D01*
X4250Y-20650D01*
Y-18050D02*
X3450Y-16450D01*
X5050D01*
X4250Y-18050D01*
Y-17650D02*
X3850Y-16850D01*
X4650D01*
X4250Y-17650D01*
Y-15050D02*
X3450Y-13450D01*
X5050D01*
X4250Y-15050D01*
Y-14650D02*
X3850Y-13850D01*
X4650D01*
X4250Y-14650D01*
Y-12050D02*
X3450Y-10450D01*
X5050D01*
X4250Y-12050D01*
Y-11650D02*
X3850Y-10850D01*
X4650D01*
X4250Y-11650D01*
Y-9300D02*
X3450Y-7700D01*
X5050D01*
X4250Y-9300D01*
Y-8900D02*
X3850Y-8100D01*
X4650D01*
X4250Y-8900D01*
X58250Y-21050D02*
X57450Y-19450D01*
X59050D01*
X58250Y-21050D01*
Y-20650D02*
X57850Y-19850D01*
X58650D01*
X58250Y-20650D01*
Y-18050D02*
X57450Y-16450D01*
X59050D01*
X58250Y-18050D01*
Y-17650D02*
X57850Y-16850D01*
X58650D01*
X58250Y-17650D01*
Y-15050D02*
X57450Y-13450D01*
X59050D01*
X58250Y-15050D01*
Y-14650D02*
X57850Y-13850D01*
X58650D01*
X58250Y-14650D01*
Y-12050D02*
X57450Y-10450D01*
X59050D01*
X58250Y-12050D01*
Y-11650D02*
X57850Y-10850D01*
X58650D01*
X58250Y-11650D01*
Y-9300D02*
X57450Y-7700D01*
X59050D01*
X58250Y-9300D01*
Y-8900D02*
X57850Y-8100D01*
X58650D01*
X58250Y-8900D01*
X55250Y-21050D02*
X54450Y-19450D01*
X56050D01*
X55250Y-21050D01*
Y-20650D02*
X54850Y-19850D01*
X55650D01*
X55250Y-20650D01*
Y-18050D02*
X54450Y-16450D01*
X56050D01*
X55250Y-18050D01*
Y-17650D02*
X54850Y-16850D01*
X55650D01*
X55250Y-17650D01*
Y-15050D02*
X54450Y-13450D01*
X56050D01*
X55250Y-15050D01*
Y-14650D02*
X54850Y-13850D01*
X55650D01*
X55250Y-14650D01*
Y-12050D02*
X54450Y-10450D01*
X56050D01*
X55250Y-12050D01*
Y-11650D02*
X54850Y-10850D01*
X55650D01*
X55250Y-11650D01*
Y-9300D02*
X54450Y-7700D01*
X56050D01*
X55250Y-9300D01*
Y-8900D02*
X54850Y-8100D01*
X55650D01*
X55250Y-8900D01*
X-56500Y-1300D02*
X-57300Y300D01*
X-55700D01*
X-56500Y-1300D01*
Y-900D02*
X-56900Y-100D01*
X-56100D01*
X-56500Y-900D01*
X-53250Y-1300D02*
X-54050Y300D01*
X-52450D01*
X-53250Y-1300D01*
Y-900D02*
X-53650Y-100D01*
X-52850D01*
X-53250Y-900D01*
X-50000Y-1300D02*
X-50800Y300D01*
X-49200D01*
X-50000Y-1300D01*
Y-900D02*
X-50400Y-100D01*
X-49600D01*
X-50000Y-900D01*
X-46500Y-1300D02*
X-47300Y300D01*
X-45700D01*
X-46500Y-1300D01*
Y-900D02*
X-46900Y-100D01*
X-46100D01*
X-46500Y-900D01*
X-48250Y950D02*
X-49050Y2550D01*
X-47450D01*
X-48250Y950D01*
Y1350D02*
X-48650Y2150D01*
X-47850D01*
X-48250Y1350D01*
X-51500Y950D02*
X-52300Y2550D01*
X-50700D01*
X-51500Y950D01*
Y1350D02*
X-51900Y2150D01*
X-51100D01*
X-51500Y1350D01*
X-54750Y950D02*
X-55550Y2550D01*
X-53950D01*
X-54750Y950D01*
Y1350D02*
X-55150Y2150D01*
X-54350D01*
X-54750Y1350D01*
X-2500Y950D02*
X-3300Y2550D01*
X-1700D01*
X-2500Y950D01*
Y1350D02*
X-2900Y2150D01*
X-2100D01*
X-2500Y1350D01*
X750Y950D02*
X-50Y2550D01*
X1550D01*
X750Y950D01*
Y1350D02*
X350Y2150D01*
X1150D01*
X750Y1350D01*
X4000Y950D02*
X3200Y2550D01*
X4800D01*
X4000Y950D01*
Y1350D02*
X3600Y2150D01*
X4400D01*
X4000Y1350D01*
X5750Y-1300D02*
X4950Y300D01*
X6550D01*
X5750Y-1300D01*
Y-900D02*
X5350Y-100D01*
X6150D01*
X5750Y-900D01*
X2250Y-1300D02*
X1450Y300D01*
X3050D01*
X2250Y-1300D01*
Y-900D02*
X1850Y-100D01*
X2650D01*
X2250Y-900D01*
X-1000Y-1300D02*
X-1800Y300D01*
X-200D01*
X-1000Y-1300D01*
Y-900D02*
X-1400Y-100D01*
X-600D01*
X-1000Y-900D01*
X-4250Y-1300D02*
X-5050Y300D01*
X-3450D01*
X-4250Y-1300D01*
Y-900D02*
X-4650Y-100D01*
X-3850D01*
X-4250Y-900D01*
X49750Y700D02*
X48950Y2300D01*
X50550D01*
X49750Y700D01*
Y1100D02*
X49350Y1900D01*
X50150D01*
X49750Y1100D01*
X53000Y700D02*
X52200Y2300D01*
X53800D01*
X53000Y700D01*
Y1100D02*
X52600Y1900D01*
X53400D01*
X53000Y1100D01*
X56250Y700D02*
X55450Y2300D01*
X57050D01*
X56250Y700D01*
Y1100D02*
X55850Y1900D01*
X56650D01*
X56250Y1100D01*
X58000Y-1550D02*
X57200Y50D01*
X58800D01*
X58000Y-1550D01*
Y-1150D02*
X57600Y-350D01*
X58400D01*
X58000Y-1150D01*
X54500Y-1550D02*
X53700Y50D01*
X55300D01*
X54500Y-1550D01*
Y-1150D02*
X54100Y-350D01*
X54900D01*
X54500Y-1150D01*
X51250Y-1550D02*
X50450Y50D01*
X52050D01*
X51250Y-1550D01*
Y-1150D02*
X50850Y-350D01*
X51650D01*
X51250Y-1150D01*
X48000Y-1550D02*
X47200Y50D01*
X48800D01*
X48000Y-1550D01*
Y-1150D02*
X47600Y-350D01*
X48400D01*
X48000Y-1150D01*
X97750Y450D02*
X96950Y2050D01*
X98550D01*
X97750Y450D01*
Y850D02*
X97350Y1650D01*
X98150D01*
X97750Y850D01*
X101000Y450D02*
X100200Y2050D01*
X101800D01*
X101000Y450D01*
Y850D02*
X100600Y1650D01*
X101400D01*
X101000Y850D01*
X99250Y2700D02*
X98450Y4300D01*
X100050D01*
X99250Y2700D01*
Y3100D02*
X98850Y3900D01*
X99650D01*
X99250Y3100D01*
X102500Y-1800D02*
X101700Y-200D01*
X103300D01*
X102500Y-1800D01*
Y-1400D02*
X102100Y-600D01*
X102900D01*
X102500Y-1400D01*
X99250Y-1800D02*
X98450Y-200D01*
X100050D01*
X99250Y-1800D01*
Y-1400D02*
X98850Y-600D01*
X99650D01*
X99250Y-1400D01*
X96000Y-1800D02*
X95200Y-200D01*
X96800D01*
X96000Y-1800D01*
Y-1400D02*
X95600Y-600D01*
X96400D01*
X96000Y-1400D01*
X-128000Y98700D02*
X-128800Y100300D01*
X-127200D01*
X-128000Y98700D01*
Y99100D02*
X-128400Y99900D01*
X-127600D01*
X-128000Y99100D01*
X-124500Y98700D02*
X-125300Y100300D01*
X-123700D01*
X-124500Y98700D01*
Y99100D02*
X-124900Y99900D01*
X-124100D01*
X-124500Y99100D01*
X-121250Y98700D02*
X-122050Y100300D01*
X-120450D01*
X-121250Y98700D01*
Y99100D02*
X-121650Y99900D01*
X-120850D01*
X-121250Y99100D01*
X-117750Y98700D02*
X-118550Y100300D01*
X-116950D01*
X-117750Y98700D01*
Y99100D02*
X-118150Y99900D01*
X-117350D01*
X-117750Y99100D01*
X-114000Y98700D02*
X-114800Y100300D01*
X-113200D01*
X-114000Y98700D01*
Y99100D02*
X-114400Y99900D01*
X-113600D01*
X-114000Y99100D01*
X-118250Y49450D02*
X-119050Y51050D01*
X-117450D01*
X-118250Y49450D01*
Y49850D02*
X-118650Y50650D01*
X-117850D01*
X-118250Y49850D01*
X-114750Y49450D02*
X-115550Y51050D01*
X-113950D01*
X-114750Y49450D01*
Y49850D02*
X-115150Y50650D01*
X-114350D01*
X-114750Y49850D01*
X-110750Y49450D02*
X-111550Y51050D01*
X-109950D01*
X-110750Y49450D01*
Y49850D02*
X-111150Y50650D01*
X-110350D01*
X-110750Y49850D01*
X-118250Y46200D02*
X-119050Y47800D01*
X-117450D01*
X-118250Y46200D01*
Y46600D02*
X-118650Y47400D01*
X-117850D01*
X-118250Y46600D01*
X-114750Y46200D02*
X-115550Y47800D01*
X-113950D01*
X-114750Y46200D01*
Y46600D02*
X-115150Y47400D01*
X-114350D01*
X-114750Y46600D01*
X-110750Y46200D02*
X-111550Y47800D01*
X-109950D01*
X-110750Y46200D01*
Y46600D02*
X-111150Y47400D01*
X-110350D01*
X-110750Y46600D01*
X-107250Y49450D02*
X-108050Y51050D01*
X-106450D01*
X-107250Y49450D01*
Y49850D02*
X-107650Y50650D01*
X-106850D01*
X-107250Y49850D01*
Y46200D02*
X-108050Y47800D01*
X-106450D01*
X-107250Y46200D01*
Y46600D02*
X-107650Y47400D01*
X-106850D01*
X-107250Y46600D01*
X46750Y44450D02*
X45950Y46050D01*
X47550D01*
X46750Y44450D01*
Y44850D02*
X46350Y45650D01*
X47150D01*
X46750Y44850D01*
Y47700D02*
X45950Y49300D01*
X47550D01*
X46750Y47700D01*
Y48100D02*
X46350Y48900D01*
X47150D01*
X46750Y48100D01*
X43250Y44450D02*
X42450Y46050D01*
X44050D01*
X43250Y44450D01*
Y44850D02*
X42850Y45650D01*
X43650D01*
X43250Y44850D01*
X39250Y44450D02*
X38450Y46050D01*
X40050D01*
X39250Y44450D01*
Y44850D02*
X38850Y45650D01*
X39650D01*
X39250Y44850D01*
X35750Y44450D02*
X34950Y46050D01*
X36550D01*
X35750Y44450D01*
Y44850D02*
X35350Y45650D01*
X36150D01*
X35750Y44850D01*
X43250Y47700D02*
X42450Y49300D01*
X44050D01*
X43250Y47700D01*
Y48100D02*
X42850Y48900D01*
X43650D01*
X43250Y48100D01*
X39250Y47700D02*
X38450Y49300D01*
X40050D01*
X39250Y47700D01*
Y48100D02*
X38850Y48900D01*
X39650D01*
X39250Y48100D01*
X35750Y47700D02*
X34950Y49300D01*
X36550D01*
X35750Y47700D01*
Y48100D02*
X35350Y48900D01*
X36150D01*
X35750Y48100D01*
X1000Y34450D02*
X200Y36050D01*
X1800D01*
X1000Y34450D01*
Y34850D02*
X600Y35650D01*
X1400D01*
X1000Y34850D01*
X5000Y34450D02*
X4200Y36050D01*
X5800D01*
X5000Y34450D01*
Y34850D02*
X4600Y35650D01*
X5400D01*
X5000Y34850D01*
X8750Y34450D02*
X7950Y36050D01*
X9550D01*
X8750Y34450D01*
Y34850D02*
X8350Y35650D01*
X9150D01*
X8750Y34850D01*
X12500Y34450D02*
X11700Y36050D01*
X13300D01*
X12500Y34450D01*
Y34850D02*
X12100Y35650D01*
X12900D01*
X12500Y34850D01*
X86500Y48700D02*
X85700Y50300D01*
X87300D01*
X86500Y48700D01*
Y49100D02*
X86100Y49900D01*
X86900D01*
X86500Y49100D01*
Y44450D02*
X85700Y46050D01*
X87300D01*
X86500Y44450D01*
Y44850D02*
X86100Y45650D01*
X86900D01*
X86500Y44850D01*
X-35000Y38950D02*
X-35800Y40550D01*
X-34200D01*
X-35000Y38950D01*
Y39350D02*
X-35400Y40150D01*
X-34600D01*
X-35000Y39350D01*
X-31750Y38950D02*
X-32550Y40550D01*
X-30950D01*
X-31750Y38950D01*
Y39350D02*
X-32150Y40150D01*
X-31350D01*
X-31750Y39350D01*
X-28500Y38950D02*
X-29300Y40550D01*
X-27700D01*
X-28500Y38950D01*
Y39350D02*
X-28900Y40150D01*
X-28100D01*
X-28500Y39350D01*
X-126000Y26950D02*
X-126800Y28550D01*
X-125200D01*
X-126000Y26950D01*
Y27350D02*
X-126400Y28150D01*
X-125600D01*
X-126000Y27350D01*
Y28950D02*
X-126800Y30550D01*
X-125200D01*
X-126000Y28950D01*
Y29350D02*
X-126400Y30150D01*
X-125600D01*
X-126000Y29350D01*
X-99492Y13958D02*
X-99092Y14358D01*
X-98692D01*
X-99092Y14758D01*
X-98692Y15158D01*
X-99092D01*
X-99492Y15558D01*
X-99892Y15158D01*
X-100292D01*
X-99892Y14758D01*
X-100292Y14358D01*
X-99892D01*
X-99492Y13958D01*
Y14358D02*
X-99292Y14558D01*
X-99092D01*
X-99292Y14758D01*
X-99092Y14958D01*
X-99292D01*
X-99492Y15158D01*
X-99692Y14958D01*
X-99892D01*
X-99692Y14758D01*
X-99892Y14558D01*
X-99692D01*
X-99492Y14358D01*
X-48250Y13700D02*
X-47850Y14100D01*
X-47450D01*
X-47850Y14500D01*
X-47450Y14900D01*
X-47850D01*
X-48250Y15300D01*
X-48650Y14900D01*
X-49050D01*
X-48650Y14500D01*
X-49050Y14100D01*
X-48650D01*
X-48250Y13700D01*
Y14100D02*
X-48050Y14300D01*
X-47850D01*
X-48050Y14500D01*
X-47850Y14700D01*
X-48050D01*
X-48250Y14900D01*
X-48450Y14700D01*
X-48650D01*
X-48450Y14500D01*
X-48650Y14300D01*
X-48450D01*
X-48250Y14100D01*
X3258Y13708D02*
X3658Y14108D01*
X4058D01*
X3658Y14508D01*
X4058Y14908D01*
X3658D01*
X3258Y15308D01*
X2858Y14908D01*
X2458D01*
X2858Y14508D01*
X2458Y14108D01*
X2858D01*
X3258Y13708D01*
Y14108D02*
X3458Y14308D01*
X3658D01*
X3458Y14508D01*
X3658Y14708D01*
X3458D01*
X3258Y14908D01*
X3058Y14708D01*
X2858D01*
X3058Y14508D01*
X2858Y14308D01*
X3058D01*
X3258Y14108D01*
X55254Y13704D02*
X55654Y14104D01*
X56054D01*
X55654Y14504D01*
X56054Y14904D01*
X55654D01*
X55254Y15304D01*
X54854Y14904D01*
X54454D01*
X54854Y14504D01*
X54454Y14104D01*
X54854D01*
X55254Y13704D01*
Y14104D02*
X55454Y14304D01*
X55654D01*
X55454Y14504D01*
X55654Y14704D01*
X55454D01*
X55254Y14904D01*
X55054Y14704D01*
X54854D01*
X55054Y14504D01*
X54854Y14304D01*
X55054D01*
X55254Y14104D01*
X-72750Y21700D02*
X-73550Y23300D01*
X-71950D01*
X-72750Y21700D01*
Y22100D02*
X-73150Y22900D01*
X-72350D01*
X-72750Y22100D01*
X-21500Y21700D02*
X-22300Y23300D01*
X-20700D01*
X-21500Y21700D01*
Y22100D02*
X-21900Y22900D01*
X-21100D01*
X-21500Y22100D01*
X31750Y21700D02*
X30950Y23300D01*
X32550D01*
X31750Y21700D01*
Y22100D02*
X31350Y22900D01*
X32150D01*
X31750Y22100D01*
X-151750Y39950D02*
X-152550Y41550D01*
X-150950D01*
X-151750Y39950D01*
Y40350D02*
X-152150Y41150D01*
X-151350D01*
X-151750Y40350D01*
X-78857Y36257D02*
X-78457Y37057D01*
X-78857Y37857D01*
X-78057Y37457D01*
X-77257Y37857D01*
X-77657Y37057D01*
X-77257Y36257D01*
X-78057Y36657D01*
X-78857Y36257D01*
X-78457Y36657D02*
X-78257Y37057D01*
X-78457Y37457D01*
X-78057Y37257D01*
X-77657Y37457D01*
X-77857Y37057D01*
X-77657Y36657D01*
X-78057Y36857D01*
X-78457Y36657D01*
X132250Y-3300D02*
X131450Y-1700D01*
X133050D01*
X132250Y-3300D01*
Y-2900D02*
X131850Y-2100D01*
X132650D01*
X132250Y-2900D01*
X173600Y-61650D02*
Y-62050D01*
X174400D01*
Y-61650D01*
X174800D01*
Y-60850D01*
X174400D01*
Y-60450D01*
X173600D01*
Y-60850D01*
X173200D01*
Y-61650D01*
X173600D01*
X173800Y-61450D02*
Y-61650D01*
X174200D01*
Y-61450D01*
X174400D01*
Y-61050D01*
X174200D01*
Y-60850D01*
X173800D01*
Y-61050D01*
X173600D01*
Y-61450D01*
X173800D01*
X159549Y-77201D02*
Y-77601D01*
X160349D01*
Y-77201D01*
X160749D01*
Y-76401D01*
X160349D01*
Y-76001D01*
X159549D01*
Y-76401D01*
X159149D01*
Y-77201D01*
X159549D01*
X159749Y-77001D02*
Y-77201D01*
X160149D01*
Y-77001D01*
X160349D01*
Y-76601D01*
X160149D01*
Y-76401D01*
X159749D01*
Y-76601D01*
X159549D01*
Y-77001D01*
X159749D01*
X82250Y21700D02*
X81450Y23300D01*
X83050D01*
X82250Y21700D01*
Y22100D02*
X81850Y22900D01*
X82650D01*
X82250Y22100D01*
X147350Y-12150D02*
Y-12550D01*
X148150D01*
Y-12150D01*
X148550D01*
Y-11350D01*
X148150D01*
Y-10950D01*
X147350D01*
Y-11350D01*
X146950D01*
Y-12150D01*
X147350D01*
X147550Y-11950D02*
Y-12150D01*
X147950D01*
Y-11950D01*
X148150D01*
Y-11550D01*
X147950D01*
Y-11350D01*
X147550D01*
Y-11550D01*
X147350D01*
Y-11950D01*
X147550D01*
X156901Y-40701D02*
Y-41101D01*
X157701D01*
Y-40701D01*
X158101D01*
Y-39901D01*
X157701D01*
Y-39501D01*
X156901D01*
Y-39901D01*
X156501D01*
Y-40701D01*
X156901D01*
X157101Y-40501D02*
Y-40701D01*
X157501D01*
Y-40501D01*
X157701D01*
Y-40101D01*
X157501D01*
Y-39901D01*
X157101D01*
Y-40101D01*
X156901D01*
Y-40501D01*
X157101D01*
X-147750Y-39800D02*
X-148550Y-38200D01*
X-146950D01*
X-147750Y-39800D01*
Y-39400D02*
X-148150Y-38600D01*
X-147350D01*
X-147750Y-39400D01*
X211350Y-73850D02*
X210750Y-72650D01*
X211950D01*
X211350Y-73850D01*
Y-73650D02*
X210950Y-72850D01*
X211750D01*
X211350Y-73650D01*
Y-76850D02*
X211650Y-76550D01*
X211950D01*
X211650Y-76250D01*
X211950Y-75950D01*
X211650D01*
X211350Y-75650D01*
X211050Y-75950D01*
X210750D01*
X211050Y-76250D01*
X210750Y-76550D01*
X211050D01*
X211350Y-76850D01*
Y-76650D02*
X211550Y-76450D01*
X211750D01*
X211550Y-76250D01*
X211750Y-76050D01*
X211550D01*
X211350Y-75850D01*
X211150Y-76050D01*
X210950D01*
X211150Y-76250D01*
X210950Y-76450D01*
X211150D01*
X211350Y-76650D01*
X210750Y-79850D02*
Y-78650D01*
X211950D01*
Y-79850D01*
X210750D01*
Y-82850D02*
X211050Y-82250D01*
X210750Y-81650D01*
X211350Y-81950D01*
X211950Y-81650D01*
X211650Y-82250D01*
X211950Y-82850D01*
X211350Y-82550D01*
X210750Y-82850D01*
X210950Y-82650D02*
X211150Y-82250D01*
X210950Y-81850D01*
X211350Y-82050D01*
X211750Y-81850D01*
X211550Y-82250D01*
X211750Y-82650D01*
X211350Y-82450D01*
X210950Y-82650D01*
X211050Y-85550D02*
Y-85850D01*
X211650D01*
Y-85550D01*
X211950D01*
Y-84950D01*
X211650D01*
Y-84650D01*
X211050D01*
Y-84950D01*
X210750D01*
Y-85550D01*
X211050D01*
X211150Y-85450D02*
Y-85650D01*
X211550D01*
Y-85450D01*
X211750D01*
Y-85050D01*
X211550D01*
Y-84850D01*
X211150D01*
Y-85050D01*
X210950D01*
Y-85450D01*
X211150D01*
X210750Y-88850D02*
X211050D01*
X211350Y-88550D01*
X211650Y-88850D01*
X211950D01*
Y-88550D01*
X211650Y-88250D01*
X211950Y-87950D01*
Y-87650D01*
X211650D01*
X211350Y-87950D01*
X211050Y-87650D01*
X210750D01*
Y-87950D01*
X211050Y-88250D01*
X210750Y-88550D01*
Y-88850D01*
X211350Y-91850D02*
X210750Y-90650D01*
X211950D01*
X211350Y-91850D01*
Y-94850D02*
X211650Y-94550D01*
X211950D01*
X211650Y-94250D01*
X211950Y-93950D01*
X211650D01*
X211350Y-93650D01*
X211050Y-93950D01*
X210750D01*
X211050Y-94250D01*
X210750Y-94550D01*
X211050D01*
X211350Y-94850D01*
X211950Y-97250D02*
G03*
X211950Y-97250I-600J0D01*
G01*
X210750Y-100850D02*
Y-99650D01*
X211950D01*
Y-100850D01*
X210750D01*
X210950Y-100650D02*
Y-99850D01*
X211750D01*
Y-100650D01*
X210950D01*
X211950Y-103250D02*
G03*
X211950Y-103250I-600J0D01*
G01*
X211050Y-106550D02*
Y-106850D01*
X211650D01*
Y-106550D01*
X211950D01*
Y-105950D01*
X211650D01*
Y-105650D01*
X211050D01*
Y-105950D01*
X210750D01*
Y-106550D01*
X211050D01*
X210750Y-109850D02*
X211050Y-109250D01*
X210750Y-108650D01*
X211350Y-108950D01*
X211950Y-108650D01*
X211650Y-109250D01*
X211950Y-109850D01*
X211350Y-109550D01*
X210750Y-109850D01*
Y-112250D02*
X211350Y-111650D01*
X211950Y-112250D01*
X211350Y-112850D01*
X210750Y-112250D01*
D15*
X157550Y81250D02*
G03*
X157550Y81250I-800J0D01*
G01*
Y29478D02*
G03*
X157550Y29478I-800J0D01*
G01*
X152548Y101252D02*
G03*
X152548Y101252I-800J0D01*
G01*
X-156448D02*
G03*
X-156448Y101252I-800J0D01*
G01*
D16*
X152148D02*
G03*
X152148Y101252I-400J0D01*
G01*
X-156848D02*
G03*
X-156848Y101252I-400J0D01*
G01*
X211750Y-103250D02*
G03*
X211750Y-103250I-400J0D01*
G01*
D17*
X211950Y-68901D02*
X211650Y-68601D01*
X211050D01*
X210750Y-68901D01*
Y-69200D01*
X211050Y-69500D01*
X211650D01*
X211950Y-69800D01*
Y-70100D01*
X211650Y-70400D01*
X211050D01*
X210750Y-70100D01*
X212549Y-69200D02*
Y-70100D01*
X212849Y-70400D01*
X213749D01*
Y-70700D01*
X213449Y-71000D01*
X213149D01*
X213749Y-70400D02*
Y-69200D01*
X214349Y-70400D02*
Y-69200D01*
X214649D01*
X214949Y-69500D01*
Y-70400D01*
Y-69500D01*
X215248Y-69200D01*
X215548Y-69500D01*
Y-70400D01*
X216148Y-68601D02*
Y-70400D01*
X217048D01*
X217348Y-70100D01*
Y-69800D01*
Y-69500D01*
X217048Y-69200D01*
X216148D01*
X218248Y-70400D02*
X218847D01*
X219147Y-70100D01*
Y-69500D01*
X218847Y-69200D01*
X218248D01*
X217948Y-69500D01*
Y-70100D01*
X218248Y-70400D01*
X219747D02*
X220347D01*
X220047D01*
Y-68601D01*
X219747D01*
X223587D02*
Y-70400D01*
Y-69500D01*
X224786D01*
Y-68601D01*
Y-70400D01*
X225386D02*
X225986D01*
X225686D01*
Y-69200D01*
X225386D01*
X227186Y-68901D02*
Y-69200D01*
X226886D01*
X227486D01*
X227186D01*
Y-70100D01*
X227486Y-70400D01*
X231384Y-68901D02*
X231084Y-68601D01*
X230485D01*
X230185Y-68901D01*
Y-70100D01*
X230485Y-70400D01*
X231084D01*
X231384Y-70100D01*
X232284Y-70400D02*
X232884D01*
X233184Y-70100D01*
Y-69500D01*
X232884Y-69200D01*
X232284D01*
X231984Y-69500D01*
Y-70100D01*
X232284Y-70400D01*
X233784Y-69200D02*
Y-70100D01*
X234084Y-70400D01*
X234983D01*
Y-69200D01*
X235583Y-70400D02*
Y-69200D01*
X236483D01*
X236783Y-69500D01*
Y-70400D01*
X237682Y-68901D02*
Y-69200D01*
X237383D01*
X237982D01*
X237682D01*
Y-70100D01*
X237982Y-70400D01*
X242422Y-68601D02*
X241222D01*
Y-69500D01*
X241822D01*
X241222D01*
Y-70400D01*
X243022D02*
X243621D01*
X243322D01*
Y-69200D01*
X243022D01*
X244521Y-70400D02*
Y-69200D01*
X245421D01*
X245721Y-69500D01*
Y-70400D01*
X246321D02*
X246920D01*
X246620D01*
Y-69200D01*
X246321D01*
X247820Y-70400D02*
X248720D01*
X249020Y-70100D01*
X248720Y-69800D01*
X248120D01*
X247820Y-69500D01*
X248120Y-69200D01*
X249020D01*
X249620Y-68601D02*
Y-70400D01*
Y-69500D01*
X249920Y-69200D01*
X250519D01*
X250819Y-69500D01*
Y-70400D01*
X252319D02*
X251719D01*
X251419Y-70100D01*
Y-69500D01*
X251719Y-69200D01*
X252319D01*
X252619Y-69500D01*
Y-69800D01*
X251419D01*
X254418Y-68601D02*
Y-70400D01*
X253518D01*
X253218Y-70100D01*
Y-69500D01*
X253518Y-69200D01*
X254418D01*
X256817Y-68601D02*
Y-70400D01*
Y-69500D01*
X258017D01*
Y-68601D01*
Y-70400D01*
X258917D02*
X259516D01*
X259816Y-70100D01*
Y-69500D01*
X259516Y-69200D01*
X258917D01*
X258617Y-69500D01*
Y-70100D01*
X258917Y-70400D01*
X260416D02*
X261016D01*
X260716D01*
Y-68601D01*
X260416D01*
X262815Y-70400D02*
X262215D01*
X261916Y-70100D01*
Y-69500D01*
X262215Y-69200D01*
X262815D01*
X263115Y-69500D01*
Y-69800D01*
X261916D01*
X266714Y-68901D02*
X266414Y-68601D01*
X265814D01*
X265514Y-68901D01*
Y-69200D01*
X265814Y-69500D01*
X266414D01*
X266714Y-69800D01*
Y-70100D01*
X266414Y-70400D01*
X265814D01*
X265514Y-70100D01*
X267314Y-70400D02*
X267914D01*
X267614D01*
Y-69200D01*
X267314D01*
X268813D02*
X270013D01*
X268813Y-70400D01*
X270013D01*
X271513D02*
X270913D01*
X270613Y-70100D01*
Y-69500D01*
X270913Y-69200D01*
X271513D01*
X271812Y-69500D01*
Y-69800D01*
X270613D01*
X275052Y-70400D02*
Y-68601D01*
X275952D01*
X276252Y-68901D01*
Y-69500D01*
X275952Y-69800D01*
X275052D01*
X276852Y-70400D02*
X277452D01*
X277152D01*
Y-68601D01*
X276852D01*
X278651Y-69200D02*
X279251D01*
X279551Y-69500D01*
Y-70400D01*
X278651D01*
X278351Y-70100D01*
X278651Y-69800D01*
X279551D01*
X280451Y-68901D02*
Y-69200D01*
X280151D01*
X280751D01*
X280451D01*
Y-70100D01*
X280751Y-70400D01*
X282550D02*
X281950D01*
X281650Y-70100D01*
Y-69500D01*
X281950Y-69200D01*
X282550D01*
X282850Y-69500D01*
Y-69800D01*
X281650D01*
X284649Y-68601D02*
Y-70400D01*
X283750D01*
X283450Y-70100D01*
Y-69500D01*
X283750Y-69200D01*
X284649D01*
X287889Y-68601D02*
Y-70400D01*
Y-69500D01*
X289089D01*
Y-68601D01*
Y-70400D01*
X289989D02*
X290588D01*
X290888Y-70100D01*
Y-69500D01*
X290588Y-69200D01*
X289989D01*
X289689Y-69500D01*
Y-70100D01*
X289989Y-70400D01*
X291488D02*
X292088D01*
X291788D01*
Y-68601D01*
X291488D01*
X293887Y-70400D02*
X293288D01*
X292988Y-70100D01*
Y-69500D01*
X293288Y-69200D01*
X293887D01*
X294187Y-69500D01*
Y-69800D01*
X292988D01*
X296586Y-68601D02*
X297786D01*
X297186D01*
Y-70400D01*
X298386Y-69200D02*
Y-70100D01*
X298686Y-70400D01*
X299586D01*
Y-70700D01*
X299286Y-71000D01*
X298986D01*
X299586Y-70400D02*
Y-69200D01*
X300185Y-71000D02*
Y-69200D01*
X301085D01*
X301385Y-69500D01*
Y-70100D01*
X301085Y-70400D01*
X300185D01*
X302885D02*
X302285D01*
X301985Y-70100D01*
Y-69500D01*
X302285Y-69200D01*
X302885D01*
X303184Y-69500D01*
Y-69800D01*
X301985D01*
X208470Y-67700D02*
X306424D01*
X208470Y-71750D02*
X306424D01*
X208470Y-67700D02*
Y-116750D01*
X306424Y-67700D02*
Y-116750D01*
X222447Y-67700D02*
Y-116750D01*
X240082Y-67700D02*
Y-116750D01*
X273912Y-67700D02*
Y-116750D01*
X286749Y-67700D02*
Y-116750D01*
X208470Y-113750D02*
X306424D01*
X208470Y-116750D02*
X306424D01*
D18*
X223587Y-74000D02*
X224087D01*
X223837D01*
Y-72500D01*
X223587Y-72750D01*
X224836D02*
X225086Y-72500D01*
X225586D01*
X225836Y-72750D01*
Y-73750D01*
X225586Y-74000D01*
X225086D01*
X224836Y-73750D01*
Y-72750D01*
X227336Y-72500D02*
X226836Y-72750D01*
X226336Y-73250D01*
Y-73750D01*
X226586Y-74000D01*
X227086D01*
X227336Y-73750D01*
Y-73500D01*
X227086Y-73250D01*
X226336D01*
X241222Y-74000D02*
X241722D01*
X241472D01*
Y-72500D01*
X241222Y-72750D01*
X242472D02*
X242722Y-72500D01*
X243222D01*
X243472Y-72750D01*
Y-73750D01*
X243222Y-74000D01*
X242722D01*
X242472Y-73750D01*
Y-72750D01*
X243971Y-74000D02*
Y-73000D01*
X244221D01*
X244471Y-73250D01*
Y-74000D01*
Y-73250D01*
X244721Y-73000D01*
X244971Y-73250D01*
Y-74000D01*
X245471D02*
X245971D01*
X245721D01*
Y-73000D01*
X245471D01*
X246721Y-74000D02*
X247220D01*
X246970D01*
Y-72500D01*
X246721D01*
X249970Y-74000D02*
X249470Y-73500D01*
Y-73000D01*
X249970Y-72500D01*
X250719Y-72750D02*
X250969Y-72500D01*
X251469D01*
X251719Y-72750D01*
Y-73750D01*
X251469Y-74000D01*
X250969D01*
X250719Y-73750D01*
Y-72750D01*
X252219Y-74000D02*
Y-73750D01*
X252469D01*
Y-74000D01*
X252219D01*
X254468D02*
X253468D01*
X254468Y-73000D01*
Y-72750D01*
X254218Y-72500D01*
X253718D01*
X253468Y-72750D01*
X255968Y-72500D02*
X254968D01*
Y-73250D01*
X255468Y-73000D01*
X255718D01*
X255968Y-73250D01*
Y-73750D01*
X255718Y-74000D01*
X255218D01*
X254968Y-73750D01*
X257217Y-74000D02*
Y-72500D01*
X256467Y-73250D01*
X257467D01*
X257967Y-74000D02*
Y-73000D01*
X258217D01*
X258467Y-73250D01*
Y-74000D01*
Y-73250D01*
X258717Y-73000D01*
X258967Y-73250D01*
Y-74000D01*
X259466D02*
Y-73000D01*
X259716D01*
X259966Y-73250D01*
Y-74000D01*
Y-73250D01*
X260216Y-73000D01*
X260466Y-73250D01*
Y-74000D01*
X260966D02*
X261466Y-73500D01*
Y-73000D01*
X260966Y-72500D01*
X275052Y-74000D02*
Y-72500D01*
X275802D01*
X276052Y-72750D01*
Y-73250D01*
X275802Y-73500D01*
X275052D01*
X276552Y-72500D02*
X277552D01*
X277052D01*
Y-74000D01*
X278051Y-72500D02*
Y-74000D01*
Y-73250D01*
X279051D01*
Y-72500D01*
Y-74000D01*
X287889D02*
Y-72500D01*
X288639D01*
X288889Y-72750D01*
Y-73250D01*
X288639Y-73500D01*
X287889D01*
X288389D02*
X288889Y-74000D01*
X289639D02*
X290139D01*
X290388Y-73750D01*
Y-73250D01*
X290139Y-73000D01*
X289639D01*
X289389Y-73250D01*
Y-73750D01*
X289639Y-74000D01*
X290888Y-73000D02*
Y-73750D01*
X291138Y-74000D01*
X291888D01*
Y-73000D01*
X292388Y-74000D02*
Y-73000D01*
X293138D01*
X293388Y-73250D01*
Y-74000D01*
X294887Y-72500D02*
Y-74000D01*
X294137D01*
X293887Y-73750D01*
Y-73250D01*
X294137Y-73000D01*
X294887D01*
X224337Y-77000D02*
Y-75501D01*
X223587Y-76250D01*
X224587D01*
X241222Y-77000D02*
X241722D01*
X241472D01*
Y-75501D01*
X241222Y-75750D01*
X243472Y-75501D02*
X242472D01*
Y-76250D01*
X242972Y-76000D01*
X243222D01*
X243472Y-76250D01*
Y-76750D01*
X243222Y-77000D01*
X242722D01*
X242472Y-76750D01*
X243971Y-77000D02*
Y-76000D01*
X244221D01*
X244471Y-76250D01*
Y-77000D01*
Y-76250D01*
X244721Y-76000D01*
X244971Y-76250D01*
Y-77000D01*
X245471D02*
X245971D01*
X245721D01*
Y-76000D01*
X245471D01*
X246721Y-77000D02*
X247220D01*
X246970D01*
Y-75501D01*
X246721D01*
X249970Y-77000D02*
X249470Y-76500D01*
Y-76000D01*
X249970Y-75501D01*
X250719Y-75750D02*
X250969Y-75501D01*
X251469D01*
X251719Y-75750D01*
Y-76750D01*
X251469Y-77000D01*
X250969D01*
X250719Y-76750D01*
Y-75750D01*
X252219Y-77000D02*
Y-76750D01*
X252469D01*
Y-77000D01*
X252219D01*
X253468Y-75750D02*
X253718Y-75501D01*
X254218D01*
X254468Y-75750D01*
Y-76000D01*
X254218Y-76250D01*
X253968D01*
X254218D01*
X254468Y-76500D01*
Y-76750D01*
X254218Y-77000D01*
X253718D01*
X253468Y-76750D01*
X254968Y-75750D02*
X255218Y-75501D01*
X255718D01*
X255968Y-75750D01*
Y-76000D01*
X255718Y-76250D01*
X255968Y-76500D01*
Y-76750D01*
X255718Y-77000D01*
X255218D01*
X254968Y-76750D01*
Y-76500D01*
X255218Y-76250D01*
X254968Y-76000D01*
Y-75750D01*
X255218Y-76250D02*
X255718D01*
X256467Y-77000D02*
X256967D01*
X256717D01*
Y-75501D01*
X256467Y-75750D01*
X257717Y-77000D02*
Y-76000D01*
X257967D01*
X258217Y-76250D01*
Y-77000D01*
Y-76250D01*
X258467Y-76000D01*
X258717Y-76250D01*
Y-77000D01*
X259216D02*
Y-76000D01*
X259466D01*
X259716Y-76250D01*
Y-77000D01*
Y-76250D01*
X259966Y-76000D01*
X260216Y-76250D01*
Y-77000D01*
X260716D02*
X261216Y-76500D01*
Y-76000D01*
X260716Y-75501D01*
X275052Y-77000D02*
Y-75501D01*
X275802D01*
X276052Y-75750D01*
Y-76250D01*
X275802Y-76500D01*
X275052D01*
X276552Y-75501D02*
X277552D01*
X277052D01*
Y-77000D01*
X278051Y-75501D02*
Y-77000D01*
Y-76250D01*
X279051D01*
Y-75501D01*
Y-77000D01*
X287889D02*
Y-75501D01*
X288639D01*
X288889Y-75750D01*
Y-76250D01*
X288639Y-76500D01*
X287889D01*
X288389D02*
X288889Y-77000D01*
X289639D02*
X290139D01*
X290388Y-76750D01*
Y-76250D01*
X290139Y-76000D01*
X289639D01*
X289389Y-76250D01*
Y-76750D01*
X289639Y-77000D01*
X290888Y-76000D02*
Y-76750D01*
X291138Y-77000D01*
X291888D01*
Y-76000D01*
X292388Y-77000D02*
Y-76000D01*
X293138D01*
X293388Y-76250D01*
Y-77000D01*
X294887Y-75501D02*
Y-77000D01*
X294137D01*
X293887Y-76750D01*
Y-76250D01*
X294137Y-76000D01*
X294887D01*
X223587Y-80000D02*
X224087D01*
X223837D01*
Y-78500D01*
X223587Y-78750D01*
X224836D02*
X225086Y-78500D01*
X225586D01*
X225836Y-78750D01*
Y-79750D01*
X225586Y-80000D01*
X225086D01*
X224836Y-79750D01*
Y-78750D01*
X226336D02*
X226586Y-78500D01*
X227086D01*
X227336Y-78750D01*
Y-79750D01*
X227086Y-80000D01*
X226586D01*
X226336Y-79750D01*
Y-78750D01*
X241222Y-80000D02*
X241722D01*
X241472D01*
Y-78500D01*
X241222Y-78750D01*
X242472Y-79750D02*
X242722Y-80000D01*
X243222D01*
X243472Y-79750D01*
Y-78750D01*
X243222Y-78500D01*
X242722D01*
X242472Y-78750D01*
Y-79000D01*
X242722Y-79250D01*
X243472D01*
X243971Y-80000D02*
Y-79750D01*
X244221D01*
Y-80000D01*
X243971D01*
X246221Y-78500D02*
X245721Y-78750D01*
X245221Y-79250D01*
Y-79750D01*
X245471Y-80000D01*
X245971D01*
X246221Y-79750D01*
Y-79500D01*
X245971Y-79250D01*
X245221D01*
X246721Y-78750D02*
X246970Y-78500D01*
X247470D01*
X247720Y-78750D01*
Y-79000D01*
X247470Y-79250D01*
X247720Y-79500D01*
Y-79750D01*
X247470Y-80000D01*
X246970D01*
X246721Y-79750D01*
Y-79500D01*
X246970Y-79250D01*
X246721Y-79000D01*
Y-78750D01*
X246970Y-79250D02*
X247470D01*
X249220Y-78500D02*
X248220D01*
Y-79250D01*
X248720Y-79000D01*
X248970D01*
X249220Y-79250D01*
Y-79750D01*
X248970Y-80000D01*
X248470D01*
X248220Y-79750D01*
X249720Y-80000D02*
Y-79000D01*
X249970D01*
X250219Y-79250D01*
Y-80000D01*
Y-79250D01*
X250469Y-79000D01*
X250719Y-79250D01*
Y-80000D01*
X251219D02*
X251719D01*
X251469D01*
Y-79000D01*
X251219D01*
X252469Y-80000D02*
X252969D01*
X252719D01*
Y-78500D01*
X252469D01*
X255718Y-80000D02*
X255218Y-79500D01*
Y-79000D01*
X255718Y-78500D01*
X256467Y-78750D02*
X256717Y-78500D01*
X257217D01*
X257467Y-78750D01*
Y-79750D01*
X257217Y-80000D01*
X256717D01*
X256467Y-79750D01*
Y-78750D01*
X257967Y-80000D02*
Y-79750D01*
X258217D01*
Y-80000D01*
X257967D01*
X260216Y-78500D02*
X259216D01*
Y-79250D01*
X259716Y-79000D01*
X259966D01*
X260216Y-79250D01*
Y-79750D01*
X259966Y-80000D01*
X259466D01*
X259216Y-79750D01*
X260716Y-80000D02*
Y-79000D01*
X260966D01*
X261216Y-79250D01*
Y-80000D01*
Y-79250D01*
X261466Y-79000D01*
X261716Y-79250D01*
Y-80000D01*
X262216D02*
Y-79000D01*
X262466D01*
X262715Y-79250D01*
Y-80000D01*
Y-79250D01*
X262965Y-79000D01*
X263215Y-79250D01*
Y-80000D01*
X263715D02*
X264215Y-79500D01*
Y-79000D01*
X263715Y-78500D01*
X275052Y-80000D02*
Y-78500D01*
X275802D01*
X276052Y-78750D01*
Y-79250D01*
X275802Y-79500D01*
X275052D01*
X276552Y-78500D02*
X277552D01*
X277052D01*
Y-80000D01*
X278051Y-78500D02*
Y-80000D01*
Y-79250D01*
X279051D01*
Y-78500D01*
Y-80000D01*
X287889D02*
Y-78500D01*
X288639D01*
X288889Y-78750D01*
Y-79250D01*
X288639Y-79500D01*
X287889D01*
X288389D02*
X288889Y-80000D01*
X289639D02*
X290139D01*
X290388Y-79750D01*
Y-79250D01*
X290139Y-79000D01*
X289639D01*
X289389Y-79250D01*
Y-79750D01*
X289639Y-80000D01*
X290888Y-79000D02*
Y-79750D01*
X291138Y-80000D01*
X291888D01*
Y-79000D01*
X292388Y-80000D02*
Y-79000D01*
X293138D01*
X293388Y-79250D01*
Y-80000D01*
X294887Y-78500D02*
Y-80000D01*
X294137D01*
X293887Y-79750D01*
Y-79250D01*
X294137Y-79000D01*
X294887D01*
X223587Y-83000D02*
X224087D01*
X223837D01*
Y-81501D01*
X223587Y-81750D01*
X242222Y-83000D02*
X241222D01*
X242222Y-82000D01*
Y-81750D01*
X241972Y-81501D01*
X241472D01*
X241222Y-81750D01*
X242722D02*
X242972Y-81501D01*
X243472D01*
X243722Y-81750D01*
Y-82750D01*
X243472Y-83000D01*
X242972D01*
X242722Y-82750D01*
Y-81750D01*
X244221Y-83000D02*
Y-82000D01*
X244471D01*
X244721Y-82250D01*
Y-83000D01*
Y-82250D01*
X244971Y-82000D01*
X245221Y-82250D01*
Y-83000D01*
X245721D02*
X246221D01*
X245971D01*
Y-82000D01*
X245721D01*
X246970Y-83000D02*
X247470D01*
X247220D01*
Y-81501D01*
X246970D01*
X250219Y-83000D02*
X249720Y-82500D01*
Y-82000D01*
X250219Y-81501D01*
X250969Y-81750D02*
X251219Y-81501D01*
X251719D01*
X251969Y-81750D01*
Y-82750D01*
X251719Y-83000D01*
X251219D01*
X250969Y-82750D01*
Y-81750D01*
X252469Y-83000D02*
Y-82750D01*
X252719D01*
Y-83000D01*
X252469D01*
X254718Y-81501D02*
X253718D01*
Y-82250D01*
X254218Y-82000D01*
X254468D01*
X254718Y-82250D01*
Y-82750D01*
X254468Y-83000D01*
X253968D01*
X253718Y-82750D01*
X255218Y-81750D02*
X255468Y-81501D01*
X255968D01*
X256218Y-81750D01*
Y-82750D01*
X255968Y-83000D01*
X255468D01*
X255218Y-82750D01*
Y-81750D01*
X256717D02*
X256967Y-81501D01*
X257467D01*
X257717Y-81750D01*
Y-82000D01*
X257467Y-82250D01*
X257717Y-82500D01*
Y-82750D01*
X257467Y-83000D01*
X256967D01*
X256717Y-82750D01*
Y-82500D01*
X256967Y-82250D01*
X256717Y-82000D01*
Y-81750D01*
X256967Y-82250D02*
X257467D01*
X258217Y-83000D02*
Y-82000D01*
X258467D01*
X258717Y-82250D01*
Y-83000D01*
Y-82250D01*
X258967Y-82000D01*
X259216Y-82250D01*
Y-83000D01*
X259716D02*
Y-82000D01*
X259966D01*
X260216Y-82250D01*
Y-83000D01*
Y-82250D01*
X260466Y-82000D01*
X260716Y-82250D01*
Y-83000D01*
X261216D02*
X261716Y-82500D01*
Y-82000D01*
X261216Y-81501D01*
X275052Y-83000D02*
Y-81501D01*
X275802D01*
X276052Y-81750D01*
Y-82250D01*
X275802Y-82500D01*
X275052D01*
X276552Y-81501D02*
X277552D01*
X277052D01*
Y-83000D01*
X278051Y-81501D02*
Y-83000D01*
Y-82250D01*
X279051D01*
Y-81501D01*
Y-83000D01*
X287889D02*
Y-81501D01*
X288639D01*
X288889Y-81750D01*
Y-82250D01*
X288639Y-82500D01*
X287889D01*
X288389D02*
X288889Y-83000D01*
X289639D02*
X290139D01*
X290388Y-82750D01*
Y-82250D01*
X290139Y-82000D01*
X289639D01*
X289389Y-82250D01*
Y-82750D01*
X289639Y-83000D01*
X290888Y-82000D02*
Y-82750D01*
X291138Y-83000D01*
X291888D01*
Y-82000D01*
X292388Y-83000D02*
Y-82000D01*
X293138D01*
X293388Y-82250D01*
Y-83000D01*
X294887Y-81501D02*
Y-83000D01*
X294137D01*
X293887Y-82750D01*
Y-82250D01*
X294137Y-82000D01*
X294887D01*
X224337Y-86000D02*
Y-84500D01*
X223587Y-85250D01*
X224587D01*
X242222Y-86000D02*
X241222D01*
X242222Y-85000D01*
Y-84750D01*
X241972Y-84500D01*
X241472D01*
X241222Y-84750D01*
X243722Y-84500D02*
X242722D01*
Y-85250D01*
X243222Y-85000D01*
X243472D01*
X243722Y-85250D01*
Y-85750D01*
X243472Y-86000D01*
X242972D01*
X242722Y-85750D01*
X244221Y-86000D02*
Y-85000D01*
X244471D01*
X244721Y-85250D01*
Y-86000D01*
Y-85250D01*
X244971Y-85000D01*
X245221Y-85250D01*
Y-86000D01*
X245721D02*
X246221D01*
X245971D01*
Y-85000D01*
X245721D01*
X246970Y-86000D02*
X247470D01*
X247220D01*
Y-84500D01*
X246970D01*
X250219Y-86000D02*
X249720Y-85500D01*
Y-85000D01*
X250219Y-84500D01*
X250969Y-84750D02*
X251219Y-84500D01*
X251719D01*
X251969Y-84750D01*
Y-85750D01*
X251719Y-86000D01*
X251219D01*
X250969Y-85750D01*
Y-84750D01*
X252469Y-86000D02*
Y-85750D01*
X252719D01*
Y-86000D01*
X252469D01*
X254718Y-84500D02*
X254218Y-84750D01*
X253718Y-85250D01*
Y-85750D01*
X253968Y-86000D01*
X254468D01*
X254718Y-85750D01*
Y-85500D01*
X254468Y-85250D01*
X253718D01*
X255218Y-84750D02*
X255468Y-84500D01*
X255968D01*
X256218Y-84750D01*
Y-85000D01*
X255968Y-85250D01*
X255718D01*
X255968D01*
X256218Y-85500D01*
Y-85750D01*
X255968Y-86000D01*
X255468D01*
X255218Y-85750D01*
X257717Y-84500D02*
X256717D01*
Y-85250D01*
X257217Y-85000D01*
X257467D01*
X257717Y-85250D01*
Y-85750D01*
X257467Y-86000D01*
X256967D01*
X256717Y-85750D01*
X258217Y-86000D02*
Y-85000D01*
X258467D01*
X258717Y-85250D01*
Y-86000D01*
Y-85250D01*
X258967Y-85000D01*
X259216Y-85250D01*
Y-86000D01*
X259716D02*
Y-85000D01*
X259966D01*
X260216Y-85250D01*
Y-86000D01*
Y-85250D01*
X260466Y-85000D01*
X260716Y-85250D01*
Y-86000D01*
X261216D02*
X261716Y-85500D01*
Y-85000D01*
X261216Y-84500D01*
X275052Y-86000D02*
Y-84500D01*
X275802D01*
X276052Y-84750D01*
Y-85250D01*
X275802Y-85500D01*
X275052D01*
X276552Y-84500D02*
X277552D01*
X277052D01*
Y-86000D01*
X278051Y-84500D02*
Y-86000D01*
Y-85250D01*
X279051D01*
Y-84500D01*
Y-86000D01*
X287889D02*
Y-84500D01*
X288639D01*
X288889Y-84750D01*
Y-85250D01*
X288639Y-85500D01*
X287889D01*
X288389D02*
X288889Y-86000D01*
X289639D02*
X290139D01*
X290388Y-85750D01*
Y-85250D01*
X290139Y-85000D01*
X289639D01*
X289389Y-85250D01*
Y-85750D01*
X289639Y-86000D01*
X290888Y-85000D02*
Y-85750D01*
X291138Y-86000D01*
X291888D01*
Y-85000D01*
X292388Y-86000D02*
Y-85000D01*
X293138D01*
X293388Y-85250D01*
Y-86000D01*
X294887Y-84500D02*
Y-86000D01*
X294137D01*
X293887Y-85750D01*
Y-85250D01*
X294137Y-85000D01*
X294887D01*
X223587Y-89000D02*
X224087D01*
X223837D01*
Y-87501D01*
X223587Y-87750D01*
X225586Y-89000D02*
Y-87501D01*
X224836Y-88250D01*
X225836D01*
X241222Y-87750D02*
X241472Y-87501D01*
X241972D01*
X242222Y-87750D01*
Y-88000D01*
X241972Y-88250D01*
X241722D01*
X241972D01*
X242222Y-88500D01*
Y-88750D01*
X241972Y-89000D01*
X241472D01*
X241222Y-88750D01*
X243722Y-87501D02*
X242722D01*
Y-88250D01*
X243222Y-88000D01*
X243472D01*
X243722Y-88250D01*
Y-88750D01*
X243472Y-89000D01*
X242972D01*
X242722Y-88750D01*
X244221Y-89000D02*
Y-88750D01*
X244471D01*
Y-89000D01*
X244221D01*
X246221D02*
Y-87501D01*
X245471Y-88250D01*
X246471D01*
X246970Y-87750D02*
X247220Y-87501D01*
X247720D01*
X247970Y-87750D01*
Y-88000D01*
X247720Y-88250D01*
X247470D01*
X247720D01*
X247970Y-88500D01*
Y-88750D01*
X247720Y-89000D01*
X247220D01*
X246970Y-88750D01*
X248470Y-87750D02*
X248720Y-87501D01*
X249220D01*
X249470Y-87750D01*
Y-88000D01*
X249220Y-88250D01*
X248970D01*
X249220D01*
X249470Y-88500D01*
Y-88750D01*
X249220Y-89000D01*
X248720D01*
X248470Y-88750D01*
X249970Y-89000D02*
Y-88000D01*
X250219D01*
X250469Y-88250D01*
Y-89000D01*
Y-88250D01*
X250719Y-88000D01*
X250969Y-88250D01*
Y-89000D01*
X251469D02*
X251969D01*
X251719D01*
Y-88000D01*
X251469D01*
X252719Y-89000D02*
X253218D01*
X252969D01*
Y-87501D01*
X252719D01*
X255968Y-89000D02*
X255468Y-88500D01*
Y-88000D01*
X255968Y-87501D01*
X256717Y-87750D02*
X256967Y-87501D01*
X257467D01*
X257717Y-87750D01*
Y-88750D01*
X257467Y-89000D01*
X256967D01*
X256717Y-88750D01*
Y-87750D01*
X258217Y-89000D02*
Y-88750D01*
X258467D01*
Y-89000D01*
X258217D01*
X259466Y-88750D02*
X259716Y-89000D01*
X260216D01*
X260466Y-88750D01*
Y-87750D01*
X260216Y-87501D01*
X259716D01*
X259466Y-87750D01*
Y-88000D01*
X259716Y-88250D01*
X260466D01*
X260966Y-89000D02*
Y-88000D01*
X261216D01*
X261466Y-88250D01*
Y-89000D01*
Y-88250D01*
X261716Y-88000D01*
X261966Y-88250D01*
Y-89000D01*
X262466D02*
Y-88000D01*
X262715D01*
X262965Y-88250D01*
Y-89000D01*
Y-88250D01*
X263215Y-88000D01*
X263465Y-88250D01*
Y-89000D01*
X263965D02*
X264465Y-88500D01*
Y-88000D01*
X263965Y-87501D01*
X275052Y-89000D02*
Y-87501D01*
X275802D01*
X276052Y-87750D01*
Y-88250D01*
X275802Y-88500D01*
X275052D01*
X276552Y-87501D02*
X277552D01*
X277052D01*
Y-89000D01*
X278051Y-87501D02*
Y-89000D01*
Y-88250D01*
X279051D01*
Y-87501D01*
Y-89000D01*
X287889D02*
Y-87501D01*
X288639D01*
X288889Y-87750D01*
Y-88250D01*
X288639Y-88500D01*
X287889D01*
X288389D02*
X288889Y-89000D01*
X289639D02*
X290139D01*
X290388Y-88750D01*
Y-88250D01*
X290139Y-88000D01*
X289639D01*
X289389Y-88250D01*
Y-88750D01*
X289639Y-89000D01*
X290888Y-88000D02*
Y-88750D01*
X291138Y-89000D01*
X291888D01*
Y-88000D01*
X292388Y-89000D02*
Y-88000D01*
X293138D01*
X293388Y-88250D01*
Y-89000D01*
X294887Y-87501D02*
Y-89000D01*
X294137D01*
X293887Y-88750D01*
Y-88250D01*
X294137Y-88000D01*
X294887D01*
X223587Y-92000D02*
X224087D01*
X223837D01*
Y-90500D01*
X223587Y-90750D01*
X225836Y-90500D02*
X225336Y-90750D01*
X224836Y-91250D01*
Y-91750D01*
X225086Y-92000D01*
X225586D01*
X225836Y-91750D01*
Y-91500D01*
X225586Y-91250D01*
X224836D01*
X241222Y-90750D02*
X241472Y-90500D01*
X241972D01*
X242222Y-90750D01*
Y-91000D01*
X241972Y-91250D01*
X241722D01*
X241972D01*
X242222Y-91500D01*
Y-91750D01*
X241972Y-92000D01*
X241472D01*
X241222Y-91750D01*
X242722D02*
X242972Y-92000D01*
X243472D01*
X243722Y-91750D01*
Y-90750D01*
X243472Y-90500D01*
X242972D01*
X242722Y-90750D01*
Y-91000D01*
X242972Y-91250D01*
X243722D01*
X244221Y-92000D02*
Y-91750D01*
X244471D01*
Y-92000D01*
X244221D01*
X245471Y-90750D02*
X245721Y-90500D01*
X246221D01*
X246471Y-90750D01*
Y-91000D01*
X246221Y-91250D01*
X245971D01*
X246221D01*
X246471Y-91500D01*
Y-91750D01*
X246221Y-92000D01*
X245721D01*
X245471Y-91750D01*
X246970Y-90500D02*
X247970D01*
Y-90750D01*
X246970Y-91750D01*
Y-92000D01*
X248470D02*
Y-91000D01*
X248720D01*
X248970Y-91250D01*
Y-92000D01*
Y-91250D01*
X249220Y-91000D01*
X249470Y-91250D01*
Y-92000D01*
X249970D02*
X250469D01*
X250219D01*
Y-91000D01*
X249970D01*
X251219Y-92000D02*
X251719D01*
X251469D01*
Y-90500D01*
X251219D01*
X254468Y-92000D02*
X253968Y-91500D01*
Y-91000D01*
X254468Y-90500D01*
X255218Y-92000D02*
X255718D01*
X255468D01*
Y-90500D01*
X255218Y-90750D01*
X256467Y-92000D02*
Y-91000D01*
X256717D01*
X256967Y-91250D01*
Y-92000D01*
Y-91250D01*
X257217Y-91000D01*
X257467Y-91250D01*
Y-92000D01*
X257967D02*
Y-91000D01*
X258217D01*
X258467Y-91250D01*
Y-92000D01*
Y-91250D01*
X258717Y-91000D01*
X258967Y-91250D01*
Y-92000D01*
X259466D02*
X259966Y-91500D01*
Y-91000D01*
X259466Y-90500D01*
X275052Y-92000D02*
Y-90500D01*
X275802D01*
X276052Y-90750D01*
Y-91250D01*
X275802Y-91500D01*
X275052D01*
X276552Y-90500D02*
X277552D01*
X277052D01*
Y-92000D01*
X278051Y-90500D02*
Y-92000D01*
Y-91250D01*
X279051D01*
Y-90500D01*
Y-92000D01*
X287889D02*
Y-90500D01*
X288639D01*
X288889Y-90750D01*
Y-91250D01*
X288639Y-91500D01*
X287889D01*
X288389D02*
X288889Y-92000D01*
X289639D02*
X290139D01*
X290388Y-91750D01*
Y-91250D01*
X290139Y-91000D01*
X289639D01*
X289389Y-91250D01*
Y-91750D01*
X289639Y-92000D01*
X290888Y-91000D02*
Y-91750D01*
X291138Y-92000D01*
X291888D01*
Y-91000D01*
X292388Y-92000D02*
Y-91000D01*
X293138D01*
X293388Y-91250D01*
Y-92000D01*
X294887Y-90500D02*
Y-92000D01*
X294137D01*
X293887Y-91750D01*
Y-91250D01*
X294137Y-91000D01*
X294887D01*
X224587Y-93501D02*
X224087Y-93750D01*
X223587Y-94250D01*
Y-94750D01*
X223837Y-95000D01*
X224337D01*
X224587Y-94750D01*
Y-94500D01*
X224337Y-94250D01*
X223587D01*
X242222Y-93501D02*
X241222D01*
Y-94250D01*
X241722Y-94000D01*
X241972D01*
X242222Y-94250D01*
Y-94750D01*
X241972Y-95000D01*
X241472D01*
X241222Y-94750D01*
X242722D02*
X242972Y-95000D01*
X243472D01*
X243722Y-94750D01*
Y-93750D01*
X243472Y-93501D01*
X242972D01*
X242722Y-93750D01*
Y-94000D01*
X242972Y-94250D01*
X243722D01*
X244221Y-95000D02*
Y-94750D01*
X244471D01*
Y-95000D01*
X244221D01*
X245471Y-93750D02*
X245721Y-93501D01*
X246221D01*
X246471Y-93750D01*
Y-94750D01*
X246221Y-95000D01*
X245721D01*
X245471Y-94750D01*
Y-93750D01*
X247970Y-93501D02*
X246970D01*
Y-94250D01*
X247470Y-94000D01*
X247720D01*
X247970Y-94250D01*
Y-94750D01*
X247720Y-95000D01*
X247220D01*
X246970Y-94750D01*
X249470Y-93501D02*
X248470D01*
Y-94250D01*
X248970Y-94000D01*
X249220D01*
X249470Y-94250D01*
Y-94750D01*
X249220Y-95000D01*
X248720D01*
X248470Y-94750D01*
X249970Y-95000D02*
Y-94000D01*
X250219D01*
X250469Y-94250D01*
Y-95000D01*
Y-94250D01*
X250719Y-94000D01*
X250969Y-94250D01*
Y-95000D01*
X251469D02*
X251969D01*
X251719D01*
Y-94000D01*
X251469D01*
X252719Y-95000D02*
X253218D01*
X252969D01*
Y-93501D01*
X252719D01*
X255968Y-95000D02*
X255468Y-94500D01*
Y-94000D01*
X255968Y-93501D01*
X256717Y-95000D02*
X257217D01*
X256967D01*
Y-93501D01*
X256717Y-93750D01*
X257967Y-95000D02*
Y-94750D01*
X258217D01*
Y-95000D01*
X257967D01*
X260216Y-93501D02*
X259216D01*
Y-94250D01*
X259716Y-94000D01*
X259966D01*
X260216Y-94250D01*
Y-94750D01*
X259966Y-95000D01*
X259466D01*
X259216Y-94750D01*
X260716Y-95000D02*
Y-94000D01*
X260966D01*
X261216Y-94250D01*
Y-95000D01*
Y-94250D01*
X261466Y-94000D01*
X261716Y-94250D01*
Y-95000D01*
X262216D02*
Y-94000D01*
X262466D01*
X262715Y-94250D01*
Y-95000D01*
Y-94250D01*
X262965Y-94000D01*
X263215Y-94250D01*
Y-95000D01*
X263715D02*
X264215Y-94500D01*
Y-94000D01*
X263715Y-93501D01*
X275052Y-95000D02*
Y-93501D01*
X275802D01*
X276052Y-93750D01*
Y-94250D01*
X275802Y-94500D01*
X275052D01*
X276552Y-93501D02*
X277552D01*
X277052D01*
Y-95000D01*
X278051Y-93501D02*
Y-95000D01*
Y-94250D01*
X279051D01*
Y-93501D01*
Y-95000D01*
X287889D02*
Y-93501D01*
X288639D01*
X288889Y-93750D01*
Y-94250D01*
X288639Y-94500D01*
X287889D01*
X288389D02*
X288889Y-95000D01*
X289639D02*
X290139D01*
X290388Y-94750D01*
Y-94250D01*
X290139Y-94000D01*
X289639D01*
X289389Y-94250D01*
Y-94750D01*
X289639Y-95000D01*
X290888Y-94000D02*
Y-94750D01*
X291138Y-95000D01*
X291888D01*
Y-94000D01*
X292388Y-95000D02*
Y-94000D01*
X293138D01*
X293388Y-94250D01*
Y-95000D01*
X294887Y-93501D02*
Y-95000D01*
X294137D01*
X293887Y-94750D01*
Y-94250D01*
X294137Y-94000D01*
X294887D01*
X224587Y-98000D02*
X223587D01*
X224587Y-97000D01*
Y-96750D01*
X224337Y-96500D01*
X223837D01*
X223587Y-96750D01*
X241222Y-98000D02*
X241722D01*
X241472D01*
Y-96500D01*
X241222Y-96750D01*
X242472D02*
X242722Y-96500D01*
X243222D01*
X243472Y-96750D01*
Y-97750D01*
X243222Y-98000D01*
X242722D01*
X242472Y-97750D01*
Y-96750D01*
X244971Y-96500D02*
X244471Y-96750D01*
X243971Y-97250D01*
Y-97750D01*
X244221Y-98000D01*
X244721D01*
X244971Y-97750D01*
Y-97500D01*
X244721Y-97250D01*
X243971D01*
X245471Y-98000D02*
Y-97750D01*
X245721D01*
Y-98000D01*
X245471D01*
X247720D02*
X246721D01*
X247720Y-97000D01*
Y-96750D01*
X247470Y-96500D01*
X246970D01*
X246721Y-96750D01*
X248220Y-97750D02*
X248470Y-98000D01*
X248970D01*
X249220Y-97750D01*
Y-96750D01*
X248970Y-96500D01*
X248470D01*
X248220Y-96750D01*
Y-97000D01*
X248470Y-97250D01*
X249220D01*
X249720Y-97750D02*
X249970Y-98000D01*
X250469D01*
X250719Y-97750D01*
Y-96750D01*
X250469Y-96500D01*
X249970D01*
X249720Y-96750D01*
Y-97000D01*
X249970Y-97250D01*
X250719D01*
X251219Y-98000D02*
Y-97000D01*
X251469D01*
X251719Y-97250D01*
Y-98000D01*
Y-97250D01*
X251969Y-97000D01*
X252219Y-97250D01*
Y-98000D01*
X252719D02*
X253218D01*
X252969D01*
Y-97000D01*
X252719D01*
X253968Y-98000D02*
X254468D01*
X254218D01*
Y-96500D01*
X253968D01*
X257217Y-98000D02*
X256717Y-97500D01*
Y-97000D01*
X257217Y-96500D01*
X258967Y-98000D02*
X257967D01*
X258967Y-97000D01*
Y-96750D01*
X258717Y-96500D01*
X258217D01*
X257967Y-96750D01*
X259466Y-98000D02*
Y-97750D01*
X259716D01*
Y-98000D01*
X259466D01*
X260716Y-96500D02*
X261716D01*
Y-96750D01*
X260716Y-97750D01*
Y-98000D01*
X262216D02*
Y-97000D01*
X262466D01*
X262715Y-97250D01*
Y-98000D01*
Y-97250D01*
X262965Y-97000D01*
X263215Y-97250D01*
Y-98000D01*
X263715D02*
Y-97000D01*
X263965D01*
X264215Y-97250D01*
Y-98000D01*
Y-97250D01*
X264465Y-97000D01*
X264715Y-97250D01*
Y-98000D01*
X265215D02*
X265714Y-97500D01*
Y-97000D01*
X265215Y-96500D01*
X275052Y-98000D02*
Y-96500D01*
X275802D01*
X276052Y-96750D01*
Y-97250D01*
X275802Y-97500D01*
X275052D01*
X276552Y-96500D02*
X277552D01*
X277052D01*
Y-98000D01*
X278051Y-96500D02*
Y-98000D01*
Y-97250D01*
X279051D01*
Y-96500D01*
Y-98000D01*
X287889D02*
Y-96500D01*
X288639D01*
X288889Y-96750D01*
Y-97250D01*
X288639Y-97500D01*
X287889D01*
X288389D02*
X288889Y-98000D01*
X289639D02*
X290139D01*
X290388Y-97750D01*
Y-97250D01*
X290139Y-97000D01*
X289639D01*
X289389Y-97250D01*
Y-97750D01*
X289639Y-98000D01*
X290888Y-97000D02*
Y-97750D01*
X291138Y-98000D01*
X291888D01*
Y-97000D01*
X292388Y-98000D02*
Y-97000D01*
X293138D01*
X293388Y-97250D01*
Y-98000D01*
X294887Y-96500D02*
Y-98000D01*
X294137D01*
X293887Y-97750D01*
Y-97250D01*
X294137Y-97000D01*
X294887D01*
X224587Y-101000D02*
X223587D01*
X224587Y-100000D01*
Y-99750D01*
X224337Y-99501D01*
X223837D01*
X223587Y-99750D01*
X241222Y-101000D02*
X241722D01*
X241472D01*
Y-99501D01*
X241222Y-99750D01*
X242472Y-101000D02*
X242972D01*
X242722D01*
Y-99501D01*
X242472Y-99750D01*
X243722D02*
X243971Y-99501D01*
X244471D01*
X244721Y-99750D01*
Y-100000D01*
X244471Y-100250D01*
X244721Y-100500D01*
Y-100750D01*
X244471Y-101000D01*
X243971D01*
X243722Y-100750D01*
Y-100500D01*
X243971Y-100250D01*
X243722Y-100000D01*
Y-99750D01*
X243971Y-100250D02*
X244471D01*
X245221Y-101000D02*
Y-100750D01*
X245471D01*
Y-101000D01*
X245221D01*
X246471D02*
X246970D01*
X246721D01*
Y-99501D01*
X246471Y-99750D01*
X247720Y-101000D02*
X248220D01*
X247970D01*
Y-99501D01*
X247720Y-99750D01*
X248970Y-101000D02*
Y-100000D01*
X249220D01*
X249470Y-100250D01*
Y-101000D01*
Y-100250D01*
X249720Y-100000D01*
X249970Y-100250D01*
Y-101000D01*
X250469D02*
X250969D01*
X250719D01*
Y-100000D01*
X250469D01*
X251719Y-101000D02*
X252219D01*
X251969D01*
Y-99501D01*
X251719D01*
X254968Y-101000D02*
X254468Y-100500D01*
Y-100000D01*
X254968Y-99501D01*
X255718Y-99750D02*
X255968Y-99501D01*
X256467D01*
X256717Y-99750D01*
Y-100000D01*
X256467Y-100250D01*
X256218D01*
X256467D01*
X256717Y-100500D01*
Y-100750D01*
X256467Y-101000D01*
X255968D01*
X255718Y-100750D01*
X257217Y-101000D02*
Y-100000D01*
X257467D01*
X257717Y-100250D01*
Y-101000D01*
Y-100250D01*
X257967Y-100000D01*
X258217Y-100250D01*
Y-101000D01*
X258717D02*
Y-100000D01*
X258967D01*
X259216Y-100250D01*
Y-101000D01*
Y-100250D01*
X259466Y-100000D01*
X259716Y-100250D01*
Y-101000D01*
X260216D02*
X260716Y-100500D01*
Y-100000D01*
X260216Y-99501D01*
X275052Y-101000D02*
Y-99501D01*
X275802D01*
X276052Y-99750D01*
Y-100250D01*
X275802Y-100500D01*
X275052D01*
X276552Y-99501D02*
X277552D01*
X277052D01*
Y-101000D01*
X278051Y-99501D02*
Y-101000D01*
Y-100250D01*
X279051D01*
Y-99501D01*
Y-101000D01*
X287889D02*
Y-99501D01*
X288639D01*
X288889Y-99750D01*
Y-100250D01*
X288639Y-100500D01*
X287889D01*
X288389D02*
X288889Y-101000D01*
X289639D02*
X290139D01*
X290388Y-100750D01*
Y-100250D01*
X290139Y-100000D01*
X289639D01*
X289389Y-100250D01*
Y-100750D01*
X289639Y-101000D01*
X290888Y-100000D02*
Y-100750D01*
X291138Y-101000D01*
X291888D01*
Y-100000D01*
X292388Y-101000D02*
Y-100000D01*
X293138D01*
X293388Y-100250D01*
Y-101000D01*
X294887Y-99501D02*
Y-101000D01*
X294137D01*
X293887Y-100750D01*
Y-100250D01*
X294137Y-100000D01*
X294887D01*
X224587Y-104000D02*
X223587D01*
X224587Y-103000D01*
Y-102750D01*
X224337Y-102500D01*
X223837D01*
X223587Y-102750D01*
X241222Y-104000D02*
X241722D01*
X241472D01*
Y-102500D01*
X241222Y-102750D01*
X243472Y-102500D02*
X242472D01*
Y-103250D01*
X242972Y-103000D01*
X243222D01*
X243472Y-103250D01*
Y-103750D01*
X243222Y-104000D01*
X242722D01*
X242472Y-103750D01*
X243971Y-102500D02*
X244971D01*
Y-102750D01*
X243971Y-103750D01*
Y-104000D01*
X245471D02*
Y-103750D01*
X245721D01*
Y-104000D01*
X245471D01*
X247470D02*
Y-102500D01*
X246721Y-103250D01*
X247720D01*
X248220Y-102750D02*
X248470Y-102500D01*
X248970D01*
X249220Y-102750D01*
Y-103000D01*
X248970Y-103250D01*
X249220Y-103500D01*
Y-103750D01*
X248970Y-104000D01*
X248470D01*
X248220Y-103750D01*
Y-103500D01*
X248470Y-103250D01*
X248220Y-103000D01*
Y-102750D01*
X248470Y-103250D02*
X248970D01*
X249720Y-104000D02*
Y-103000D01*
X249970D01*
X250219Y-103250D01*
Y-104000D01*
Y-103250D01*
X250469Y-103000D01*
X250719Y-103250D01*
Y-104000D01*
X251219D02*
X251719D01*
X251469D01*
Y-103000D01*
X251219D01*
X252469Y-104000D02*
X252969D01*
X252719D01*
Y-102500D01*
X252469D01*
X255718Y-104000D02*
X255218Y-103500D01*
Y-103000D01*
X255718Y-102500D01*
X257217Y-104000D02*
Y-102500D01*
X256467Y-103250D01*
X257467D01*
X257967Y-104000D02*
Y-103000D01*
X258217D01*
X258467Y-103250D01*
Y-104000D01*
Y-103250D01*
X258717Y-103000D01*
X258967Y-103250D01*
Y-104000D01*
X259466D02*
Y-103000D01*
X259716D01*
X259966Y-103250D01*
Y-104000D01*
Y-103250D01*
X260216Y-103000D01*
X260466Y-103250D01*
Y-104000D01*
X260966D02*
X261466Y-103500D01*
Y-103000D01*
X260966Y-102500D01*
X275052Y-104000D02*
Y-102500D01*
X275802D01*
X276052Y-102750D01*
Y-103250D01*
X275802Y-103500D01*
X275052D01*
X276552Y-102500D02*
X277552D01*
X277052D01*
Y-104000D01*
X278051Y-102500D02*
Y-104000D01*
Y-103250D01*
X279051D01*
Y-102500D01*
Y-104000D01*
X287889D02*
Y-102500D01*
X288639D01*
X288889Y-102750D01*
Y-103250D01*
X288639Y-103500D01*
X287889D01*
X288389D02*
X288889Y-104000D01*
X289639D02*
X290139D01*
X290388Y-103750D01*
Y-103250D01*
X290139Y-103000D01*
X289639D01*
X289389Y-103250D01*
Y-103750D01*
X289639Y-104000D01*
X290888Y-103000D02*
Y-103750D01*
X291138Y-104000D01*
X291888D01*
Y-103000D01*
X292388Y-104000D02*
Y-103000D01*
X293138D01*
X293388Y-103250D01*
Y-104000D01*
X294887Y-102500D02*
Y-104000D01*
X294137D01*
X293887Y-103750D01*
Y-103250D01*
X294137Y-103000D01*
X294887D01*
X223587Y-107000D02*
X224087D01*
X223837D01*
Y-105500D01*
X223587Y-105750D01*
X241222D02*
X241472Y-105500D01*
X241972D01*
X242222Y-105750D01*
Y-106000D01*
X241972Y-106250D01*
X241722D01*
X241972D01*
X242222Y-106500D01*
Y-106750D01*
X241972Y-107000D01*
X241472D01*
X241222Y-106750D01*
X242722Y-107000D02*
X243222D01*
X242972D01*
Y-105500D01*
X242722Y-105750D01*
X243971Y-107000D02*
Y-106750D01*
X244221D01*
Y-107000D01*
X243971D01*
X245971D02*
Y-105500D01*
X245221Y-106250D01*
X246221D01*
X246721Y-106750D02*
X246970Y-107000D01*
X247470D01*
X247720Y-106750D01*
Y-105750D01*
X247470Y-105500D01*
X246970D01*
X246721Y-105750D01*
Y-106000D01*
X246970Y-106250D01*
X247720D01*
X249220Y-105500D02*
X248720Y-105750D01*
X248220Y-106250D01*
Y-106750D01*
X248470Y-107000D01*
X248970D01*
X249220Y-106750D01*
Y-106500D01*
X248970Y-106250D01*
X248220D01*
X249720Y-107000D02*
Y-106000D01*
X249970D01*
X250219Y-106250D01*
Y-107000D01*
Y-106250D01*
X250469Y-106000D01*
X250719Y-106250D01*
Y-107000D01*
X251219D02*
X251719D01*
X251469D01*
Y-106000D01*
X251219D01*
X252469Y-107000D02*
X252969D01*
X252719D01*
Y-105500D01*
X252469D01*
X255718Y-107000D02*
X255218Y-106500D01*
Y-106000D01*
X255718Y-105500D01*
X256467Y-105750D02*
X256717Y-105500D01*
X257217D01*
X257467Y-105750D01*
Y-106750D01*
X257217Y-107000D01*
X256717D01*
X256467Y-106750D01*
Y-105750D01*
X257967Y-107000D02*
Y-106750D01*
X258217D01*
Y-107000D01*
X257967D01*
X259216Y-105750D02*
X259466Y-105500D01*
X259966D01*
X260216Y-105750D01*
Y-106000D01*
X259966Y-106250D01*
X260216Y-106500D01*
Y-106750D01*
X259966Y-107000D01*
X259466D01*
X259216Y-106750D01*
Y-106500D01*
X259466Y-106250D01*
X259216Y-106000D01*
Y-105750D01*
X259466Y-106250D02*
X259966D01*
X260716Y-107000D02*
Y-106000D01*
X260966D01*
X261216Y-106250D01*
Y-107000D01*
Y-106250D01*
X261466Y-106000D01*
X261716Y-106250D01*
Y-107000D01*
X262216D02*
Y-106000D01*
X262466D01*
X262715Y-106250D01*
Y-107000D01*
Y-106250D01*
X262965Y-106000D01*
X263215Y-106250D01*
Y-107000D01*
X263715D02*
X264215Y-106500D01*
Y-106000D01*
X263715Y-105500D01*
X275052Y-107000D02*
Y-105500D01*
X275802D01*
X276052Y-105750D01*
Y-106250D01*
X275802Y-106500D01*
X275052D01*
X276552Y-105500D02*
X277552D01*
X277052D01*
Y-107000D01*
X278051Y-105500D02*
Y-107000D01*
Y-106250D01*
X279051D01*
Y-105500D01*
Y-107000D01*
X288889Y-105750D02*
X288639Y-105500D01*
X288139D01*
X287889Y-105750D01*
Y-106000D01*
X288139Y-106250D01*
X288639D01*
X288889Y-106500D01*
Y-106750D01*
X288639Y-107000D01*
X288139D01*
X287889Y-106750D01*
X290388Y-107500D02*
Y-106000D01*
X289639D01*
X289389Y-106250D01*
Y-106750D01*
X289639Y-107000D01*
X290388D01*
X290888Y-106000D02*
Y-106750D01*
X291138Y-107000D01*
X291888D01*
Y-106000D01*
X292638D02*
X293138D01*
X293388Y-106250D01*
Y-107000D01*
X292638D01*
X292388Y-106750D01*
X292638Y-106500D01*
X293388D01*
X293887Y-106000D02*
Y-107000D01*
Y-106500D01*
X294137Y-106250D01*
X294387Y-106000D01*
X294637D01*
X296137Y-107000D02*
X295637D01*
X295387Y-106750D01*
Y-106250D01*
X295637Y-106000D01*
X296137D01*
X296387Y-106250D01*
Y-106500D01*
X295387D01*
X224587Y-110000D02*
X223587D01*
X224587Y-109000D01*
Y-108750D01*
X224337Y-108501D01*
X223837D01*
X223587Y-108750D01*
X241222D02*
X241472Y-108501D01*
X241972D01*
X242222Y-108750D01*
Y-109000D01*
X241972Y-109250D01*
X241722D01*
X241972D01*
X242222Y-109500D01*
Y-109750D01*
X241972Y-110000D01*
X241472D01*
X241222Y-109750D01*
X242722Y-110000D02*
X243222D01*
X242972D01*
Y-108501D01*
X242722Y-108750D01*
X243971Y-110000D02*
Y-109750D01*
X244221D01*
Y-110000D01*
X243971D01*
X245971D02*
Y-108501D01*
X245221Y-109250D01*
X246221D01*
X246721Y-109750D02*
X246970Y-110000D01*
X247470D01*
X247720Y-109750D01*
Y-108750D01*
X247470Y-108501D01*
X246970D01*
X246721Y-108750D01*
Y-109000D01*
X246970Y-109250D01*
X247720D01*
X249220Y-108501D02*
X248720Y-108750D01*
X248220Y-109250D01*
Y-109750D01*
X248470Y-110000D01*
X248970D01*
X249220Y-109750D01*
Y-109500D01*
X248970Y-109250D01*
X248220D01*
X249720Y-110000D02*
Y-109000D01*
X249970D01*
X250219Y-109250D01*
Y-110000D01*
Y-109250D01*
X250469Y-109000D01*
X250719Y-109250D01*
Y-110000D01*
X251219D02*
X251719D01*
X251469D01*
Y-109000D01*
X251219D01*
X252469Y-110000D02*
X252969D01*
X252719D01*
Y-108501D01*
X252469D01*
X255718Y-110000D02*
X255218Y-109500D01*
Y-109000D01*
X255718Y-108501D01*
X256467Y-108750D02*
X256717Y-108501D01*
X257217D01*
X257467Y-108750D01*
Y-109750D01*
X257217Y-110000D01*
X256717D01*
X256467Y-109750D01*
Y-108750D01*
X257967Y-110000D02*
Y-109750D01*
X258217D01*
Y-110000D01*
X257967D01*
X259216Y-108750D02*
X259466Y-108501D01*
X259966D01*
X260216Y-108750D01*
Y-109000D01*
X259966Y-109250D01*
X260216Y-109500D01*
Y-109750D01*
X259966Y-110000D01*
X259466D01*
X259216Y-109750D01*
Y-109500D01*
X259466Y-109250D01*
X259216Y-109000D01*
Y-108750D01*
X259466Y-109250D02*
X259966D01*
X260716Y-110000D02*
Y-109000D01*
X260966D01*
X261216Y-109250D01*
Y-110000D01*
Y-109250D01*
X261466Y-109000D01*
X261716Y-109250D01*
Y-110000D01*
X262216D02*
Y-109000D01*
X262466D01*
X262715Y-109250D01*
Y-110000D01*
Y-109250D01*
X262965Y-109000D01*
X263215Y-109250D01*
Y-110000D01*
X263715D02*
X264215Y-109500D01*
Y-109000D01*
X263715Y-108501D01*
X275052Y-110000D02*
Y-108501D01*
X275802D01*
X276052Y-108750D01*
Y-109250D01*
X275802Y-109500D01*
X275052D01*
X276552Y-108501D02*
X277552D01*
X277052D01*
Y-110000D01*
X278051Y-108501D02*
Y-110000D01*
Y-109250D01*
X279051D01*
Y-108501D01*
Y-110000D01*
X288889Y-108750D02*
X288639Y-108501D01*
X288139D01*
X287889Y-108750D01*
Y-109000D01*
X288139Y-109250D01*
X288639D01*
X288889Y-109500D01*
Y-109750D01*
X288639Y-110000D01*
X288139D01*
X287889Y-109750D01*
X290388Y-110500D02*
Y-109000D01*
X289639D01*
X289389Y-109250D01*
Y-109750D01*
X289639Y-110000D01*
X290388D01*
X290888Y-109000D02*
Y-109750D01*
X291138Y-110000D01*
X291888D01*
Y-109000D01*
X292638D02*
X293138D01*
X293388Y-109250D01*
Y-110000D01*
X292638D01*
X292388Y-109750D01*
X292638Y-109500D01*
X293388D01*
X293887Y-109000D02*
Y-110000D01*
Y-109500D01*
X294137Y-109250D01*
X294387Y-109000D01*
X294637D01*
X296137Y-110000D02*
X295637D01*
X295387Y-109750D01*
Y-109250D01*
X295637Y-109000D01*
X296137D01*
X296387Y-109250D01*
Y-109500D01*
X295387D01*
X223587Y-111750D02*
X223837Y-111501D01*
X224337D01*
X224587Y-111750D01*
Y-112000D01*
X224337Y-112250D01*
X224087D01*
X224337D01*
X224587Y-112500D01*
Y-112750D01*
X224337Y-113000D01*
X223837D01*
X223587Y-112750D01*
X241222Y-111501D02*
X242222D01*
Y-111750D01*
X241222Y-112750D01*
Y-113000D01*
X242722Y-111750D02*
X242972Y-111501D01*
X243472D01*
X243722Y-111750D01*
Y-112000D01*
X243472Y-112250D01*
X243722Y-112500D01*
Y-112750D01*
X243472Y-113000D01*
X242972D01*
X242722Y-112750D01*
Y-112500D01*
X242972Y-112250D01*
X242722Y-112000D01*
Y-111750D01*
X242972Y-112250D02*
X243472D01*
X244221Y-113000D02*
Y-112750D01*
X244471D01*
Y-113000D01*
X244221D01*
X245471Y-111501D02*
X246471D01*
Y-111750D01*
X245471Y-112750D01*
Y-113000D01*
X247720D02*
Y-111501D01*
X246970Y-112250D01*
X247970D01*
X248470Y-113000D02*
Y-112000D01*
X248720D01*
X248970Y-112250D01*
Y-113000D01*
Y-112250D01*
X249220Y-112000D01*
X249470Y-112250D01*
Y-113000D01*
X249970D02*
X250469D01*
X250219D01*
Y-112000D01*
X249970D01*
X251219Y-113000D02*
X251719D01*
X251469D01*
Y-111501D01*
X251219D01*
X254468Y-113000D02*
X253968Y-112500D01*
Y-112000D01*
X254468Y-111501D01*
X256218Y-113000D02*
X255218D01*
X256218Y-112000D01*
Y-111750D01*
X255968Y-111501D01*
X255468D01*
X255218Y-111750D01*
X256717Y-113000D02*
Y-112000D01*
X256967D01*
X257217Y-112250D01*
Y-113000D01*
Y-112250D01*
X257467Y-112000D01*
X257717Y-112250D01*
Y-113000D01*
X258217D02*
Y-112000D01*
X258467D01*
X258717Y-112250D01*
Y-113000D01*
Y-112250D01*
X258967Y-112000D01*
X259216Y-112250D01*
Y-113000D01*
X259716D02*
X260216Y-112500D01*
Y-112000D01*
X259716Y-111501D01*
X275052Y-113000D02*
Y-111501D01*
X275802D01*
X276052Y-111750D01*
Y-112250D01*
X275802Y-112500D01*
X275052D01*
X276552Y-111501D02*
X277552D01*
X277052D01*
Y-113000D01*
X278051Y-111501D02*
Y-113000D01*
Y-112250D01*
X279051D01*
Y-111501D01*
Y-113000D01*
X288889Y-111750D02*
X288639Y-111501D01*
X288139D01*
X287889Y-111750D01*
Y-112000D01*
X288139Y-112250D01*
X288639D01*
X288889Y-112500D01*
Y-112750D01*
X288639Y-113000D01*
X288139D01*
X287889Y-112750D01*
X290388Y-113500D02*
Y-112000D01*
X289639D01*
X289389Y-112250D01*
Y-112750D01*
X289639Y-113000D01*
X290388D01*
X290888Y-112000D02*
Y-112750D01*
X291138Y-113000D01*
X291888D01*
Y-112000D01*
X292638D02*
X293138D01*
X293388Y-112250D01*
Y-113000D01*
X292638D01*
X292388Y-112750D01*
X292638Y-112500D01*
X293388D01*
X293887Y-112000D02*
Y-113000D01*
Y-112500D01*
X294137Y-112250D01*
X294387Y-112000D01*
X294637D01*
X296137Y-113000D02*
X295637D01*
X295387Y-112750D01*
Y-112250D01*
X295637Y-112000D01*
X296137D01*
X296387Y-112250D01*
Y-112500D01*
X295387D01*
X224587Y-116000D02*
X223587D01*
X224587Y-115000D01*
Y-114750D01*
X224337Y-114500D01*
X223837D01*
X223587Y-114750D01*
X226086Y-114500D02*
X225586Y-114750D01*
X225086Y-115250D01*
Y-115750D01*
X225336Y-116000D01*
X225836D01*
X226086Y-115750D01*
Y-115500D01*
X225836Y-115250D01*
X225086D01*
X226586Y-114750D02*
X226836Y-114500D01*
X227336D01*
X227586Y-114750D01*
Y-115000D01*
X227336Y-115250D01*
X227086D01*
X227336D01*
X227586Y-115500D01*
Y-115750D01*
X227336Y-116000D01*
X226836D01*
X226586Y-115750D01*
X230466Y-114500D02*
X231465D01*
X230965D01*
Y-116000D01*
X232215D02*
X232715D01*
X232965Y-115750D01*
Y-115250D01*
X232715Y-115000D01*
X232215D01*
X231965Y-115250D01*
Y-115750D01*
X232215Y-116000D01*
X233715Y-114750D02*
Y-115000D01*
X233465D01*
X233964D01*
X233715D01*
Y-115750D01*
X233964Y-116000D01*
X234964Y-115000D02*
X235464D01*
X235714Y-115250D01*
Y-116000D01*
X234964D01*
X234714Y-115750D01*
X234964Y-115500D01*
X235714D01*
X236214Y-116000D02*
X236714D01*
X236464D01*
Y-114500D01*
X236214D01*
M02*
