G04 Layer_Color=16711935*
%FSLAX25Y25*%
%MOIN*%
G70*
G01*
G75*
%ADD75C,0.04737*%
%ADD76C,0.14579*%
%ADD77C,0.07099*%
%ADD78C,0.08674*%
%ADD79R,0.05524X0.16154*%
%ADD80R,0.14579X0.05524*%
%ADD81C,0.06706*%
%ADD82R,0.06706X0.06706*%
%ADD83R,0.12611X0.16548*%
%ADD84C,0.16548*%
%ADD85C,0.20485*%
%ADD86C,0.02800*%
%ADD87C,0.03300*%
%ADD88C,0.04800*%
D75*
X10752Y-66707D02*
D03*
X18626D02*
D03*
X26500D02*
D03*
X34374D02*
D03*
X42248D02*
D03*
X10752Y-37376D02*
D03*
X18626D02*
D03*
X26500D02*
D03*
X34374D02*
D03*
X42248D02*
D03*
Y-45250D02*
D03*
X34374D02*
D03*
X26500D02*
D03*
X18626D02*
D03*
X10752D02*
D03*
X42248Y-53124D02*
D03*
X34374D02*
D03*
X26500D02*
D03*
X18626D02*
D03*
X10752D02*
D03*
X42248Y-60998D02*
D03*
X34374D02*
D03*
X26500D02*
D03*
X18626D02*
D03*
X10752D02*
D03*
X61502Y-66707D02*
D03*
X69376D02*
D03*
X77250D02*
D03*
X85124D02*
D03*
X92998D02*
D03*
X61502Y-37376D02*
D03*
X69376D02*
D03*
X77250D02*
D03*
X85124D02*
D03*
X92998D02*
D03*
Y-45250D02*
D03*
X85124D02*
D03*
X77250D02*
D03*
X69376D02*
D03*
X61502D02*
D03*
X92998Y-53124D02*
D03*
X85124D02*
D03*
X77250D02*
D03*
X69376D02*
D03*
X61502D02*
D03*
X92998Y-60998D02*
D03*
X85124D02*
D03*
X77250D02*
D03*
X69376D02*
D03*
X61502D02*
D03*
X-93498Y-66457D02*
D03*
X-85624D02*
D03*
X-77750D02*
D03*
X-69876D02*
D03*
X-62002D02*
D03*
X-93498Y-37126D02*
D03*
X-85624D02*
D03*
X-77750D02*
D03*
X-69876D02*
D03*
X-62002D02*
D03*
Y-45000D02*
D03*
X-69876D02*
D03*
X-77750D02*
D03*
X-85624D02*
D03*
X-93498D02*
D03*
X-62002Y-52874D02*
D03*
X-69876D02*
D03*
X-77750D02*
D03*
X-85624D02*
D03*
X-93498D02*
D03*
X-62002Y-60748D02*
D03*
X-69876D02*
D03*
X-77750D02*
D03*
X-85624D02*
D03*
X-93498D02*
D03*
X-42248Y-66506D02*
D03*
X-34374D02*
D03*
X-26500D02*
D03*
X-18626D02*
D03*
X-10752D02*
D03*
X-42248Y-37175D02*
D03*
X-34374D02*
D03*
X-26500D02*
D03*
X-18626D02*
D03*
X-10752D02*
D03*
Y-45049D02*
D03*
X-18626D02*
D03*
X-26500D02*
D03*
X-34374D02*
D03*
X-42248D02*
D03*
X-10752Y-52923D02*
D03*
X-18626D02*
D03*
X-26500D02*
D03*
X-34374D02*
D03*
X-42248D02*
D03*
X-10752Y-60797D02*
D03*
X-18626D02*
D03*
X-26500D02*
D03*
X-34374D02*
D03*
X-42248D02*
D03*
D76*
X156750Y81250D02*
D03*
Y29478D02*
D03*
D77*
X145923Y69045D02*
D03*
Y59203D02*
D03*
Y51329D02*
D03*
Y41486D02*
D03*
D78*
X-129500Y-47500D02*
D03*
X-113949D02*
D03*
X126000Y-40301D02*
D03*
Y-24750D02*
D03*
Y-76801D02*
D03*
Y-61250D02*
D03*
D79*
X-143628Y-62750D02*
D03*
X-167250D02*
D03*
D80*
X-153471Y-81648D02*
D03*
D81*
X-134626Y-15059D02*
D03*
X-144626D02*
D03*
X-134626Y-5059D02*
D03*
X-144626D02*
D03*
X-134626Y4941D02*
D03*
X-144626D02*
D03*
X-134626Y14941D02*
D03*
X168339Y16230D02*
D03*
X178339D02*
D03*
X168339Y6230D02*
D03*
X178339D02*
D03*
X168339Y-3770D02*
D03*
X-171000Y-29622D02*
D03*
Y-21748D02*
D03*
Y-13874D02*
D03*
Y-6000D02*
D03*
Y1874D02*
D03*
Y9748D02*
D03*
Y34878D02*
D03*
Y42752D02*
D03*
Y50626D02*
D03*
Y58500D02*
D03*
Y66374D02*
D03*
Y74248D02*
D03*
D82*
X-144626Y14941D02*
D03*
X178339Y-3770D02*
D03*
D83*
X-94500Y-97750D02*
D03*
X-59067D02*
D03*
X-76784D02*
D03*
D84*
X177252Y-95748D02*
D03*
X-177252D02*
D03*
D85*
X151748Y101252D02*
D03*
X-157248D02*
D03*
D86*
X-97250Y-8750D02*
D03*
Y-11750D02*
D03*
Y-14750D02*
D03*
Y-18000D02*
D03*
Y-21500D02*
D03*
X-100250Y-22500D02*
D03*
Y-19000D02*
D03*
Y-15750D02*
D03*
Y-12750D02*
D03*
Y-9750D02*
D03*
X-45500Y-21000D02*
D03*
Y-17500D02*
D03*
Y-14250D02*
D03*
Y-11250D02*
D03*
Y-8250D02*
D03*
X-48500Y-21000D02*
D03*
Y-17500D02*
D03*
Y-14250D02*
D03*
Y-11250D02*
D03*
Y-8250D02*
D03*
X7250Y-8500D02*
D03*
Y-11250D02*
D03*
Y-14250D02*
D03*
Y-17250D02*
D03*
Y-20250D02*
D03*
X4250D02*
D03*
Y-17250D02*
D03*
Y-14250D02*
D03*
Y-11250D02*
D03*
Y-8500D02*
D03*
X58250Y-20250D02*
D03*
Y-17250D02*
D03*
Y-14250D02*
D03*
Y-11250D02*
D03*
Y-8500D02*
D03*
X55250Y-20250D02*
D03*
Y-17250D02*
D03*
Y-14250D02*
D03*
Y-11250D02*
D03*
Y-8500D02*
D03*
X-56500Y-500D02*
D03*
X-53250D02*
D03*
X-50000D02*
D03*
X-46500D02*
D03*
X-48250Y1750D02*
D03*
X-51500D02*
D03*
X-54750D02*
D03*
X-2500D02*
D03*
X750D02*
D03*
X4000D02*
D03*
X5750Y-500D02*
D03*
X2250D02*
D03*
X-1000D02*
D03*
X-4250D02*
D03*
X49750Y1500D02*
D03*
X53000D02*
D03*
X56250D02*
D03*
X58000Y-750D02*
D03*
X54500D02*
D03*
X51250D02*
D03*
X48000D02*
D03*
X97750Y1250D02*
D03*
X101000D02*
D03*
X99250Y3500D02*
D03*
X102500Y-1000D02*
D03*
X99250D02*
D03*
X96000D02*
D03*
X-128000Y99500D02*
D03*
X-124500D02*
D03*
X-121250D02*
D03*
X-117750D02*
D03*
X-114000D02*
D03*
X-118250Y50250D02*
D03*
X-114750D02*
D03*
X-110750D02*
D03*
X-118250Y47000D02*
D03*
X-114750D02*
D03*
X-110750D02*
D03*
X-107250Y50250D02*
D03*
Y47000D02*
D03*
X46750Y45250D02*
D03*
Y48500D02*
D03*
X43250Y45250D02*
D03*
X39250D02*
D03*
X35750D02*
D03*
X43250Y48500D02*
D03*
X39250D02*
D03*
X35750D02*
D03*
X1000Y35250D02*
D03*
X5000D02*
D03*
X8750D02*
D03*
X12500D02*
D03*
X86500Y49500D02*
D03*
Y45250D02*
D03*
X-35000Y39750D02*
D03*
X-31750D02*
D03*
X-28500D02*
D03*
X-126000Y27750D02*
D03*
Y29750D02*
D03*
X-72750Y22500D02*
D03*
X-21500D02*
D03*
X31750D02*
D03*
X-151750Y40750D02*
D03*
X132250Y-2500D02*
D03*
X82250Y22500D02*
D03*
X-147750Y-39000D02*
D03*
D87*
X-99492Y14758D02*
D03*
X-48250Y14500D02*
D03*
X3258Y14508D02*
D03*
X55254Y14504D02*
D03*
D88*
X174000Y-61250D02*
D03*
X159949Y-76801D02*
D03*
X147750Y-11750D02*
D03*
X157301Y-40301D02*
D03*
M02*
