G04 Layer_Color=8421504*
%FSLAX25Y25*%
%MOIN*%
G70*
G01*
G75*
%ADD10R,0.03150X0.18110*%
%ADD11R,0.42520X0.37008*%
%ADD12R,0.06102X0.00984*%
%ADD13R,0.42520X0.27520*%
%ADD14R,0.04213X0.12441*%
%ADD15R,0.12795X0.08465*%
%ADD16R,0.04291X0.09016*%
%ADD17R,0.04567X0.05787*%
%ADD18R,0.05787X0.04567*%
%ADD19R,0.10236X0.12598*%
%ADD20R,0.06102X0.09449*%
%ADD21R,0.11024X0.09449*%
%ADD22R,0.07874X0.15748*%
%ADD23R,0.15748X0.07874*%
%ADD24R,0.07087X0.05315*%
%ADD25R,0.05315X0.07087*%
%ADD26R,0.03661X0.03858*%
%ADD27R,0.03858X0.03661*%
D10*
X26500Y-15427D02*
D03*
X31500D02*
D03*
X36500D02*
D03*
X41500D02*
D03*
X21500D02*
D03*
X16500D02*
D03*
X11500D02*
D03*
X77250D02*
D03*
X82250D02*
D03*
X87250D02*
D03*
X92250D02*
D03*
X72250D02*
D03*
X67250D02*
D03*
X62250D02*
D03*
X-77750Y-15177D02*
D03*
X-72750D02*
D03*
X-67750D02*
D03*
X-62750D02*
D03*
X-82750D02*
D03*
X-87750D02*
D03*
X-92750D02*
D03*
X-26500Y-15226D02*
D03*
X-21500D02*
D03*
X-16500D02*
D03*
X-11500D02*
D03*
X-31500D02*
D03*
X-36500D02*
D03*
X-41500D02*
D03*
D11*
X26500Y-51451D02*
D03*
X77250D02*
D03*
X-77750Y-51201D02*
D03*
X-26500Y-51250D02*
D03*
D12*
X139524Y-8000D02*
D03*
Y-5441D02*
D03*
Y-2882D02*
D03*
Y-323D02*
D03*
Y2236D02*
D03*
Y4795D02*
D03*
Y7354D02*
D03*
Y9913D02*
D03*
Y12472D02*
D03*
Y15032D02*
D03*
X117476D02*
D03*
Y12472D02*
D03*
Y9913D02*
D03*
Y7354D02*
D03*
Y4795D02*
D03*
Y2236D02*
D03*
Y-323D02*
D03*
Y-2882D02*
D03*
Y-5441D02*
D03*
Y-8000D02*
D03*
D13*
X68500Y89000D02*
D03*
X-84750D02*
D03*
D14*
X81886Y45299D02*
D03*
X75193D02*
D03*
X68500D02*
D03*
X61807D02*
D03*
X55114D02*
D03*
X-71364D02*
D03*
X-78057D02*
D03*
X-84750D02*
D03*
X-91443D02*
D03*
X-98136D02*
D03*
D15*
X-5000Y52165D02*
D03*
D16*
X4055Y75000D02*
D03*
X-5000D02*
D03*
X-14055D02*
D03*
D17*
X127750Y78000D02*
D03*
X134758D02*
D03*
X-159246Y-39000D02*
D03*
X-166254D02*
D03*
X-159246Y24000D02*
D03*
X-166254D02*
D03*
X110496Y-15750D02*
D03*
X117504D02*
D03*
D18*
X11500Y7500D02*
D03*
Y14508D02*
D03*
X21750Y7500D02*
D03*
Y14508D02*
D03*
X31750Y7500D02*
D03*
Y14508D02*
D03*
X42750Y7496D02*
D03*
Y14504D02*
D03*
X62250D02*
D03*
Y7496D02*
D03*
X-159250Y-14746D02*
D03*
Y-21754D02*
D03*
Y49758D02*
D03*
Y42750D02*
D03*
X72250Y14508D02*
D03*
Y7500D02*
D03*
X82250Y14504D02*
D03*
Y7496D02*
D03*
X93000Y14508D02*
D03*
Y7500D02*
D03*
X-92500Y7750D02*
D03*
Y14758D02*
D03*
X-41250Y14500D02*
D03*
Y7492D02*
D03*
X-82750Y7750D02*
D03*
Y14758D02*
D03*
X-31500Y14504D02*
D03*
Y7496D02*
D03*
X-61750Y7750D02*
D03*
Y14758D02*
D03*
X-72750Y7750D02*
D03*
Y14758D02*
D03*
X-10750Y14504D02*
D03*
Y7496D02*
D03*
X-21500Y14508D02*
D03*
Y7500D02*
D03*
X4750Y90246D02*
D03*
Y97254D02*
D03*
X-13250Y90250D02*
D03*
Y97258D02*
D03*
X134750Y30754D02*
D03*
Y23746D02*
D03*
X127750Y90246D02*
D03*
Y97254D02*
D03*
X-23250Y90242D02*
D03*
Y97250D02*
D03*
X-18500Y48258D02*
D03*
Y41250D02*
D03*
D19*
X97939Y54250D02*
D03*
X121561D02*
D03*
X-55311Y53500D02*
D03*
X-31689D02*
D03*
D20*
X98750Y97504D02*
D03*
Y85496D02*
D03*
X-53250Y97250D02*
D03*
Y85242D02*
D03*
D21*
X114348Y97461D02*
D03*
Y77933D02*
D03*
X-37152Y97211D02*
D03*
Y77683D02*
D03*
D22*
X26750Y60250D02*
D03*
Y88203D02*
D03*
X-126000Y60524D02*
D03*
Y88476D02*
D03*
D23*
X-39976Y-97750D02*
D03*
X-12024D02*
D03*
D24*
X-7065Y41250D02*
D03*
X3250D02*
D03*
D25*
X-23098Y78362D02*
D03*
Y68047D02*
D03*
D26*
X21813Y102250D02*
D03*
X15750D02*
D03*
X128687Y107750D02*
D03*
X134750D02*
D03*
D27*
X-4250Y91219D02*
D03*
Y97281D02*
D03*
M02*
