G04 Layer_Color=8388736*
%FSLAX25Y25*%
%MOIN*%
G70*
G01*
G75*
%ADD57R,0.03950X0.18910*%
%ADD58R,0.43320X0.37808*%
%ADD59R,0.06902X0.01784*%
%ADD60R,0.43320X0.28320*%
%ADD61R,0.05013X0.13241*%
%ADD62R,0.13595X0.09265*%
%ADD63R,0.05091X0.09816*%
%ADD64R,0.05367X0.06587*%
%ADD65R,0.06587X0.05367*%
%ADD66R,0.11036X0.13398*%
%ADD67R,0.06902X0.10249*%
%ADD68R,0.11824X0.10249*%
%ADD69R,0.08674X0.16548*%
%ADD70R,0.16548X0.08674*%
%ADD71R,0.07887X0.06115*%
%ADD72R,0.06115X0.07887*%
%ADD73R,0.04461X0.04658*%
%ADD74R,0.04658X0.04461*%
%ADD75C,0.04737*%
%ADD76C,0.14579*%
%ADD77C,0.07099*%
%ADD78C,0.08674*%
%ADD79R,0.05524X0.16154*%
%ADD80R,0.14579X0.05524*%
%ADD81C,0.06706*%
%ADD82R,0.06706X0.06706*%
%ADD83R,0.12611X0.16548*%
%ADD84C,0.16548*%
%ADD85C,0.20485*%
%ADD86C,0.02800*%
%ADD87C,0.03300*%
%ADD88C,0.04800*%
D57*
X26500Y-15427D02*
D03*
X31500D02*
D03*
X36500D02*
D03*
X41500D02*
D03*
X21500D02*
D03*
X16500D02*
D03*
X11500D02*
D03*
X77250D02*
D03*
X82250D02*
D03*
X87250D02*
D03*
X92250D02*
D03*
X72250D02*
D03*
X67250D02*
D03*
X62250D02*
D03*
X-77750Y-15177D02*
D03*
X-72750D02*
D03*
X-67750D02*
D03*
X-62750D02*
D03*
X-82750D02*
D03*
X-87750D02*
D03*
X-92750D02*
D03*
X-26500Y-15226D02*
D03*
X-21500D02*
D03*
X-16500D02*
D03*
X-11500D02*
D03*
X-31500D02*
D03*
X-36500D02*
D03*
X-41500D02*
D03*
D58*
X26500Y-51451D02*
D03*
X77250D02*
D03*
X-77750Y-51201D02*
D03*
X-26500Y-51250D02*
D03*
D59*
X139524Y-8000D02*
D03*
Y-5441D02*
D03*
Y-2882D02*
D03*
Y-323D02*
D03*
Y2236D02*
D03*
Y4795D02*
D03*
Y7354D02*
D03*
Y9913D02*
D03*
Y12472D02*
D03*
Y15032D02*
D03*
X117476D02*
D03*
Y12472D02*
D03*
Y9913D02*
D03*
Y7354D02*
D03*
Y4795D02*
D03*
Y2236D02*
D03*
Y-323D02*
D03*
Y-2882D02*
D03*
Y-5441D02*
D03*
Y-8000D02*
D03*
D60*
X68500Y89000D02*
D03*
X-84750D02*
D03*
D61*
X81886Y45299D02*
D03*
X75193D02*
D03*
X68500D02*
D03*
X61807D02*
D03*
X55114D02*
D03*
X-71364D02*
D03*
X-78057D02*
D03*
X-84750D02*
D03*
X-91443D02*
D03*
X-98136D02*
D03*
D62*
X-5000Y52165D02*
D03*
D63*
X4055Y75000D02*
D03*
X-5000D02*
D03*
X-14055D02*
D03*
D64*
X127750Y78000D02*
D03*
X134758D02*
D03*
X-159246Y-39000D02*
D03*
X-166254D02*
D03*
X-159246Y24000D02*
D03*
X-166254D02*
D03*
X110496Y-15750D02*
D03*
X117504D02*
D03*
D65*
X11500Y7500D02*
D03*
Y14508D02*
D03*
X21750Y7500D02*
D03*
Y14508D02*
D03*
X31750Y7500D02*
D03*
Y14508D02*
D03*
X42750Y7496D02*
D03*
Y14504D02*
D03*
X62250D02*
D03*
Y7496D02*
D03*
X-159250Y-14746D02*
D03*
Y-21754D02*
D03*
Y49758D02*
D03*
Y42750D02*
D03*
X72250Y14508D02*
D03*
Y7500D02*
D03*
X82250Y14504D02*
D03*
Y7496D02*
D03*
X93000Y14508D02*
D03*
Y7500D02*
D03*
X-92500Y7750D02*
D03*
Y14758D02*
D03*
X-41250Y14500D02*
D03*
Y7492D02*
D03*
X-82750Y7750D02*
D03*
Y14758D02*
D03*
X-31500Y14504D02*
D03*
Y7496D02*
D03*
X-61750Y7750D02*
D03*
Y14758D02*
D03*
X-72750Y7750D02*
D03*
Y14758D02*
D03*
X-10750Y14504D02*
D03*
Y7496D02*
D03*
X-21500Y14508D02*
D03*
Y7500D02*
D03*
X4750Y90246D02*
D03*
Y97254D02*
D03*
X-13250Y90250D02*
D03*
Y97258D02*
D03*
X134750Y30754D02*
D03*
Y23746D02*
D03*
X127750Y90246D02*
D03*
Y97254D02*
D03*
X-23250Y90242D02*
D03*
Y97250D02*
D03*
X-18500Y48258D02*
D03*
Y41250D02*
D03*
D66*
X97939Y54250D02*
D03*
X121561D02*
D03*
X-55311Y53500D02*
D03*
X-31689D02*
D03*
D67*
X98750Y97504D02*
D03*
Y85496D02*
D03*
X-53250Y97250D02*
D03*
Y85242D02*
D03*
D68*
X114348Y97461D02*
D03*
Y77933D02*
D03*
X-37152Y97211D02*
D03*
Y77683D02*
D03*
D69*
X26750Y60250D02*
D03*
Y88203D02*
D03*
X-126000Y60524D02*
D03*
Y88476D02*
D03*
D70*
X-39976Y-97750D02*
D03*
X-12024D02*
D03*
D71*
X-7065Y41250D02*
D03*
X3250D02*
D03*
D72*
X-23098Y78362D02*
D03*
Y68047D02*
D03*
D73*
X21813Y102250D02*
D03*
X15750D02*
D03*
X128687Y107750D02*
D03*
X134750D02*
D03*
D74*
X-4250Y91219D02*
D03*
Y97281D02*
D03*
D75*
X10752Y-66707D02*
D03*
X18626D02*
D03*
X26500D02*
D03*
X34374D02*
D03*
X42248D02*
D03*
X10752Y-37376D02*
D03*
X18626D02*
D03*
X26500D02*
D03*
X34374D02*
D03*
X42248D02*
D03*
Y-45250D02*
D03*
X34374D02*
D03*
X26500D02*
D03*
X18626D02*
D03*
X10752D02*
D03*
X42248Y-53124D02*
D03*
X34374D02*
D03*
X26500D02*
D03*
X18626D02*
D03*
X10752D02*
D03*
X42248Y-60998D02*
D03*
X34374D02*
D03*
X26500D02*
D03*
X18626D02*
D03*
X10752D02*
D03*
X61502Y-66707D02*
D03*
X69376D02*
D03*
X77250D02*
D03*
X85124D02*
D03*
X92998D02*
D03*
X61502Y-37376D02*
D03*
X69376D02*
D03*
X77250D02*
D03*
X85124D02*
D03*
X92998D02*
D03*
Y-45250D02*
D03*
X85124D02*
D03*
X77250D02*
D03*
X69376D02*
D03*
X61502D02*
D03*
X92998Y-53124D02*
D03*
X85124D02*
D03*
X77250D02*
D03*
X69376D02*
D03*
X61502D02*
D03*
X92998Y-60998D02*
D03*
X85124D02*
D03*
X77250D02*
D03*
X69376D02*
D03*
X61502D02*
D03*
X-93498Y-66457D02*
D03*
X-85624D02*
D03*
X-77750D02*
D03*
X-69876D02*
D03*
X-62002D02*
D03*
X-93498Y-37126D02*
D03*
X-85624D02*
D03*
X-77750D02*
D03*
X-69876D02*
D03*
X-62002D02*
D03*
Y-45000D02*
D03*
X-69876D02*
D03*
X-77750D02*
D03*
X-85624D02*
D03*
X-93498D02*
D03*
X-62002Y-52874D02*
D03*
X-69876D02*
D03*
X-77750D02*
D03*
X-85624D02*
D03*
X-93498D02*
D03*
X-62002Y-60748D02*
D03*
X-69876D02*
D03*
X-77750D02*
D03*
X-85624D02*
D03*
X-93498D02*
D03*
X-42248Y-66506D02*
D03*
X-34374D02*
D03*
X-26500D02*
D03*
X-18626D02*
D03*
X-10752D02*
D03*
X-42248Y-37175D02*
D03*
X-34374D02*
D03*
X-26500D02*
D03*
X-18626D02*
D03*
X-10752D02*
D03*
Y-45049D02*
D03*
X-18626D02*
D03*
X-26500D02*
D03*
X-34374D02*
D03*
X-42248D02*
D03*
X-10752Y-52923D02*
D03*
X-18626D02*
D03*
X-26500D02*
D03*
X-34374D02*
D03*
X-42248D02*
D03*
X-10752Y-60797D02*
D03*
X-18626D02*
D03*
X-26500D02*
D03*
X-34374D02*
D03*
X-42248D02*
D03*
D76*
X156750Y81250D02*
D03*
Y29478D02*
D03*
D77*
X145923Y69045D02*
D03*
Y59203D02*
D03*
Y51329D02*
D03*
Y41486D02*
D03*
D78*
X-129500Y-47500D02*
D03*
X-113949D02*
D03*
X126000Y-40301D02*
D03*
Y-24750D02*
D03*
Y-76801D02*
D03*
Y-61250D02*
D03*
D79*
X-143628Y-62750D02*
D03*
X-167250D02*
D03*
D80*
X-153471Y-81648D02*
D03*
D81*
X-134626Y-15059D02*
D03*
X-144626D02*
D03*
X-134626Y-5059D02*
D03*
X-144626D02*
D03*
X-134626Y4941D02*
D03*
X-144626D02*
D03*
X-134626Y14941D02*
D03*
X168339Y16230D02*
D03*
X178339D02*
D03*
X168339Y6230D02*
D03*
X178339D02*
D03*
X168339Y-3770D02*
D03*
X-171000Y-29622D02*
D03*
Y-21748D02*
D03*
Y-13874D02*
D03*
Y-6000D02*
D03*
Y1874D02*
D03*
Y9748D02*
D03*
Y34878D02*
D03*
Y42752D02*
D03*
Y50626D02*
D03*
Y58500D02*
D03*
Y66374D02*
D03*
Y74248D02*
D03*
D82*
X-144626Y14941D02*
D03*
X178339Y-3770D02*
D03*
D83*
X-94500Y-97750D02*
D03*
X-59067D02*
D03*
X-76784D02*
D03*
D84*
X177252Y-95748D02*
D03*
X-177252D02*
D03*
D85*
X151748Y101252D02*
D03*
X-157248D02*
D03*
D86*
X-97250Y-8750D02*
D03*
Y-11750D02*
D03*
Y-14750D02*
D03*
Y-18000D02*
D03*
Y-21500D02*
D03*
X-100250Y-22500D02*
D03*
Y-19000D02*
D03*
Y-15750D02*
D03*
Y-12750D02*
D03*
Y-9750D02*
D03*
X-45500Y-21000D02*
D03*
Y-17500D02*
D03*
Y-14250D02*
D03*
Y-11250D02*
D03*
Y-8250D02*
D03*
X-48500Y-21000D02*
D03*
Y-17500D02*
D03*
Y-14250D02*
D03*
Y-11250D02*
D03*
Y-8250D02*
D03*
X7250Y-8500D02*
D03*
Y-11250D02*
D03*
Y-14250D02*
D03*
Y-17250D02*
D03*
Y-20250D02*
D03*
X4250D02*
D03*
Y-17250D02*
D03*
Y-14250D02*
D03*
Y-11250D02*
D03*
Y-8500D02*
D03*
X58250Y-20250D02*
D03*
Y-17250D02*
D03*
Y-14250D02*
D03*
Y-11250D02*
D03*
Y-8500D02*
D03*
X55250Y-20250D02*
D03*
Y-17250D02*
D03*
Y-14250D02*
D03*
Y-11250D02*
D03*
Y-8500D02*
D03*
X-56500Y-500D02*
D03*
X-53250D02*
D03*
X-50000D02*
D03*
X-46500D02*
D03*
X-48250Y1750D02*
D03*
X-51500D02*
D03*
X-54750D02*
D03*
X-2500D02*
D03*
X750D02*
D03*
X4000D02*
D03*
X5750Y-500D02*
D03*
X2250D02*
D03*
X-1000D02*
D03*
X-4250D02*
D03*
X49750Y1500D02*
D03*
X53000D02*
D03*
X56250D02*
D03*
X58000Y-750D02*
D03*
X54500D02*
D03*
X51250D02*
D03*
X48000D02*
D03*
X97750Y1250D02*
D03*
X101000D02*
D03*
X99250Y3500D02*
D03*
X102500Y-1000D02*
D03*
X99250D02*
D03*
X96000D02*
D03*
X-128000Y99500D02*
D03*
X-124500D02*
D03*
X-121250D02*
D03*
X-117750D02*
D03*
X-114000D02*
D03*
X-118250Y50250D02*
D03*
X-114750D02*
D03*
X-110750D02*
D03*
X-118250Y47000D02*
D03*
X-114750D02*
D03*
X-110750D02*
D03*
X-107250Y50250D02*
D03*
Y47000D02*
D03*
X46750Y45250D02*
D03*
Y48500D02*
D03*
X43250Y45250D02*
D03*
X39250D02*
D03*
X35750D02*
D03*
X43250Y48500D02*
D03*
X39250D02*
D03*
X35750D02*
D03*
X1000Y35250D02*
D03*
X5000D02*
D03*
X8750D02*
D03*
X12500D02*
D03*
X86500Y49500D02*
D03*
Y45250D02*
D03*
X-35000Y39750D02*
D03*
X-31750D02*
D03*
X-28500D02*
D03*
X-126000Y27750D02*
D03*
Y29750D02*
D03*
X-72750Y22500D02*
D03*
X-21500D02*
D03*
X31750D02*
D03*
X-151750Y40750D02*
D03*
X132250Y-2500D02*
D03*
X82250Y22500D02*
D03*
X-147750Y-39000D02*
D03*
D87*
X-99492Y14758D02*
D03*
X-48250Y14500D02*
D03*
X3258Y14508D02*
D03*
X55254Y14504D02*
D03*
D88*
X174000Y-61250D02*
D03*
X159949Y-76801D02*
D03*
X147750Y-11750D02*
D03*
X157301Y-40301D02*
D03*
M02*
